%FSLAX34Y34*%
%MOMM*%
%LNSOLDERMASK_BOTTOM*%
G71*
G01*
%ADD10C, 3.30*%
%ADD11C, 2.80*%
%LPD*%
G36*
X52500Y960500D02*
X93500Y960500D01*
X93500Y919500D01*
X52500Y919500D01*
X52500Y960500D01*
G37*
G36*
X52500Y844500D02*
X93500Y844500D01*
X93500Y803500D01*
X52500Y803500D01*
X52500Y844500D01*
G37*
G36*
X511500Y834500D02*
X552500Y834500D01*
X552500Y793500D01*
X511500Y793500D01*
X511500Y834500D01*
G37*
G36*
X511500Y925500D02*
X552500Y925500D01*
X552500Y884500D01*
X511500Y884500D01*
X511500Y925500D01*
G37*
X450000Y946000D02*
G54D10*
D03*
X480000Y946000D02*
G54D10*
D03*
X510000Y946000D02*
G54D10*
D03*
X283000Y898000D02*
G54D11*
D03*
X283000Y872600D02*
G54D11*
D03*
X283000Y847200D02*
G54D11*
D03*
G36*
X269000Y835800D02*
X297000Y835800D01*
X297000Y807800D01*
X269000Y807800D01*
X269000Y835800D01*
G37*
X359200Y821800D02*
G54D11*
D03*
X359200Y847200D02*
G54D11*
D03*
X359200Y872600D02*
G54D11*
D03*
X359200Y898000D02*
G54D11*
D03*
M02*
