%FSLAX34Y34*%
%MOMM*%
%LNSOLDERMASK_TOP*%
G71*
G01*
%ADD10R, 2.00X1.50*%
%ADD11C, 1.60*%
%ADD12R, 3.20X2.00*%
%ADD13C, 2.80*%
%ADD14R, 1.70X2.80*%
%ADD15R, 1.80X2.00*%
%ADD16R, 1.40X1.35*%
%ADD17R, 1.40X1.30*%
%ADD18R, 1.90X1.50*%
%ADD19R, 1.50X2.00*%
%ADD20C, 3.30*%
%ADD21R, 3.20X2.20*%
%ADD22R, 1.20X1.70*%
%ADD23R, 1.50X1.90*%
%LPD*%
G36*
X52500Y960500D02*
X93500Y960500D01*
X93500Y919500D01*
X52500Y919500D01*
X52500Y960500D01*
G37*
G36*
X52500Y844500D02*
X93500Y844500D01*
X93500Y803500D01*
X52500Y803500D01*
X52500Y844500D01*
G37*
G36*
X511500Y834500D02*
X552500Y834500D01*
X552500Y793500D01*
X511500Y793500D01*
X511500Y834500D01*
G37*
X160000Y890000D02*
G54D10*
D03*
X160000Y857000D02*
G54D10*
D03*
X160000Y857000D02*
G54D10*
D03*
X160000Y890000D02*
G54D10*
D03*
G36*
X511500Y925500D02*
X552500Y925500D01*
X552500Y884500D01*
X511500Y884500D01*
X511500Y925500D01*
G37*
G54D11*
X426000Y817000D02*
X416000Y817000D01*
G54D11*
X426000Y858750D02*
X416000Y858750D01*
G54D11*
X69000Y910000D02*
X69000Y900000D01*
G54D11*
X123450Y910000D02*
X123450Y900000D01*
X190000Y835000D02*
G54D12*
D03*
X190000Y895325D02*
G54D12*
D03*
X190000Y828650D02*
G54D12*
D03*
X190000Y885800D02*
G54D12*
D03*
X283000Y898000D02*
G54D13*
D03*
X283000Y872600D02*
G54D13*
D03*
X283000Y847200D02*
G54D13*
D03*
G36*
X269000Y835800D02*
X297000Y835800D01*
X297000Y807800D01*
X269000Y807800D01*
X269000Y835800D01*
G37*
X359200Y821800D02*
G54D13*
D03*
X359200Y847200D02*
G54D13*
D03*
X359200Y872600D02*
G54D13*
D03*
X359200Y898000D02*
G54D13*
D03*
X391000Y918000D02*
G54D14*
D03*
X421000Y918000D02*
G54D14*
D03*
X451000Y856000D02*
G54D10*
D03*
X451000Y823059D02*
G54D10*
D03*
X240000Y900000D02*
G54D15*
D03*
X240000Y830150D02*
G54D15*
D03*
X485000Y807000D02*
G54D15*
D03*
X485000Y876850D02*
G54D15*
D03*
X449000Y878000D02*
G54D16*
D03*
X449000Y919750D02*
G54D17*
D03*
X328000Y897000D02*
G54D18*
D03*
X328000Y864059D02*
G54D18*
D03*
X306000Y873000D02*
G54D18*
D03*
X306000Y840059D02*
G54D18*
D03*
X394000Y856000D02*
G54D18*
D03*
X394000Y823059D02*
G54D18*
D03*
G36*
X413500Y894000D02*
X428500Y894000D01*
X428500Y874000D01*
X413500Y874000D01*
X413500Y894000D01*
G37*
X388059Y884000D02*
G54D19*
D03*
X450000Y946000D02*
G54D20*
D03*
X480000Y946000D02*
G54D20*
D03*
X510000Y946000D02*
G54D20*
D03*
X124000Y820000D02*
G54D21*
D03*
X139000Y855000D02*
G54D22*
D03*
X124000Y855000D02*
G54D22*
D03*
X109000Y855000D02*
G54D22*
D03*
X317000Y792000D02*
G54D23*
D03*
X284059Y792000D02*
G54D23*
D03*
X374000Y792000D02*
G54D23*
D03*
X341059Y792000D02*
G54D23*
D03*
M02*
