%FSLAX34Y34*%
%MOMM*%
%LNSILK_TOP*%
G71*
G01*
%ADD10C, 2.70*%
%ADD11C, 2.20*%
%ADD12C, 0.10*%
%LPD*%
G36*
X55500Y957500D02*
X90500Y957500D01*
X90500Y922500D01*
X55500Y922500D01*
X55500Y957500D01*
G37*
G36*
X55500Y841500D02*
X90500Y841500D01*
X90500Y806500D01*
X55500Y806500D01*
X55500Y841500D01*
G37*
G36*
X514500Y831500D02*
X549500Y831500D01*
X549500Y796500D01*
X514500Y796500D01*
X514500Y831500D01*
G37*
G36*
X514500Y922500D02*
X549500Y922500D01*
X549500Y887500D01*
X514500Y887500D01*
X514500Y922500D01*
G37*
X450000Y946000D02*
G54D10*
D03*
X480000Y946000D02*
G54D10*
D03*
X510000Y946000D02*
G54D10*
D03*
X283000Y898000D02*
G54D11*
D03*
X283000Y872600D02*
G54D11*
D03*
X283000Y847200D02*
G54D11*
D03*
G36*
X272000Y832800D02*
X294000Y832800D01*
X294000Y810800D01*
X272000Y810800D01*
X272000Y832800D01*
G37*
X359200Y821800D02*
G54D11*
D03*
X359200Y847200D02*
G54D11*
D03*
X359200Y872600D02*
G54D11*
D03*
X359200Y898000D02*
G54D11*
D03*
G54D12*
X283000Y910700D02*
X283000Y809100D01*
X308400Y809100D01*
X308400Y821800D01*
X333800Y821800D01*
X333800Y809100D01*
X359200Y809100D01*
X359200Y910700D01*
X283000Y910700D01*
M02*
