%FSLAX34Y34*%
%MOMM*%
%LNSOLDERMASK_BOTTOM*%
G71*
G01*
%ADD10C, 3.30*%
%ADD11C, 1.60*%
%LPD*%
G36*
X39850Y807875D02*
X80850Y807875D01*
X80850Y766875D01*
X39850Y766875D01*
X39850Y807875D01*
G37*
G36*
X39850Y972975D02*
X80850Y972975D01*
X80850Y931975D01*
X39850Y931975D01*
X39850Y972975D01*
G37*
G36*
X39850Y890425D02*
X80850Y890425D01*
X80850Y849425D01*
X39850Y849425D01*
X39850Y890425D01*
G37*
G36*
X389100Y807875D02*
X430100Y807875D01*
X430100Y766875D01*
X389100Y766875D01*
X389100Y807875D01*
G37*
G36*
X389100Y890425D02*
X430100Y890425D01*
X430100Y849425D01*
X389100Y849425D01*
X389100Y890425D01*
G37*
G36*
X389100Y972975D02*
X430100Y972975D01*
X430100Y931975D01*
X389100Y931975D01*
X389100Y972975D01*
G37*
X352450Y914375D02*
G54D10*
D03*
X352450Y884375D02*
G54D10*
D03*
X352450Y854375D02*
G54D10*
D03*
X206400Y914375D02*
G54D11*
D03*
X158775Y888975D02*
G54D11*
D03*
X12725Y977875D02*
G54D11*
D03*
X12725Y758800D02*
G54D11*
D03*
X12725Y869925D02*
G54D11*
D03*
X450875Y869925D02*
G54D11*
D03*
X450875Y977875D02*
G54D11*
D03*
X450875Y758800D02*
G54D11*
D03*
X219100Y892150D02*
G54D11*
D03*
X257200Y869925D02*
G54D11*
D03*
X244500Y981050D02*
G54D11*
D03*
X244500Y755625D02*
G54D11*
D03*
G36*
X39850Y560225D02*
X80850Y560225D01*
X80850Y519225D01*
X39850Y519225D01*
X39850Y560225D01*
G37*
G36*
X39850Y725325D02*
X80850Y725325D01*
X80850Y684325D01*
X39850Y684325D01*
X39850Y725325D01*
G37*
G36*
X39850Y642775D02*
X80850Y642775D01*
X80850Y601775D01*
X39850Y601775D01*
X39850Y642775D01*
G37*
G36*
X389100Y560225D02*
X430100Y560225D01*
X430100Y519225D01*
X389100Y519225D01*
X389100Y560225D01*
G37*
G36*
X389100Y642775D02*
X430100Y642775D01*
X430100Y601775D01*
X389100Y601775D01*
X389100Y642775D01*
G37*
G36*
X389100Y725325D02*
X430100Y725325D01*
X430100Y684325D01*
X389100Y684325D01*
X389100Y725325D01*
G37*
X352450Y666725D02*
G54D10*
D03*
X352450Y636725D02*
G54D10*
D03*
X352450Y606725D02*
G54D10*
D03*
X206400Y666725D02*
G54D11*
D03*
X158775Y641325D02*
G54D11*
D03*
X12725Y730225D02*
G54D11*
D03*
X12725Y511150D02*
G54D11*
D03*
X12725Y622275D02*
G54D11*
D03*
X450875Y622275D02*
G54D11*
D03*
X450875Y730225D02*
G54D11*
D03*
X450875Y511150D02*
G54D11*
D03*
X219100Y644500D02*
G54D11*
D03*
X257200Y622275D02*
G54D11*
D03*
X244500Y733400D02*
G54D11*
D03*
X244500Y507975D02*
G54D11*
D03*
G36*
X39850Y312575D02*
X80850Y312575D01*
X80850Y271575D01*
X39850Y271575D01*
X39850Y312575D01*
G37*
G36*
X39850Y477675D02*
X80850Y477675D01*
X80850Y436675D01*
X39850Y436675D01*
X39850Y477675D01*
G37*
G36*
X39850Y395125D02*
X80850Y395125D01*
X80850Y354125D01*
X39850Y354125D01*
X39850Y395125D01*
G37*
G36*
X389100Y312575D02*
X430100Y312575D01*
X430100Y271575D01*
X389100Y271575D01*
X389100Y312575D01*
G37*
G36*
X389100Y395125D02*
X430100Y395125D01*
X430100Y354125D01*
X389100Y354125D01*
X389100Y395125D01*
G37*
G36*
X389100Y477675D02*
X430100Y477675D01*
X430100Y436675D01*
X389100Y436675D01*
X389100Y477675D01*
G37*
X352450Y419075D02*
G54D10*
D03*
X352450Y389075D02*
G54D10*
D03*
X352450Y359075D02*
G54D10*
D03*
X206400Y419075D02*
G54D11*
D03*
X158775Y393675D02*
G54D11*
D03*
X12725Y482575D02*
G54D11*
D03*
X12725Y263500D02*
G54D11*
D03*
X12725Y374625D02*
G54D11*
D03*
X450875Y374625D02*
G54D11*
D03*
X450875Y482575D02*
G54D11*
D03*
X450875Y263500D02*
G54D11*
D03*
X219100Y396850D02*
G54D11*
D03*
X257200Y374625D02*
G54D11*
D03*
X244500Y485750D02*
G54D11*
D03*
X244500Y260325D02*
G54D11*
D03*
G36*
X39850Y64925D02*
X80850Y64925D01*
X80850Y23925D01*
X39850Y23925D01*
X39850Y64925D01*
G37*
G36*
X39850Y230025D02*
X80850Y230025D01*
X80850Y189025D01*
X39850Y189025D01*
X39850Y230025D01*
G37*
G36*
X39850Y147475D02*
X80850Y147475D01*
X80850Y106475D01*
X39850Y106475D01*
X39850Y147475D01*
G37*
G36*
X389100Y64925D02*
X430100Y64925D01*
X430100Y23925D01*
X389100Y23925D01*
X389100Y64925D01*
G37*
G36*
X389100Y147475D02*
X430100Y147475D01*
X430100Y106475D01*
X389100Y106475D01*
X389100Y147475D01*
G37*
G36*
X389100Y230025D02*
X430100Y230025D01*
X430100Y189025D01*
X389100Y189025D01*
X389100Y230025D01*
G37*
X352450Y171425D02*
G54D10*
D03*
X352450Y141425D02*
G54D10*
D03*
X352450Y111425D02*
G54D10*
D03*
X206400Y171425D02*
G54D11*
D03*
X158775Y146025D02*
G54D11*
D03*
X12725Y234925D02*
G54D11*
D03*
X12725Y15850D02*
G54D11*
D03*
X12725Y126975D02*
G54D11*
D03*
X450875Y126975D02*
G54D11*
D03*
X450875Y234925D02*
G54D11*
D03*
X450875Y15850D02*
G54D11*
D03*
X219100Y149200D02*
G54D11*
D03*
X257200Y126975D02*
G54D11*
D03*
X244500Y238100D02*
G54D11*
D03*
X244500Y12675D02*
G54D11*
D03*
G36*
X509750Y807875D02*
X550750Y807875D01*
X550750Y766875D01*
X509750Y766875D01*
X509750Y807875D01*
G37*
G36*
X509750Y972975D02*
X550750Y972975D01*
X550750Y931975D01*
X509750Y931975D01*
X509750Y972975D01*
G37*
G36*
X509750Y890425D02*
X550750Y890425D01*
X550750Y849425D01*
X509750Y849425D01*
X509750Y890425D01*
G37*
G36*
X859000Y807875D02*
X900000Y807875D01*
X900000Y766875D01*
X859000Y766875D01*
X859000Y807875D01*
G37*
G36*
X859000Y890425D02*
X900000Y890425D01*
X900000Y849425D01*
X859000Y849425D01*
X859000Y890425D01*
G37*
G36*
X859000Y972975D02*
X900000Y972975D01*
X900000Y931975D01*
X859000Y931975D01*
X859000Y972975D01*
G37*
X822350Y914375D02*
G54D10*
D03*
X822350Y884375D02*
G54D10*
D03*
X822350Y854375D02*
G54D10*
D03*
X676300Y914375D02*
G54D11*
D03*
X628675Y888975D02*
G54D11*
D03*
X482625Y977875D02*
G54D11*
D03*
X482625Y758800D02*
G54D11*
D03*
X482625Y869925D02*
G54D11*
D03*
X920775Y869925D02*
G54D11*
D03*
X920775Y977875D02*
G54D11*
D03*
X920775Y758800D02*
G54D11*
D03*
X689000Y892150D02*
G54D11*
D03*
X727100Y869925D02*
G54D11*
D03*
X714400Y981050D02*
G54D11*
D03*
X714400Y755625D02*
G54D11*
D03*
G36*
X509750Y560225D02*
X550750Y560225D01*
X550750Y519225D01*
X509750Y519225D01*
X509750Y560225D01*
G37*
G36*
X509750Y725325D02*
X550750Y725325D01*
X550750Y684325D01*
X509750Y684325D01*
X509750Y725325D01*
G37*
G36*
X509750Y642775D02*
X550750Y642775D01*
X550750Y601775D01*
X509750Y601775D01*
X509750Y642775D01*
G37*
G36*
X859000Y560225D02*
X900000Y560225D01*
X900000Y519225D01*
X859000Y519225D01*
X859000Y560225D01*
G37*
G36*
X859000Y642775D02*
X900000Y642775D01*
X900000Y601775D01*
X859000Y601775D01*
X859000Y642775D01*
G37*
G36*
X859000Y725325D02*
X900000Y725325D01*
X900000Y684325D01*
X859000Y684325D01*
X859000Y725325D01*
G37*
X822350Y666725D02*
G54D10*
D03*
X822350Y636725D02*
G54D10*
D03*
X822350Y606725D02*
G54D10*
D03*
X676300Y666725D02*
G54D11*
D03*
X628675Y641325D02*
G54D11*
D03*
X482625Y730225D02*
G54D11*
D03*
X482625Y511150D02*
G54D11*
D03*
X482625Y622275D02*
G54D11*
D03*
X920775Y622275D02*
G54D11*
D03*
X920775Y730225D02*
G54D11*
D03*
X920775Y511150D02*
G54D11*
D03*
X689000Y644500D02*
G54D11*
D03*
X727100Y622275D02*
G54D11*
D03*
X714400Y733400D02*
G54D11*
D03*
X714400Y507975D02*
G54D11*
D03*
G36*
X509750Y312575D02*
X550750Y312575D01*
X550750Y271575D01*
X509750Y271575D01*
X509750Y312575D01*
G37*
G36*
X509750Y477675D02*
X550750Y477675D01*
X550750Y436675D01*
X509750Y436675D01*
X509750Y477675D01*
G37*
G36*
X509750Y395125D02*
X550750Y395125D01*
X550750Y354125D01*
X509750Y354125D01*
X509750Y395125D01*
G37*
G36*
X859000Y312575D02*
X900000Y312575D01*
X900000Y271575D01*
X859000Y271575D01*
X859000Y312575D01*
G37*
G36*
X859000Y395125D02*
X900000Y395125D01*
X900000Y354125D01*
X859000Y354125D01*
X859000Y395125D01*
G37*
G36*
X859000Y477675D02*
X900000Y477675D01*
X900000Y436675D01*
X859000Y436675D01*
X859000Y477675D01*
G37*
X822350Y419075D02*
G54D10*
D03*
X822350Y389075D02*
G54D10*
D03*
X822350Y359075D02*
G54D10*
D03*
X676300Y419075D02*
G54D11*
D03*
X628675Y393675D02*
G54D11*
D03*
X482625Y482575D02*
G54D11*
D03*
X482625Y263500D02*
G54D11*
D03*
X482625Y374625D02*
G54D11*
D03*
X920775Y374625D02*
G54D11*
D03*
X920775Y482575D02*
G54D11*
D03*
X920775Y263500D02*
G54D11*
D03*
X689000Y396850D02*
G54D11*
D03*
X727100Y374625D02*
G54D11*
D03*
X714400Y485750D02*
G54D11*
D03*
X714400Y260325D02*
G54D11*
D03*
G36*
X509750Y64925D02*
X550750Y64925D01*
X550750Y23925D01*
X509750Y23925D01*
X509750Y64925D01*
G37*
G36*
X509750Y230025D02*
X550750Y230025D01*
X550750Y189025D01*
X509750Y189025D01*
X509750Y230025D01*
G37*
G36*
X509750Y147475D02*
X550750Y147475D01*
X550750Y106475D01*
X509750Y106475D01*
X509750Y147475D01*
G37*
G36*
X859000Y64925D02*
X900000Y64925D01*
X900000Y23925D01*
X859000Y23925D01*
X859000Y64925D01*
G37*
G36*
X859000Y147475D02*
X900000Y147475D01*
X900000Y106475D01*
X859000Y106475D01*
X859000Y147475D01*
G37*
G36*
X859000Y230025D02*
X900000Y230025D01*
X900000Y189025D01*
X859000Y189025D01*
X859000Y230025D01*
G37*
X822350Y171425D02*
G54D10*
D03*
X822350Y141425D02*
G54D10*
D03*
X822350Y111425D02*
G54D10*
D03*
X676300Y171425D02*
G54D11*
D03*
X628675Y146025D02*
G54D11*
D03*
X482625Y234925D02*
G54D11*
D03*
X482625Y15850D02*
G54D11*
D03*
X482625Y126975D02*
G54D11*
D03*
X920775Y126975D02*
G54D11*
D03*
X920775Y234925D02*
G54D11*
D03*
X920775Y15850D02*
G54D11*
D03*
X689000Y149200D02*
G54D11*
D03*
X727100Y126975D02*
G54D11*
D03*
X714400Y238100D02*
G54D11*
D03*
X714400Y12675D02*
G54D11*
D03*
M02*
