%FSLAX34Y34*%
%MOMM*%
%LNCOPPER_BOTTOM*%
G71*
G01*
%ADD10C, 0.32*%
%ADD11C, 0.10*%
%ADD12C, 0.50*%
%ADD13C, 0.16*%
%ADD14C, 0.11*%
%ADD15C, 0.15*%
%ADD16C, 0.16*%
%ADD17C, 0.20*%
%ADD18C, 0.06*%
%ADD19C, 0.17*%
%LPD*%
G54D10*
X28600Y950728D02*
X17933Y950728D01*
G54D10*
X23267Y955172D02*
X23267Y946283D01*
G54D10*
X28600Y785628D02*
X17933Y785628D01*
G54D11*
X276406Y859000D02*
X276406Y827200D01*
X263706Y827200D01*
X263706Y859000D01*
X276406Y859000D01*
G54D12*
X276406Y833600D02*
X263706Y833600D01*
G54D13*
X262706Y847800D02*
X271595Y847800D01*
X271595Y844467D01*
X271040Y843133D01*
X269928Y842467D01*
X264373Y842467D01*
X263262Y843133D01*
X262706Y844467D01*
X262706Y847800D01*
G54D11*
X90325Y945969D02*
X134825Y945969D01*
X134825Y958669D01*
X90325Y958669D01*
X90325Y945969D01*
G54D12*
X122075Y945969D02*
X122075Y958669D01*
G54D13*
X107875Y956494D02*
X107875Y947605D01*
X111208Y947605D01*
X112542Y948160D01*
X113208Y949272D01*
X113208Y954827D01*
X112542Y955938D01*
X111208Y956494D01*
X107875Y956494D01*
G54D14*
X171100Y860400D02*
X171100Y866622D01*
X168300Y862733D01*
X168300Y861956D01*
X172033Y861956D01*
G54D14*
X174211Y866622D02*
X177944Y866622D01*
X177478Y865844D01*
X176544Y864678D01*
X175611Y863122D01*
X175144Y861956D01*
X175144Y860400D01*
G54D14*
X182922Y863900D02*
X182922Y860400D01*
G54D14*
X182922Y861178D02*
X182455Y860556D01*
X181522Y860400D01*
X180589Y860556D01*
X180122Y861178D01*
X180122Y863900D01*
G54D14*
X185100Y864289D02*
X187433Y866622D01*
X187433Y860400D01*
G54D14*
X193344Y865456D02*
X192878Y866233D01*
X191944Y866622D01*
X191011Y866622D01*
X190078Y866233D01*
X189611Y865456D01*
X189611Y863511D01*
X189611Y863122D01*
X191011Y863900D01*
X191944Y863900D01*
X192878Y863511D01*
X193344Y862733D01*
X193344Y861567D01*
X192878Y860789D01*
X191944Y860400D01*
X191011Y860400D01*
X190078Y860789D01*
X189611Y861567D01*
X189611Y863511D01*
G54D14*
X195522Y863900D02*
X197389Y860400D01*
X199255Y863900D01*
G54D15*
X222275Y850875D02*
X156150Y850875D01*
X156150Y876000D01*
X222275Y876000D01*
X222275Y850875D01*
G54D11*
X237171Y766818D02*
X205972Y766817D01*
X205972Y782417D01*
X237171Y782418D01*
X237171Y766818D01*
G54D11*
X165062Y791675D02*
X165062Y757675D01*
X101062Y757675D01*
X101062Y791675D01*
X165062Y791675D01*
G54D11*
X157062Y782675D02*
X109062Y782675D01*
X109062Y766675D01*
X157062Y766675D01*
X157062Y781675D01*
X157062Y782675D01*
G54D11*
X361912Y791675D02*
X361912Y757675D01*
X297912Y757675D01*
X297912Y791675D01*
X361912Y791675D01*
G54D11*
X353912Y782675D02*
X305912Y782675D01*
X305912Y766675D01*
X353912Y766675D01*
X353912Y781675D01*
X353912Y782675D01*
G54D16*
X19075Y869925D02*
X19075Y882369D01*
G54D16*
X22497Y869925D02*
X22497Y876925D01*
G54D16*
X22497Y875369D02*
X23430Y876458D01*
X25297Y876925D01*
X27164Y876458D01*
X28097Y875369D01*
X28097Y869925D01*
G54D11*
X125518Y823279D02*
X125517Y854478D01*
X141117Y854478D01*
X141118Y823279D01*
X125518Y823279D01*
G54D11*
X100118Y823279D02*
X100117Y854478D01*
X115717Y854478D01*
X115718Y823279D01*
X100118Y823279D01*
G54D11*
X236642Y823279D02*
X236642Y854478D01*
X252242Y854478D01*
X252242Y823279D01*
X236642Y823279D01*
G54D11*
X245478Y807933D02*
X276678Y807933D01*
X276678Y792333D01*
X245478Y792333D01*
X245478Y807933D01*
G54D17*
X107450Y933250D02*
X132850Y933250D01*
X132850Y888800D01*
X107450Y888800D01*
X107450Y933250D01*
G54D11*
X198542Y924879D02*
X198542Y956078D01*
X214142Y956078D01*
X214142Y924879D01*
X198542Y924879D01*
G54D15*
X199950Y842000D02*
X176950Y842000D01*
X176950Y790900D01*
X199950Y790900D01*
X199950Y842000D01*
G54D15*
X194950Y842000D02*
X181950Y842000D01*
X181950Y837000D01*
X194950Y837000D01*
X194950Y842000D01*
G54D18*
X193338Y808578D02*
X184450Y808578D01*
G54D18*
X191672Y815689D02*
X192783Y815023D01*
X193338Y813689D01*
X193338Y812356D01*
X192783Y811023D01*
X191672Y810356D01*
X186116Y810356D01*
X185005Y811023D01*
X184450Y812356D01*
X184450Y813689D01*
X185005Y815023D01*
X186116Y815689D01*
G54D18*
X187783Y817467D02*
X184450Y820800D01*
X193338Y820800D01*
G54D17*
X193700Y955650D02*
X193700Y923650D01*
G54D17*
X193700Y955650D02*
X165700Y955650D01*
G54D17*
X165700Y955650D02*
X165700Y930650D01*
X172700Y923650D01*
X193700Y923650D01*
G54D17*
X181000Y955650D02*
X181000Y925650D01*
G54D17*
X174650Y936600D02*
X184650Y936600D01*
G54D17*
X181000Y936600D02*
X185000Y940600D01*
X177000Y940600D01*
X181000Y936600D01*
G54D15*
X206375Y903150D02*
X206375Y881150D01*
X168375Y881150D01*
X168375Y903150D01*
X206375Y903150D01*
G54D14*
X168283Y911616D02*
X168283Y907727D01*
X167817Y906949D01*
X166883Y906560D01*
X165950Y906560D01*
X165017Y906949D01*
X164550Y907727D01*
X164550Y911616D01*
X165017Y912393D01*
X165950Y912782D01*
X166883Y912782D01*
X167817Y912393D01*
X168283Y911616D01*
G54D14*
X170461Y906560D02*
X170461Y906560D01*
G54D14*
X172639Y910449D02*
X174972Y912782D01*
X174972Y906560D01*
G54D14*
X179950Y910060D02*
X179950Y906560D01*
G54D14*
X179950Y907338D02*
X179483Y906716D01*
X178550Y906560D01*
X177617Y906716D01*
X177150Y907338D01*
X177150Y910060D01*
G54D14*
X183061Y906560D02*
X183061Y912393D01*
X183528Y912782D01*
X183995Y912549D01*
G54D14*
X182128Y910060D02*
X183995Y910060D01*
G54D14*
X115732Y897843D02*
X115732Y901576D01*
X116510Y901110D01*
X117676Y900176D01*
X119232Y899243D01*
X120398Y898776D01*
X121954Y898776D01*
G54D14*
X118843Y906087D02*
X118843Y905154D01*
X118454Y904221D01*
X117676Y903754D01*
X116898Y903754D01*
X116121Y904221D01*
X115732Y905154D01*
X115732Y906087D01*
X116121Y907021D01*
X116898Y907487D01*
X117676Y907487D01*
X118454Y907021D01*
X118843Y906087D01*
X119232Y907021D01*
X120010Y907487D01*
X120787Y907487D01*
X121565Y907021D01*
X121954Y906087D01*
X121954Y905154D01*
X121565Y904221D01*
X120787Y903754D01*
X120010Y903754D01*
X119232Y904221D01*
X118843Y905154D01*
G54D14*
X115732Y909665D02*
X121954Y909665D01*
X121954Y912932D01*
G54D14*
X116898Y918843D02*
X120787Y918843D01*
X121565Y918377D01*
X121954Y917443D01*
X121954Y916510D01*
X121565Y915577D01*
X120787Y915110D01*
X116898Y915110D01*
X116121Y915577D01*
X115732Y916510D01*
X115732Y917443D01*
X116121Y918377D01*
X116898Y918843D01*
G54D14*
X115732Y924754D02*
X115732Y921021D01*
X118454Y921021D01*
X118454Y921488D01*
X118065Y922421D01*
X118065Y923354D01*
X118454Y924288D01*
X119232Y924754D01*
X120787Y924754D01*
X121565Y924288D01*
X121954Y923354D01*
X121954Y922421D01*
X121565Y921488D01*
X120787Y921021D01*
G54D19*
X442822Y855644D02*
X442822Y849533D01*
X441844Y848311D01*
X439889Y847700D01*
X437933Y847700D01*
X435978Y848311D01*
X435000Y849533D01*
X435000Y855644D01*
X435978Y856867D01*
X437933Y857478D01*
X439889Y857478D01*
X441844Y856867D01*
X442822Y855644D01*
G54D19*
X452111Y853200D02*
X452111Y847700D01*
G54D19*
X452111Y848922D02*
X451133Y847944D01*
X449177Y847700D01*
X447222Y847944D01*
X446244Y848922D01*
X446244Y853200D01*
G54D19*
X457489Y857478D02*
X457489Y848311D01*
X458466Y847700D01*
X459444Y847944D01*
G54D19*
X455533Y853200D02*
X459444Y853200D01*
G54D10*
X454050Y788803D02*
X443383Y788803D01*
G54D10*
X450875Y953903D02*
X440208Y953903D01*
G54D10*
X445542Y958347D02*
X445542Y949458D01*
G54D14*
X205686Y933425D02*
X203353Y935758D01*
X209575Y935758D01*
G54D14*
X204520Y941669D02*
X208408Y941669D01*
X209186Y941203D01*
X209575Y940269D01*
X209575Y939336D01*
X209186Y938403D01*
X208408Y937936D01*
X204520Y937936D01*
X203742Y938403D01*
X203353Y939336D01*
X203353Y940269D01*
X203742Y941203D01*
X204520Y941669D01*
G54D14*
X209575Y943847D02*
X203353Y943847D01*
G54D14*
X207631Y943847D02*
X203353Y947580D01*
G54D14*
X206464Y945247D02*
X209575Y947580D01*
G54D14*
X107261Y828650D02*
X104928Y830983D01*
X111150Y830983D01*
G54D14*
X106094Y836894D02*
X109983Y836894D01*
X110761Y836428D01*
X111150Y835494D01*
X111150Y834561D01*
X110761Y833628D01*
X109983Y833161D01*
X106094Y833161D01*
X105317Y833628D01*
X104928Y834561D01*
X104928Y835494D01*
X105317Y836428D01*
X106094Y836894D01*
G54D14*
X111150Y839072D02*
X104928Y839072D01*
G54D14*
X109206Y839072D02*
X104928Y842805D01*
G54D14*
X108039Y840472D02*
X111150Y842805D01*
G54D14*
X132661Y828650D02*
X130328Y830983D01*
X136550Y830983D01*
G54D14*
X131494Y836894D02*
X135383Y836894D01*
X136161Y836428D01*
X136550Y835494D01*
X136550Y834561D01*
X136161Y833628D01*
X135383Y833161D01*
X131494Y833161D01*
X130717Y833628D01*
X130328Y834561D01*
X130328Y835494D01*
X130717Y836428D01*
X131494Y836894D01*
G54D14*
X136550Y839072D02*
X130328Y839072D01*
G54D14*
X134606Y839072D02*
X130328Y842805D01*
G54D14*
X133439Y840472D02*
X136550Y842805D01*
G54D14*
X243659Y833556D02*
X241325Y835890D01*
X247548Y835890D01*
G54D14*
X242492Y841801D02*
X246381Y841801D01*
X247159Y841334D01*
X247548Y840401D01*
X247548Y839468D01*
X247159Y838534D01*
X246381Y838068D01*
X242492Y838068D01*
X241714Y838534D01*
X241325Y839468D01*
X241325Y840401D01*
X241714Y841334D01*
X242492Y841801D01*
G54D14*
X247548Y843978D02*
X241325Y843978D01*
G54D14*
X245603Y843978D02*
X241325Y847712D01*
G54D14*
X244436Y845378D02*
X247548Y847712D01*
G54D14*
X215925Y775389D02*
X218258Y777722D01*
X218258Y771500D01*
G54D14*
X220436Y771500D02*
X220436Y777722D01*
G54D14*
X220436Y773444D02*
X224169Y777722D01*
G54D14*
X221836Y774611D02*
X224169Y771500D01*
G54D14*
X257200Y800789D02*
X259533Y803122D01*
X259533Y796900D01*
G54D14*
X261711Y796900D02*
X261711Y803122D01*
G54D14*
X261711Y798844D02*
X265444Y803122D01*
G54D14*
X263111Y800011D02*
X265444Y796900D01*
G54D14*
X361975Y898500D02*
X361975Y904722D01*
X364308Y904722D01*
X365242Y904333D01*
X365708Y903556D01*
X365708Y902778D01*
X365242Y902000D01*
X364308Y901611D01*
X365242Y901222D01*
X365708Y900444D01*
X365708Y899667D01*
X365242Y898889D01*
X364308Y898500D01*
X361975Y898500D01*
G54D14*
X361975Y901611D02*
X364308Y901611D01*
G54D14*
X365708Y871092D02*
X365242Y870314D01*
X364308Y869925D01*
X363375Y869925D01*
X362442Y870314D01*
X361975Y871092D01*
X361975Y874981D01*
X362442Y875758D01*
X363375Y876147D01*
X364308Y876147D01*
X365242Y875758D01*
X365708Y874981D01*
G54D14*
X365242Y838175D02*
X361975Y838175D01*
X361975Y844397D01*
X365242Y844397D01*
G54D14*
X361975Y841286D02*
X365242Y841286D01*
G54D14*
X339750Y930250D02*
X339750Y936472D01*
X342083Y936472D01*
X343017Y936083D01*
X343483Y935306D01*
X343483Y934528D01*
X343017Y933750D01*
X342083Y933361D01*
X343017Y932972D01*
X343483Y932194D01*
X343483Y931417D01*
X343017Y930639D01*
X342083Y930250D01*
X339750Y930250D01*
G54D14*
X339750Y933361D02*
X342083Y933361D01*
G54D14*
X345661Y930250D02*
X345661Y936472D01*
X347994Y936472D01*
X348928Y936083D01*
X349394Y935306D01*
X349394Y931417D01*
X348928Y930639D01*
X347994Y930250D01*
X345661Y930250D01*
G54D14*
X355305Y935306D02*
X354839Y936083D01*
X353905Y936472D01*
X352972Y936472D01*
X352039Y936083D01*
X351572Y935306D01*
X351572Y933361D01*
X351572Y932972D01*
X352972Y933750D01*
X353905Y933750D01*
X354839Y933361D01*
X355305Y932583D01*
X355305Y931417D01*
X354839Y930639D01*
X353905Y930250D01*
X352972Y930250D01*
X352039Y930639D01*
X351572Y931417D01*
X351572Y933361D01*
G54D14*
X357483Y936472D02*
X361216Y936472D01*
X360750Y935694D01*
X359816Y934528D01*
X358883Y932972D01*
X358416Y931806D01*
X358416Y930250D01*
G54D14*
X363394Y936472D02*
X367127Y936472D01*
X366661Y935694D01*
X365727Y934528D01*
X364794Y932972D01*
X364327Y931806D01*
X364327Y930250D01*
G54D11*
X369950Y836875D02*
X369950Y929375D01*
X334950Y929375D01*
X334950Y836875D01*
X369950Y836875D01*
G54D17*
X257200Y892150D02*
X257200Y924150D01*
G54D17*
X257200Y892150D02*
X285200Y892150D01*
G54D17*
X285200Y892150D02*
X285200Y917150D01*
X278200Y924150D01*
X257200Y924150D01*
G54D17*
X269900Y892150D02*
X269900Y922150D01*
G54D17*
X276250Y911200D02*
X266250Y911200D01*
G54D17*
X269900Y911200D02*
X265900Y907200D01*
X273900Y907200D01*
X269900Y911200D01*
G54D11*
X233467Y893128D02*
X233467Y924328D01*
X249067Y924328D01*
X249068Y893128D01*
X233467Y893128D01*
G54D14*
X240611Y904850D02*
X238278Y907183D01*
X244500Y907183D01*
G54D14*
X244500Y909361D02*
X238278Y909361D01*
G54D14*
X242556Y909361D02*
X238278Y913094D01*
G54D14*
X241389Y910761D02*
X244500Y913094D01*
G54D11*
X320856Y849100D02*
X320856Y893600D01*
X308156Y893600D01*
X308156Y849100D01*
X320856Y849100D01*
G54D12*
X320856Y880850D02*
X308156Y880850D01*
G54D13*
X310331Y866650D02*
X319220Y866650D01*
X319220Y869983D01*
X318664Y871317D01*
X317553Y871983D01*
X311998Y871983D01*
X310887Y871317D01*
X310331Y869983D01*
X310331Y866650D01*
G54D10*
X28600Y703078D02*
X17933Y703078D01*
G54D10*
X23267Y707522D02*
X23267Y698633D01*
G54D10*
X28600Y537978D02*
X17933Y537978D01*
G54D11*
X276406Y611350D02*
X276406Y579550D01*
X263706Y579550D01*
X263706Y611350D01*
X276406Y611350D01*
G54D12*
X276406Y585950D02*
X263706Y585950D01*
G54D13*
X262706Y600150D02*
X271595Y600150D01*
X271595Y596817D01*
X271040Y595483D01*
X269928Y594817D01*
X264373Y594817D01*
X263262Y595483D01*
X262706Y596817D01*
X262706Y600150D01*
G54D11*
X90325Y698319D02*
X134825Y698319D01*
X134825Y711019D01*
X90325Y711019D01*
X90325Y698319D01*
G54D12*
X122075Y698319D02*
X122075Y711019D01*
G54D13*
X107875Y708844D02*
X107875Y699955D01*
X111208Y699955D01*
X112542Y700510D01*
X113208Y701622D01*
X113208Y707177D01*
X112542Y708288D01*
X111208Y708844D01*
X107875Y708844D01*
G54D14*
X171100Y612750D02*
X171100Y618972D01*
X168300Y615083D01*
X168300Y614306D01*
X172033Y614306D01*
G54D14*
X174211Y618972D02*
X177944Y618972D01*
X177478Y618194D01*
X176544Y617028D01*
X175611Y615472D01*
X175144Y614306D01*
X175144Y612750D01*
G54D14*
X182922Y616250D02*
X182922Y612750D01*
G54D14*
X182922Y613528D02*
X182455Y612906D01*
X181522Y612750D01*
X180589Y612906D01*
X180122Y613528D01*
X180122Y616250D01*
G54D14*
X185100Y616639D02*
X187433Y618972D01*
X187433Y612750D01*
G54D14*
X193344Y617806D02*
X192878Y618583D01*
X191944Y618972D01*
X191011Y618972D01*
X190078Y618583D01*
X189611Y617806D01*
X189611Y615861D01*
X189611Y615472D01*
X191011Y616250D01*
X191944Y616250D01*
X192878Y615861D01*
X193344Y615083D01*
X193344Y613917D01*
X192878Y613139D01*
X191944Y612750D01*
X191011Y612750D01*
X190078Y613139D01*
X189611Y613917D01*
X189611Y615861D01*
G54D14*
X195522Y616250D02*
X197389Y612750D01*
X199255Y616250D01*
G54D15*
X222275Y603225D02*
X156150Y603225D01*
X156150Y628350D01*
X222275Y628350D01*
X222275Y603225D01*
G54D11*
X237171Y519168D02*
X205972Y519167D01*
X205972Y534767D01*
X237171Y534768D01*
X237171Y519168D01*
G54D11*
X165062Y544025D02*
X165062Y510025D01*
X101062Y510025D01*
X101062Y544025D01*
X165062Y544025D01*
G54D11*
X157062Y535025D02*
X109062Y535025D01*
X109062Y519025D01*
X157062Y519025D01*
X157062Y534025D01*
X157062Y535025D01*
G54D11*
X361912Y544025D02*
X361912Y510025D01*
X297912Y510025D01*
X297912Y544025D01*
X361912Y544025D01*
G54D11*
X353912Y535025D02*
X305912Y535025D01*
X305912Y519025D01*
X353912Y519025D01*
X353912Y534025D01*
X353912Y535025D01*
G54D16*
X19075Y622275D02*
X19075Y634719D01*
G54D16*
X22497Y622275D02*
X22497Y629275D01*
G54D16*
X22497Y627719D02*
X23430Y628808D01*
X25297Y629275D01*
X27164Y628808D01*
X28097Y627719D01*
X28097Y622275D01*
G54D11*
X125518Y575629D02*
X125517Y606828D01*
X141117Y606828D01*
X141118Y575629D01*
X125518Y575629D01*
G54D11*
X100118Y575629D02*
X100117Y606828D01*
X115717Y606828D01*
X115718Y575629D01*
X100118Y575629D01*
G54D11*
X236642Y575629D02*
X236642Y606828D01*
X252242Y606828D01*
X252242Y575629D01*
X236642Y575629D01*
G54D11*
X245478Y560283D02*
X276678Y560283D01*
X276678Y544683D01*
X245478Y544683D01*
X245478Y560283D01*
G54D17*
X107450Y685600D02*
X132850Y685600D01*
X132850Y641150D01*
X107450Y641150D01*
X107450Y685600D01*
G54D11*
X198542Y677229D02*
X198542Y708428D01*
X214142Y708428D01*
X214142Y677229D01*
X198542Y677229D01*
G54D15*
X199950Y594350D02*
X176950Y594350D01*
X176950Y543250D01*
X199950Y543250D01*
X199950Y594350D01*
G54D15*
X194950Y594350D02*
X181950Y594350D01*
X181950Y589350D01*
X194950Y589350D01*
X194950Y594350D01*
G54D18*
X193338Y560928D02*
X184450Y560928D01*
G54D18*
X191672Y568039D02*
X192783Y567373D01*
X193338Y566039D01*
X193338Y564706D01*
X192783Y563373D01*
X191672Y562706D01*
X186116Y562706D01*
X185005Y563373D01*
X184450Y564706D01*
X184450Y566039D01*
X185005Y567373D01*
X186116Y568039D01*
G54D18*
X187783Y569817D02*
X184450Y573150D01*
X193338Y573150D01*
G54D17*
X193700Y708000D02*
X193700Y676000D01*
G54D17*
X193700Y708000D02*
X165700Y708000D01*
G54D17*
X165700Y708000D02*
X165700Y683000D01*
X172700Y676000D01*
X193700Y676000D01*
G54D17*
X181000Y708000D02*
X181000Y678000D01*
G54D17*
X174650Y688950D02*
X184650Y688950D01*
G54D17*
X181000Y688950D02*
X185000Y692950D01*
X177000Y692950D01*
X181000Y688950D01*
G54D15*
X206375Y655500D02*
X206375Y633500D01*
X168375Y633500D01*
X168375Y655500D01*
X206375Y655500D01*
G54D14*
X168283Y663966D02*
X168283Y660077D01*
X167817Y659299D01*
X166883Y658910D01*
X165950Y658910D01*
X165017Y659299D01*
X164550Y660077D01*
X164550Y663966D01*
X165017Y664743D01*
X165950Y665132D01*
X166883Y665132D01*
X167817Y664743D01*
X168283Y663966D01*
G54D14*
X170461Y658910D02*
X170461Y658910D01*
G54D14*
X172639Y662799D02*
X174972Y665132D01*
X174972Y658910D01*
G54D14*
X179950Y662410D02*
X179950Y658910D01*
G54D14*
X179950Y659688D02*
X179483Y659066D01*
X178550Y658910D01*
X177617Y659066D01*
X177150Y659688D01*
X177150Y662410D01*
G54D14*
X183061Y658910D02*
X183061Y664743D01*
X183528Y665132D01*
X183995Y664899D01*
G54D14*
X182128Y662410D02*
X183995Y662410D01*
G54D14*
X115732Y650193D02*
X115732Y653926D01*
X116510Y653460D01*
X117676Y652526D01*
X119232Y651593D01*
X120398Y651126D01*
X121954Y651126D01*
G54D14*
X118843Y658437D02*
X118843Y657504D01*
X118454Y656571D01*
X117676Y656104D01*
X116898Y656104D01*
X116121Y656571D01*
X115732Y657504D01*
X115732Y658437D01*
X116121Y659371D01*
X116898Y659837D01*
X117676Y659837D01*
X118454Y659371D01*
X118843Y658437D01*
X119232Y659371D01*
X120010Y659837D01*
X120787Y659837D01*
X121565Y659371D01*
X121954Y658437D01*
X121954Y657504D01*
X121565Y656571D01*
X120787Y656104D01*
X120010Y656104D01*
X119232Y656571D01*
X118843Y657504D01*
G54D14*
X115732Y662015D02*
X121954Y662015D01*
X121954Y665282D01*
G54D14*
X116898Y671193D02*
X120787Y671193D01*
X121565Y670727D01*
X121954Y669793D01*
X121954Y668860D01*
X121565Y667927D01*
X120787Y667460D01*
X116898Y667460D01*
X116121Y667927D01*
X115732Y668860D01*
X115732Y669793D01*
X116121Y670727D01*
X116898Y671193D01*
G54D14*
X115732Y677104D02*
X115732Y673371D01*
X118454Y673371D01*
X118454Y673838D01*
X118065Y674771D01*
X118065Y675704D01*
X118454Y676638D01*
X119232Y677104D01*
X120787Y677104D01*
X121565Y676638D01*
X121954Y675704D01*
X121954Y674771D01*
X121565Y673838D01*
X120787Y673371D01*
G54D19*
X442822Y607994D02*
X442822Y601883D01*
X441844Y600661D01*
X439889Y600050D01*
X437933Y600050D01*
X435978Y600661D01*
X435000Y601883D01*
X435000Y607994D01*
X435978Y609217D01*
X437933Y609828D01*
X439889Y609828D01*
X441844Y609217D01*
X442822Y607994D01*
G54D19*
X452111Y605550D02*
X452111Y600050D01*
G54D19*
X452111Y601272D02*
X451133Y600294D01*
X449177Y600050D01*
X447222Y600294D01*
X446244Y601272D01*
X446244Y605550D01*
G54D19*
X457489Y609828D02*
X457489Y600661D01*
X458466Y600050D01*
X459444Y600294D01*
G54D19*
X455533Y605550D02*
X459444Y605550D01*
G54D10*
X454050Y541153D02*
X443383Y541153D01*
G54D10*
X450875Y706253D02*
X440208Y706253D01*
G54D10*
X445542Y710697D02*
X445542Y701808D01*
G54D14*
X205686Y685775D02*
X203353Y688108D01*
X209575Y688108D01*
G54D14*
X204520Y694019D02*
X208408Y694019D01*
X209186Y693553D01*
X209575Y692619D01*
X209575Y691686D01*
X209186Y690753D01*
X208408Y690286D01*
X204520Y690286D01*
X203742Y690753D01*
X203353Y691686D01*
X203353Y692619D01*
X203742Y693553D01*
X204520Y694019D01*
G54D14*
X209575Y696197D02*
X203353Y696197D01*
G54D14*
X207631Y696197D02*
X203353Y699930D01*
G54D14*
X206464Y697597D02*
X209575Y699930D01*
G54D14*
X107261Y581000D02*
X104928Y583333D01*
X111150Y583333D01*
G54D14*
X106094Y589244D02*
X109983Y589244D01*
X110761Y588778D01*
X111150Y587844D01*
X111150Y586911D01*
X110761Y585978D01*
X109983Y585511D01*
X106094Y585511D01*
X105317Y585978D01*
X104928Y586911D01*
X104928Y587844D01*
X105317Y588778D01*
X106094Y589244D01*
G54D14*
X111150Y591422D02*
X104928Y591422D01*
G54D14*
X109206Y591422D02*
X104928Y595155D01*
G54D14*
X108039Y592822D02*
X111150Y595155D01*
G54D14*
X132661Y581000D02*
X130328Y583333D01*
X136550Y583333D01*
G54D14*
X131494Y589244D02*
X135383Y589244D01*
X136161Y588778D01*
X136550Y587844D01*
X136550Y586911D01*
X136161Y585978D01*
X135383Y585511D01*
X131494Y585511D01*
X130717Y585978D01*
X130328Y586911D01*
X130328Y587844D01*
X130717Y588778D01*
X131494Y589244D01*
G54D14*
X136550Y591422D02*
X130328Y591422D01*
G54D14*
X134606Y591422D02*
X130328Y595155D01*
G54D14*
X133439Y592822D02*
X136550Y595155D01*
G54D14*
X243659Y585906D02*
X241325Y588240D01*
X247548Y588240D01*
G54D14*
X242492Y594151D02*
X246381Y594151D01*
X247159Y593684D01*
X247548Y592751D01*
X247548Y591818D01*
X247159Y590884D01*
X246381Y590418D01*
X242492Y590418D01*
X241714Y590884D01*
X241325Y591818D01*
X241325Y592751D01*
X241714Y593684D01*
X242492Y594151D01*
G54D14*
X247548Y596328D02*
X241325Y596328D01*
G54D14*
X245603Y596328D02*
X241325Y600062D01*
G54D14*
X244436Y597728D02*
X247548Y600062D01*
G54D14*
X215925Y527739D02*
X218258Y530072D01*
X218258Y523850D01*
G54D14*
X220436Y523850D02*
X220436Y530072D01*
G54D14*
X220436Y525794D02*
X224169Y530072D01*
G54D14*
X221836Y526961D02*
X224169Y523850D01*
G54D14*
X257200Y553139D02*
X259533Y555472D01*
X259533Y549250D01*
G54D14*
X261711Y549250D02*
X261711Y555472D01*
G54D14*
X261711Y551194D02*
X265444Y555472D01*
G54D14*
X263111Y552361D02*
X265444Y549250D01*
G54D14*
X361975Y650850D02*
X361975Y657072D01*
X364308Y657072D01*
X365242Y656683D01*
X365708Y655906D01*
X365708Y655128D01*
X365242Y654350D01*
X364308Y653961D01*
X365242Y653572D01*
X365708Y652794D01*
X365708Y652017D01*
X365242Y651239D01*
X364308Y650850D01*
X361975Y650850D01*
G54D14*
X361975Y653961D02*
X364308Y653961D01*
G54D14*
X365708Y623442D02*
X365242Y622664D01*
X364308Y622275D01*
X363375Y622275D01*
X362442Y622664D01*
X361975Y623442D01*
X361975Y627331D01*
X362442Y628108D01*
X363375Y628497D01*
X364308Y628497D01*
X365242Y628108D01*
X365708Y627331D01*
G54D14*
X365242Y590525D02*
X361975Y590525D01*
X361975Y596747D01*
X365242Y596747D01*
G54D14*
X361975Y593636D02*
X365242Y593636D01*
G54D14*
X339750Y682600D02*
X339750Y688822D01*
X342083Y688822D01*
X343017Y688433D01*
X343483Y687656D01*
X343483Y686878D01*
X343017Y686100D01*
X342083Y685711D01*
X343017Y685322D01*
X343483Y684544D01*
X343483Y683767D01*
X343017Y682989D01*
X342083Y682600D01*
X339750Y682600D01*
G54D14*
X339750Y685711D02*
X342083Y685711D01*
G54D14*
X345661Y682600D02*
X345661Y688822D01*
X347994Y688822D01*
X348928Y688433D01*
X349394Y687656D01*
X349394Y683767D01*
X348928Y682989D01*
X347994Y682600D01*
X345661Y682600D01*
G54D14*
X355305Y687656D02*
X354839Y688433D01*
X353905Y688822D01*
X352972Y688822D01*
X352039Y688433D01*
X351572Y687656D01*
X351572Y685711D01*
X351572Y685322D01*
X352972Y686100D01*
X353905Y686100D01*
X354839Y685711D01*
X355305Y684933D01*
X355305Y683767D01*
X354839Y682989D01*
X353905Y682600D01*
X352972Y682600D01*
X352039Y682989D01*
X351572Y683767D01*
X351572Y685711D01*
G54D14*
X357483Y688822D02*
X361216Y688822D01*
X360750Y688044D01*
X359816Y686878D01*
X358883Y685322D01*
X358416Y684156D01*
X358416Y682600D01*
G54D14*
X363394Y688822D02*
X367127Y688822D01*
X366661Y688044D01*
X365727Y686878D01*
X364794Y685322D01*
X364327Y684156D01*
X364327Y682600D01*
G54D11*
X369950Y589225D02*
X369950Y681725D01*
X334950Y681725D01*
X334950Y589225D01*
X369950Y589225D01*
G54D17*
X257200Y644500D02*
X257200Y676500D01*
G54D17*
X257200Y644500D02*
X285200Y644500D01*
G54D17*
X285200Y644500D02*
X285200Y669500D01*
X278200Y676500D01*
X257200Y676500D01*
G54D17*
X269900Y644500D02*
X269900Y674500D01*
G54D17*
X276250Y663550D02*
X266250Y663550D01*
G54D17*
X269900Y663550D02*
X265900Y659550D01*
X273900Y659550D01*
X269900Y663550D01*
G54D11*
X233467Y645478D02*
X233467Y676678D01*
X249067Y676678D01*
X249068Y645478D01*
X233467Y645478D01*
G54D14*
X240611Y657200D02*
X238278Y659533D01*
X244500Y659533D01*
G54D14*
X244500Y661711D02*
X238278Y661711D01*
G54D14*
X242556Y661711D02*
X238278Y665444D01*
G54D14*
X241389Y663111D02*
X244500Y665444D01*
G54D11*
X320856Y601450D02*
X320856Y645950D01*
X308156Y645950D01*
X308156Y601450D01*
X320856Y601450D01*
G54D12*
X320856Y633200D02*
X308156Y633200D01*
G54D13*
X310331Y619000D02*
X319220Y619000D01*
X319220Y622333D01*
X318664Y623667D01*
X317553Y624333D01*
X311998Y624333D01*
X310887Y623667D01*
X310331Y622333D01*
X310331Y619000D01*
G54D10*
X28600Y455428D02*
X17933Y455428D01*
G54D10*
X23267Y459872D02*
X23267Y450983D01*
G54D10*
X28600Y290328D02*
X17933Y290328D01*
G54D11*
X276406Y363700D02*
X276406Y331900D01*
X263706Y331900D01*
X263706Y363700D01*
X276406Y363700D01*
G54D12*
X276406Y338300D02*
X263706Y338300D01*
G54D13*
X262706Y352500D02*
X271595Y352500D01*
X271595Y349167D01*
X271040Y347833D01*
X269928Y347167D01*
X264373Y347167D01*
X263262Y347833D01*
X262706Y349167D01*
X262706Y352500D01*
G54D11*
X90325Y450669D02*
X134825Y450669D01*
X134825Y463369D01*
X90325Y463369D01*
X90325Y450669D01*
G54D12*
X122075Y450669D02*
X122075Y463369D01*
G54D13*
X107875Y461194D02*
X107875Y452305D01*
X111208Y452305D01*
X112542Y452860D01*
X113208Y453972D01*
X113208Y459527D01*
X112542Y460638D01*
X111208Y461194D01*
X107875Y461194D01*
G54D14*
X171100Y365100D02*
X171100Y371322D01*
X168300Y367433D01*
X168300Y366656D01*
X172033Y366656D01*
G54D14*
X174211Y371322D02*
X177944Y371322D01*
X177478Y370544D01*
X176544Y369378D01*
X175611Y367822D01*
X175144Y366656D01*
X175144Y365100D01*
G54D14*
X182922Y368600D02*
X182922Y365100D01*
G54D14*
X182922Y365878D02*
X182455Y365256D01*
X181522Y365100D01*
X180589Y365256D01*
X180122Y365878D01*
X180122Y368600D01*
G54D14*
X185100Y368989D02*
X187433Y371322D01*
X187433Y365100D01*
G54D14*
X193344Y370156D02*
X192878Y370933D01*
X191944Y371322D01*
X191011Y371322D01*
X190078Y370933D01*
X189611Y370156D01*
X189611Y368211D01*
X189611Y367822D01*
X191011Y368600D01*
X191944Y368600D01*
X192878Y368211D01*
X193344Y367433D01*
X193344Y366267D01*
X192878Y365489D01*
X191944Y365100D01*
X191011Y365100D01*
X190078Y365489D01*
X189611Y366267D01*
X189611Y368211D01*
G54D14*
X195522Y368600D02*
X197389Y365100D01*
X199255Y368600D01*
G54D15*
X222275Y355575D02*
X156150Y355575D01*
X156150Y380700D01*
X222275Y380700D01*
X222275Y355575D01*
G54D11*
X237171Y271518D02*
X205972Y271517D01*
X205972Y287117D01*
X237171Y287118D01*
X237171Y271518D01*
G54D11*
X165062Y296375D02*
X165062Y262375D01*
X101062Y262375D01*
X101062Y296375D01*
X165062Y296375D01*
G54D11*
X157062Y287375D02*
X109062Y287375D01*
X109062Y271375D01*
X157062Y271375D01*
X157062Y286375D01*
X157062Y287375D01*
G54D11*
X361912Y296375D02*
X361912Y262375D01*
X297912Y262375D01*
X297912Y296375D01*
X361912Y296375D01*
G54D11*
X353912Y287375D02*
X305912Y287375D01*
X305912Y271375D01*
X353912Y271375D01*
X353912Y286375D01*
X353912Y287375D01*
G54D16*
X19075Y374625D02*
X19075Y387069D01*
G54D16*
X22497Y374625D02*
X22497Y381625D01*
G54D16*
X22497Y380069D02*
X23430Y381158D01*
X25297Y381625D01*
X27164Y381158D01*
X28097Y380069D01*
X28097Y374625D01*
G54D11*
X125518Y327979D02*
X125517Y359178D01*
X141117Y359178D01*
X141118Y327979D01*
X125518Y327979D01*
G54D11*
X100118Y327979D02*
X100117Y359178D01*
X115717Y359178D01*
X115718Y327979D01*
X100118Y327979D01*
G54D11*
X236642Y327979D02*
X236642Y359178D01*
X252242Y359178D01*
X252242Y327979D01*
X236642Y327979D01*
G54D11*
X245478Y312633D02*
X276678Y312633D01*
X276678Y297033D01*
X245478Y297033D01*
X245478Y312633D01*
G54D17*
X107450Y437950D02*
X132850Y437950D01*
X132850Y393500D01*
X107450Y393500D01*
X107450Y437950D01*
G54D11*
X198542Y429579D02*
X198542Y460778D01*
X214142Y460778D01*
X214142Y429579D01*
X198542Y429579D01*
G54D15*
X199950Y346700D02*
X176950Y346700D01*
X176950Y295600D01*
X199950Y295600D01*
X199950Y346700D01*
G54D15*
X194950Y346700D02*
X181950Y346700D01*
X181950Y341700D01*
X194950Y341700D01*
X194950Y346700D01*
G54D18*
X193338Y313278D02*
X184450Y313278D01*
G54D18*
X191672Y320389D02*
X192783Y319723D01*
X193338Y318389D01*
X193338Y317056D01*
X192783Y315723D01*
X191672Y315056D01*
X186116Y315056D01*
X185005Y315723D01*
X184450Y317056D01*
X184450Y318389D01*
X185005Y319723D01*
X186116Y320389D01*
G54D18*
X187783Y322167D02*
X184450Y325500D01*
X193338Y325500D01*
G54D17*
X193700Y460350D02*
X193700Y428350D01*
G54D17*
X193700Y460350D02*
X165700Y460350D01*
G54D17*
X165700Y460350D02*
X165700Y435350D01*
X172700Y428350D01*
X193700Y428350D01*
G54D17*
X181000Y460350D02*
X181000Y430350D01*
G54D17*
X174650Y441300D02*
X184650Y441300D01*
G54D17*
X181000Y441300D02*
X185000Y445300D01*
X177000Y445300D01*
X181000Y441300D01*
G54D15*
X206375Y407850D02*
X206375Y385850D01*
X168375Y385850D01*
X168375Y407850D01*
X206375Y407850D01*
G54D14*
X168283Y416316D02*
X168283Y412427D01*
X167817Y411649D01*
X166883Y411260D01*
X165950Y411260D01*
X165017Y411649D01*
X164550Y412427D01*
X164550Y416316D01*
X165017Y417093D01*
X165950Y417482D01*
X166883Y417482D01*
X167817Y417093D01*
X168283Y416316D01*
G54D14*
X170461Y411260D02*
X170461Y411260D01*
G54D14*
X172639Y415149D02*
X174972Y417482D01*
X174972Y411260D01*
G54D14*
X179950Y414760D02*
X179950Y411260D01*
G54D14*
X179950Y412038D02*
X179483Y411416D01*
X178550Y411260D01*
X177617Y411416D01*
X177150Y412038D01*
X177150Y414760D01*
G54D14*
X183061Y411260D02*
X183061Y417093D01*
X183528Y417482D01*
X183995Y417249D01*
G54D14*
X182128Y414760D02*
X183995Y414760D01*
G54D14*
X115732Y402543D02*
X115732Y406276D01*
X116510Y405810D01*
X117676Y404876D01*
X119232Y403943D01*
X120398Y403476D01*
X121954Y403476D01*
G54D14*
X118843Y410787D02*
X118843Y409854D01*
X118454Y408921D01*
X117676Y408454D01*
X116898Y408454D01*
X116121Y408921D01*
X115732Y409854D01*
X115732Y410787D01*
X116121Y411721D01*
X116898Y412187D01*
X117676Y412187D01*
X118454Y411721D01*
X118843Y410787D01*
X119232Y411721D01*
X120010Y412187D01*
X120787Y412187D01*
X121565Y411721D01*
X121954Y410787D01*
X121954Y409854D01*
X121565Y408921D01*
X120787Y408454D01*
X120010Y408454D01*
X119232Y408921D01*
X118843Y409854D01*
G54D14*
X115732Y414365D02*
X121954Y414365D01*
X121954Y417632D01*
G54D14*
X116898Y423543D02*
X120787Y423543D01*
X121565Y423077D01*
X121954Y422143D01*
X121954Y421210D01*
X121565Y420277D01*
X120787Y419810D01*
X116898Y419810D01*
X116121Y420277D01*
X115732Y421210D01*
X115732Y422143D01*
X116121Y423077D01*
X116898Y423543D01*
G54D14*
X115732Y429454D02*
X115732Y425721D01*
X118454Y425721D01*
X118454Y426188D01*
X118065Y427121D01*
X118065Y428054D01*
X118454Y428988D01*
X119232Y429454D01*
X120787Y429454D01*
X121565Y428988D01*
X121954Y428054D01*
X121954Y427121D01*
X121565Y426188D01*
X120787Y425721D01*
G54D19*
X442822Y360344D02*
X442822Y354233D01*
X441844Y353011D01*
X439889Y352400D01*
X437933Y352400D01*
X435978Y353011D01*
X435000Y354233D01*
X435000Y360344D01*
X435978Y361567D01*
X437933Y362178D01*
X439889Y362178D01*
X441844Y361567D01*
X442822Y360344D01*
G54D19*
X452111Y357900D02*
X452111Y352400D01*
G54D19*
X452111Y353622D02*
X451133Y352644D01*
X449177Y352400D01*
X447222Y352644D01*
X446244Y353622D01*
X446244Y357900D01*
G54D19*
X457489Y362178D02*
X457489Y353011D01*
X458466Y352400D01*
X459444Y352644D01*
G54D19*
X455533Y357900D02*
X459444Y357900D01*
G54D10*
X454050Y293503D02*
X443383Y293503D01*
G54D10*
X450875Y458603D02*
X440208Y458603D01*
G54D10*
X445542Y463047D02*
X445542Y454158D01*
G54D14*
X205686Y438125D02*
X203353Y440458D01*
X209575Y440458D01*
G54D14*
X204520Y446369D02*
X208408Y446369D01*
X209186Y445903D01*
X209575Y444969D01*
X209575Y444036D01*
X209186Y443103D01*
X208408Y442636D01*
X204520Y442636D01*
X203742Y443103D01*
X203353Y444036D01*
X203353Y444969D01*
X203742Y445903D01*
X204520Y446369D01*
G54D14*
X209575Y448547D02*
X203353Y448547D01*
G54D14*
X207631Y448547D02*
X203353Y452280D01*
G54D14*
X206464Y449947D02*
X209575Y452280D01*
G54D14*
X107261Y333350D02*
X104928Y335683D01*
X111150Y335683D01*
G54D14*
X106094Y341594D02*
X109983Y341594D01*
X110761Y341128D01*
X111150Y340194D01*
X111150Y339261D01*
X110761Y338328D01*
X109983Y337861D01*
X106094Y337861D01*
X105317Y338328D01*
X104928Y339261D01*
X104928Y340194D01*
X105317Y341128D01*
X106094Y341594D01*
G54D14*
X111150Y343772D02*
X104928Y343772D01*
G54D14*
X109206Y343772D02*
X104928Y347505D01*
G54D14*
X108039Y345172D02*
X111150Y347505D01*
G54D14*
X132661Y333350D02*
X130328Y335683D01*
X136550Y335683D01*
G54D14*
X131494Y341594D02*
X135383Y341594D01*
X136161Y341128D01*
X136550Y340194D01*
X136550Y339261D01*
X136161Y338328D01*
X135383Y337861D01*
X131494Y337861D01*
X130717Y338328D01*
X130328Y339261D01*
X130328Y340194D01*
X130717Y341128D01*
X131494Y341594D01*
G54D14*
X136550Y343772D02*
X130328Y343772D01*
G54D14*
X134606Y343772D02*
X130328Y347505D01*
G54D14*
X133439Y345172D02*
X136550Y347505D01*
G54D14*
X243659Y338256D02*
X241325Y340590D01*
X247548Y340590D01*
G54D14*
X242492Y346501D02*
X246381Y346501D01*
X247159Y346034D01*
X247548Y345101D01*
X247548Y344168D01*
X247159Y343234D01*
X246381Y342768D01*
X242492Y342768D01*
X241714Y343234D01*
X241325Y344168D01*
X241325Y345101D01*
X241714Y346034D01*
X242492Y346501D01*
G54D14*
X247548Y348678D02*
X241325Y348678D01*
G54D14*
X245603Y348678D02*
X241325Y352412D01*
G54D14*
X244436Y350078D02*
X247548Y352412D01*
G54D14*
X215925Y280089D02*
X218258Y282422D01*
X218258Y276200D01*
G54D14*
X220436Y276200D02*
X220436Y282422D01*
G54D14*
X220436Y278144D02*
X224169Y282422D01*
G54D14*
X221836Y279311D02*
X224169Y276200D01*
G54D14*
X257200Y305489D02*
X259533Y307822D01*
X259533Y301600D01*
G54D14*
X261711Y301600D02*
X261711Y307822D01*
G54D14*
X261711Y303544D02*
X265444Y307822D01*
G54D14*
X263111Y304711D02*
X265444Y301600D01*
G54D14*
X361975Y403200D02*
X361975Y409422D01*
X364308Y409422D01*
X365242Y409033D01*
X365708Y408256D01*
X365708Y407478D01*
X365242Y406700D01*
X364308Y406311D01*
X365242Y405922D01*
X365708Y405144D01*
X365708Y404367D01*
X365242Y403589D01*
X364308Y403200D01*
X361975Y403200D01*
G54D14*
X361975Y406311D02*
X364308Y406311D01*
G54D14*
X365708Y375792D02*
X365242Y375014D01*
X364308Y374625D01*
X363375Y374625D01*
X362442Y375014D01*
X361975Y375792D01*
X361975Y379681D01*
X362442Y380458D01*
X363375Y380847D01*
X364308Y380847D01*
X365242Y380458D01*
X365708Y379681D01*
G54D14*
X365242Y342875D02*
X361975Y342875D01*
X361975Y349097D01*
X365242Y349097D01*
G54D14*
X361975Y345986D02*
X365242Y345986D01*
G54D14*
X339750Y434950D02*
X339750Y441172D01*
X342083Y441172D01*
X343017Y440783D01*
X343483Y440006D01*
X343483Y439228D01*
X343017Y438450D01*
X342083Y438061D01*
X343017Y437672D01*
X343483Y436894D01*
X343483Y436117D01*
X343017Y435339D01*
X342083Y434950D01*
X339750Y434950D01*
G54D14*
X339750Y438061D02*
X342083Y438061D01*
G54D14*
X345661Y434950D02*
X345661Y441172D01*
X347994Y441172D01*
X348928Y440783D01*
X349394Y440006D01*
X349394Y436117D01*
X348928Y435339D01*
X347994Y434950D01*
X345661Y434950D01*
G54D14*
X355305Y440006D02*
X354839Y440783D01*
X353905Y441172D01*
X352972Y441172D01*
X352039Y440783D01*
X351572Y440006D01*
X351572Y438061D01*
X351572Y437672D01*
X352972Y438450D01*
X353905Y438450D01*
X354839Y438061D01*
X355305Y437283D01*
X355305Y436117D01*
X354839Y435339D01*
X353905Y434950D01*
X352972Y434950D01*
X352039Y435339D01*
X351572Y436117D01*
X351572Y438061D01*
G54D14*
X357483Y441172D02*
X361216Y441172D01*
X360750Y440394D01*
X359816Y439228D01*
X358883Y437672D01*
X358416Y436506D01*
X358416Y434950D01*
G54D14*
X363394Y441172D02*
X367127Y441172D01*
X366661Y440394D01*
X365727Y439228D01*
X364794Y437672D01*
X364327Y436506D01*
X364327Y434950D01*
G54D11*
X369950Y341575D02*
X369950Y434075D01*
X334950Y434075D01*
X334950Y341575D01*
X369950Y341575D01*
G54D17*
X257200Y396850D02*
X257200Y428850D01*
G54D17*
X257200Y396850D02*
X285200Y396850D01*
G54D17*
X285200Y396850D02*
X285200Y421850D01*
X278200Y428850D01*
X257200Y428850D01*
G54D17*
X269900Y396850D02*
X269900Y426850D01*
G54D17*
X276250Y415900D02*
X266250Y415900D01*
G54D17*
X269900Y415900D02*
X265900Y411900D01*
X273900Y411900D01*
X269900Y415900D01*
G54D11*
X233467Y397828D02*
X233467Y429028D01*
X249067Y429028D01*
X249068Y397828D01*
X233467Y397828D01*
G54D14*
X240611Y409550D02*
X238278Y411883D01*
X244500Y411883D01*
G54D14*
X244500Y414061D02*
X238278Y414061D01*
G54D14*
X242556Y414061D02*
X238278Y417794D01*
G54D14*
X241389Y415461D02*
X244500Y417794D01*
G54D11*
X320856Y353800D02*
X320856Y398300D01*
X308156Y398300D01*
X308156Y353800D01*
X320856Y353800D01*
G54D12*
X320856Y385550D02*
X308156Y385550D01*
G54D13*
X310331Y371350D02*
X319220Y371350D01*
X319220Y374683D01*
X318664Y376017D01*
X317553Y376683D01*
X311998Y376683D01*
X310887Y376017D01*
X310331Y374683D01*
X310331Y371350D01*
G54D10*
X28600Y207778D02*
X17933Y207778D01*
G54D10*
X23267Y212222D02*
X23267Y203333D01*
G54D10*
X28600Y42678D02*
X17933Y42678D01*
G54D11*
X276406Y116050D02*
X276406Y84250D01*
X263706Y84250D01*
X263706Y116050D01*
X276406Y116050D01*
G54D12*
X276406Y90650D02*
X263706Y90650D01*
G54D13*
X262706Y104850D02*
X271595Y104850D01*
X271595Y101517D01*
X271040Y100183D01*
X269928Y99517D01*
X264373Y99517D01*
X263262Y100183D01*
X262706Y101517D01*
X262706Y104850D01*
G54D11*
X90325Y203019D02*
X134825Y203019D01*
X134825Y215719D01*
X90325Y215719D01*
X90325Y203019D01*
G54D12*
X122075Y203019D02*
X122075Y215719D01*
G54D13*
X107875Y213544D02*
X107875Y204655D01*
X111208Y204655D01*
X112542Y205210D01*
X113208Y206322D01*
X113208Y211877D01*
X112542Y212988D01*
X111208Y213544D01*
X107875Y213544D01*
G54D14*
X171100Y117450D02*
X171100Y123672D01*
X168300Y119783D01*
X168300Y119006D01*
X172033Y119006D01*
G54D14*
X174211Y123672D02*
X177944Y123672D01*
X177478Y122894D01*
X176544Y121728D01*
X175611Y120172D01*
X175144Y119006D01*
X175144Y117450D01*
G54D14*
X182922Y120950D02*
X182922Y117450D01*
G54D14*
X182922Y118228D02*
X182455Y117606D01*
X181522Y117450D01*
X180589Y117606D01*
X180122Y118228D01*
X180122Y120950D01*
G54D14*
X185100Y121339D02*
X187433Y123672D01*
X187433Y117450D01*
G54D14*
X193344Y122506D02*
X192878Y123283D01*
X191944Y123672D01*
X191011Y123672D01*
X190078Y123283D01*
X189611Y122506D01*
X189611Y120561D01*
X189611Y120172D01*
X191011Y120950D01*
X191944Y120950D01*
X192878Y120561D01*
X193344Y119783D01*
X193344Y118617D01*
X192878Y117839D01*
X191944Y117450D01*
X191011Y117450D01*
X190078Y117839D01*
X189611Y118617D01*
X189611Y120561D01*
G54D14*
X195522Y120950D02*
X197389Y117450D01*
X199255Y120950D01*
G54D15*
X222275Y107925D02*
X156150Y107925D01*
X156150Y133050D01*
X222275Y133050D01*
X222275Y107925D01*
G54D11*
X237171Y23868D02*
X205972Y23867D01*
X205972Y39467D01*
X237171Y39468D01*
X237171Y23868D01*
G54D11*
X165062Y48725D02*
X165062Y14725D01*
X101062Y14725D01*
X101062Y48725D01*
X165062Y48725D01*
G54D11*
X157062Y39725D02*
X109062Y39725D01*
X109062Y23725D01*
X157062Y23725D01*
X157062Y38725D01*
X157062Y39725D01*
G54D11*
X361912Y48725D02*
X361912Y14725D01*
X297912Y14725D01*
X297912Y48725D01*
X361912Y48725D01*
G54D11*
X353912Y39725D02*
X305912Y39725D01*
X305912Y23725D01*
X353912Y23725D01*
X353912Y38725D01*
X353912Y39725D01*
G54D16*
X19075Y126975D02*
X19075Y139419D01*
G54D16*
X22497Y126975D02*
X22497Y133975D01*
G54D16*
X22497Y132419D02*
X23430Y133508D01*
X25297Y133975D01*
X27164Y133508D01*
X28097Y132419D01*
X28097Y126975D01*
G54D11*
X125518Y80329D02*
X125517Y111528D01*
X141117Y111528D01*
X141118Y80329D01*
X125518Y80329D01*
G54D11*
X100118Y80329D02*
X100117Y111528D01*
X115717Y111528D01*
X115718Y80329D01*
X100118Y80329D01*
G54D11*
X236642Y80329D02*
X236642Y111528D01*
X252242Y111528D01*
X252242Y80329D01*
X236642Y80329D01*
G54D11*
X245478Y64983D02*
X276678Y64983D01*
X276678Y49383D01*
X245478Y49383D01*
X245478Y64983D01*
G54D17*
X107450Y190300D02*
X132850Y190300D01*
X132850Y145850D01*
X107450Y145850D01*
X107450Y190300D01*
G54D11*
X198542Y181929D02*
X198542Y213128D01*
X214142Y213128D01*
X214142Y181929D01*
X198542Y181929D01*
G54D15*
X199950Y99050D02*
X176950Y99050D01*
X176950Y47950D01*
X199950Y47950D01*
X199950Y99050D01*
G54D15*
X194950Y99050D02*
X181950Y99050D01*
X181950Y94050D01*
X194950Y94050D01*
X194950Y99050D01*
G54D18*
X193338Y65628D02*
X184450Y65628D01*
G54D18*
X191672Y72739D02*
X192783Y72073D01*
X193338Y70739D01*
X193338Y69406D01*
X192783Y68073D01*
X191672Y67406D01*
X186116Y67406D01*
X185005Y68073D01*
X184450Y69406D01*
X184450Y70739D01*
X185005Y72073D01*
X186116Y72739D01*
G54D18*
X187783Y74517D02*
X184450Y77850D01*
X193338Y77850D01*
G54D17*
X193700Y212700D02*
X193700Y180700D01*
G54D17*
X193700Y212700D02*
X165700Y212700D01*
G54D17*
X165700Y212700D02*
X165700Y187700D01*
X172700Y180700D01*
X193700Y180700D01*
G54D17*
X181000Y212700D02*
X181000Y182700D01*
G54D17*
X174650Y193650D02*
X184650Y193650D01*
G54D17*
X181000Y193650D02*
X185000Y197650D01*
X177000Y197650D01*
X181000Y193650D01*
G54D15*
X206375Y160200D02*
X206375Y138200D01*
X168375Y138200D01*
X168375Y160200D01*
X206375Y160200D01*
G54D14*
X168283Y168666D02*
X168283Y164777D01*
X167817Y163999D01*
X166883Y163610D01*
X165950Y163610D01*
X165017Y163999D01*
X164550Y164777D01*
X164550Y168666D01*
X165017Y169443D01*
X165950Y169832D01*
X166883Y169832D01*
X167817Y169443D01*
X168283Y168666D01*
G54D14*
X170461Y163610D02*
X170461Y163610D01*
G54D14*
X172639Y167499D02*
X174972Y169832D01*
X174972Y163610D01*
G54D14*
X179950Y167110D02*
X179950Y163610D01*
G54D14*
X179950Y164388D02*
X179483Y163766D01*
X178550Y163610D01*
X177617Y163766D01*
X177150Y164388D01*
X177150Y167110D01*
G54D14*
X183061Y163610D02*
X183061Y169443D01*
X183528Y169832D01*
X183995Y169599D01*
G54D14*
X182128Y167110D02*
X183995Y167110D01*
G54D14*
X115732Y154893D02*
X115732Y158626D01*
X116510Y158160D01*
X117676Y157226D01*
X119232Y156293D01*
X120398Y155826D01*
X121954Y155826D01*
G54D14*
X118843Y163137D02*
X118843Y162204D01*
X118454Y161271D01*
X117676Y160804D01*
X116898Y160804D01*
X116121Y161271D01*
X115732Y162204D01*
X115732Y163137D01*
X116121Y164071D01*
X116898Y164537D01*
X117676Y164537D01*
X118454Y164071D01*
X118843Y163137D01*
X119232Y164071D01*
X120010Y164537D01*
X120787Y164537D01*
X121565Y164071D01*
X121954Y163137D01*
X121954Y162204D01*
X121565Y161271D01*
X120787Y160804D01*
X120010Y160804D01*
X119232Y161271D01*
X118843Y162204D01*
G54D14*
X115732Y166715D02*
X121954Y166715D01*
X121954Y169982D01*
G54D14*
X116898Y175893D02*
X120787Y175893D01*
X121565Y175427D01*
X121954Y174493D01*
X121954Y173560D01*
X121565Y172627D01*
X120787Y172160D01*
X116898Y172160D01*
X116121Y172627D01*
X115732Y173560D01*
X115732Y174493D01*
X116121Y175427D01*
X116898Y175893D01*
G54D14*
X115732Y181804D02*
X115732Y178071D01*
X118454Y178071D01*
X118454Y178538D01*
X118065Y179471D01*
X118065Y180404D01*
X118454Y181338D01*
X119232Y181804D01*
X120787Y181804D01*
X121565Y181338D01*
X121954Y180404D01*
X121954Y179471D01*
X121565Y178538D01*
X120787Y178071D01*
G54D19*
X442822Y112694D02*
X442822Y106583D01*
X441844Y105361D01*
X439889Y104750D01*
X437933Y104750D01*
X435978Y105361D01*
X435000Y106583D01*
X435000Y112694D01*
X435978Y113917D01*
X437933Y114528D01*
X439889Y114528D01*
X441844Y113917D01*
X442822Y112694D01*
G54D19*
X452111Y110250D02*
X452111Y104750D01*
G54D19*
X452111Y105972D02*
X451133Y104994D01*
X449177Y104750D01*
X447222Y104994D01*
X446244Y105972D01*
X446244Y110250D01*
G54D19*
X457489Y114528D02*
X457489Y105361D01*
X458466Y104750D01*
X459444Y104994D01*
G54D19*
X455533Y110250D02*
X459444Y110250D01*
G54D10*
X454050Y45853D02*
X443383Y45853D01*
G54D10*
X450875Y210953D02*
X440208Y210953D01*
G54D10*
X445542Y215397D02*
X445542Y206508D01*
G54D14*
X205686Y190475D02*
X203353Y192808D01*
X209575Y192808D01*
G54D14*
X204520Y198719D02*
X208408Y198719D01*
X209186Y198253D01*
X209575Y197319D01*
X209575Y196386D01*
X209186Y195453D01*
X208408Y194986D01*
X204520Y194986D01*
X203742Y195453D01*
X203353Y196386D01*
X203353Y197319D01*
X203742Y198253D01*
X204520Y198719D01*
G54D14*
X209575Y200897D02*
X203353Y200897D01*
G54D14*
X207631Y200897D02*
X203353Y204630D01*
G54D14*
X206464Y202297D02*
X209575Y204630D01*
G54D14*
X107261Y85700D02*
X104928Y88033D01*
X111150Y88033D01*
G54D14*
X106094Y93944D02*
X109983Y93944D01*
X110761Y93478D01*
X111150Y92544D01*
X111150Y91611D01*
X110761Y90678D01*
X109983Y90211D01*
X106094Y90211D01*
X105317Y90678D01*
X104928Y91611D01*
X104928Y92544D01*
X105317Y93478D01*
X106094Y93944D01*
G54D14*
X111150Y96122D02*
X104928Y96122D01*
G54D14*
X109206Y96122D02*
X104928Y99855D01*
G54D14*
X108039Y97522D02*
X111150Y99855D01*
G54D14*
X132661Y85700D02*
X130328Y88033D01*
X136550Y88033D01*
G54D14*
X131494Y93944D02*
X135383Y93944D01*
X136161Y93478D01*
X136550Y92544D01*
X136550Y91611D01*
X136161Y90678D01*
X135383Y90211D01*
X131494Y90211D01*
X130717Y90678D01*
X130328Y91611D01*
X130328Y92544D01*
X130717Y93478D01*
X131494Y93944D01*
G54D14*
X136550Y96122D02*
X130328Y96122D01*
G54D14*
X134606Y96122D02*
X130328Y99855D01*
G54D14*
X133439Y97522D02*
X136550Y99855D01*
G54D14*
X243659Y90606D02*
X241325Y92940D01*
X247548Y92940D01*
G54D14*
X242492Y98851D02*
X246381Y98851D01*
X247159Y98384D01*
X247548Y97451D01*
X247548Y96518D01*
X247159Y95584D01*
X246381Y95118D01*
X242492Y95118D01*
X241714Y95584D01*
X241325Y96518D01*
X241325Y97451D01*
X241714Y98384D01*
X242492Y98851D01*
G54D14*
X247548Y101028D02*
X241325Y101028D01*
G54D14*
X245603Y101028D02*
X241325Y104762D01*
G54D14*
X244436Y102428D02*
X247548Y104762D01*
G54D14*
X215925Y32439D02*
X218258Y34772D01*
X218258Y28550D01*
G54D14*
X220436Y28550D02*
X220436Y34772D01*
G54D14*
X220436Y30494D02*
X224169Y34772D01*
G54D14*
X221836Y31661D02*
X224169Y28550D01*
G54D14*
X257200Y57839D02*
X259533Y60172D01*
X259533Y53950D01*
G54D14*
X261711Y53950D02*
X261711Y60172D01*
G54D14*
X261711Y55894D02*
X265444Y60172D01*
G54D14*
X263111Y57061D02*
X265444Y53950D01*
G54D14*
X361975Y155550D02*
X361975Y161772D01*
X364308Y161772D01*
X365242Y161383D01*
X365708Y160606D01*
X365708Y159828D01*
X365242Y159050D01*
X364308Y158661D01*
X365242Y158272D01*
X365708Y157494D01*
X365708Y156717D01*
X365242Y155939D01*
X364308Y155550D01*
X361975Y155550D01*
G54D14*
X361975Y158661D02*
X364308Y158661D01*
G54D14*
X365708Y128142D02*
X365242Y127364D01*
X364308Y126975D01*
X363375Y126975D01*
X362442Y127364D01*
X361975Y128142D01*
X361975Y132031D01*
X362442Y132808D01*
X363375Y133197D01*
X364308Y133197D01*
X365242Y132808D01*
X365708Y132031D01*
G54D14*
X365242Y95225D02*
X361975Y95225D01*
X361975Y101447D01*
X365242Y101447D01*
G54D14*
X361975Y98336D02*
X365242Y98336D01*
G54D14*
X339750Y187300D02*
X339750Y193522D01*
X342083Y193522D01*
X343017Y193133D01*
X343483Y192356D01*
X343483Y191578D01*
X343017Y190800D01*
X342083Y190411D01*
X343017Y190022D01*
X343483Y189244D01*
X343483Y188467D01*
X343017Y187689D01*
X342083Y187300D01*
X339750Y187300D01*
G54D14*
X339750Y190411D02*
X342083Y190411D01*
G54D14*
X345661Y187300D02*
X345661Y193522D01*
X347994Y193522D01*
X348928Y193133D01*
X349394Y192356D01*
X349394Y188467D01*
X348928Y187689D01*
X347994Y187300D01*
X345661Y187300D01*
G54D14*
X355305Y192356D02*
X354839Y193133D01*
X353905Y193522D01*
X352972Y193522D01*
X352039Y193133D01*
X351572Y192356D01*
X351572Y190411D01*
X351572Y190022D01*
X352972Y190800D01*
X353905Y190800D01*
X354839Y190411D01*
X355305Y189633D01*
X355305Y188467D01*
X354839Y187689D01*
X353905Y187300D01*
X352972Y187300D01*
X352039Y187689D01*
X351572Y188467D01*
X351572Y190411D01*
G54D14*
X357483Y193522D02*
X361216Y193522D01*
X360750Y192744D01*
X359816Y191578D01*
X358883Y190022D01*
X358416Y188856D01*
X358416Y187300D01*
G54D14*
X363394Y193522D02*
X367127Y193522D01*
X366661Y192744D01*
X365727Y191578D01*
X364794Y190022D01*
X364327Y188856D01*
X364327Y187300D01*
G54D11*
X369950Y93925D02*
X369950Y186425D01*
X334950Y186425D01*
X334950Y93925D01*
X369950Y93925D01*
G54D17*
X257200Y149200D02*
X257200Y181200D01*
G54D17*
X257200Y149200D02*
X285200Y149200D01*
G54D17*
X285200Y149200D02*
X285200Y174200D01*
X278200Y181200D01*
X257200Y181200D01*
G54D17*
X269900Y149200D02*
X269900Y179200D01*
G54D17*
X276250Y168250D02*
X266250Y168250D01*
G54D17*
X269900Y168250D02*
X265900Y164250D01*
X273900Y164250D01*
X269900Y168250D01*
G54D11*
X233467Y150178D02*
X233467Y181378D01*
X249067Y181378D01*
X249068Y150178D01*
X233467Y150178D01*
G54D14*
X240611Y161900D02*
X238278Y164233D01*
X244500Y164233D01*
G54D14*
X244500Y166411D02*
X238278Y166411D01*
G54D14*
X242556Y166411D02*
X238278Y170144D01*
G54D14*
X241389Y167811D02*
X244500Y170144D01*
G54D11*
X320856Y106150D02*
X320856Y150650D01*
X308156Y150650D01*
X308156Y106150D01*
X320856Y106150D01*
G54D12*
X320856Y137900D02*
X308156Y137900D01*
G54D13*
X310331Y123700D02*
X319220Y123700D01*
X319220Y127033D01*
X318664Y128367D01*
X317553Y129033D01*
X311998Y129033D01*
X310887Y128367D01*
X310331Y127033D01*
X310331Y123700D01*
G54D10*
X498500Y950728D02*
X487833Y950728D01*
G54D10*
X493167Y955172D02*
X493167Y946283D01*
G54D10*
X498500Y785628D02*
X487833Y785628D01*
G54D11*
X746306Y859000D02*
X746306Y827200D01*
X733606Y827200D01*
X733606Y859000D01*
X746306Y859000D01*
G54D12*
X746306Y833600D02*
X733606Y833600D01*
G54D13*
X732606Y847800D02*
X741495Y847800D01*
X741495Y844467D01*
X740940Y843133D01*
X739828Y842467D01*
X734273Y842467D01*
X733162Y843133D01*
X732606Y844467D01*
X732606Y847800D01*
G54D11*
X560225Y945969D02*
X604725Y945969D01*
X604725Y958669D01*
X560225Y958669D01*
X560225Y945969D01*
G54D12*
X591975Y945969D02*
X591975Y958669D01*
G54D13*
X577775Y956494D02*
X577775Y947605D01*
X581108Y947605D01*
X582442Y948160D01*
X583108Y949272D01*
X583108Y954827D01*
X582442Y955938D01*
X581108Y956494D01*
X577775Y956494D01*
G54D14*
X641000Y860400D02*
X641000Y866622D01*
X638200Y862733D01*
X638200Y861956D01*
X641933Y861956D01*
G54D14*
X644111Y866622D02*
X647844Y866622D01*
X647378Y865844D01*
X646444Y864678D01*
X645511Y863122D01*
X645044Y861956D01*
X645044Y860400D01*
G54D14*
X652822Y863900D02*
X652822Y860400D01*
G54D14*
X652822Y861178D02*
X652355Y860556D01*
X651422Y860400D01*
X650489Y860556D01*
X650022Y861178D01*
X650022Y863900D01*
G54D14*
X655000Y864289D02*
X657333Y866622D01*
X657333Y860400D01*
G54D14*
X663244Y865456D02*
X662778Y866233D01*
X661844Y866622D01*
X660911Y866622D01*
X659978Y866233D01*
X659511Y865456D01*
X659511Y863511D01*
X659511Y863122D01*
X660911Y863900D01*
X661844Y863900D01*
X662778Y863511D01*
X663244Y862733D01*
X663244Y861567D01*
X662778Y860789D01*
X661844Y860400D01*
X660911Y860400D01*
X659978Y860789D01*
X659511Y861567D01*
X659511Y863511D01*
G54D14*
X665422Y863900D02*
X667289Y860400D01*
X669155Y863900D01*
G54D15*
X692175Y850875D02*
X626050Y850875D01*
X626050Y876000D01*
X692175Y876000D01*
X692175Y850875D01*
G54D11*
X707071Y766818D02*
X675872Y766817D01*
X675872Y782417D01*
X707071Y782418D01*
X707071Y766818D01*
G54D11*
X634962Y791675D02*
X634962Y757675D01*
X570962Y757675D01*
X570962Y791675D01*
X634962Y791675D01*
G54D11*
X626962Y782675D02*
X578962Y782675D01*
X578962Y766675D01*
X626962Y766675D01*
X626962Y781675D01*
X626962Y782675D01*
G54D11*
X831812Y791675D02*
X831812Y757675D01*
X767812Y757675D01*
X767812Y791675D01*
X831812Y791675D01*
G54D11*
X823812Y782675D02*
X775812Y782675D01*
X775812Y766675D01*
X823812Y766675D01*
X823812Y781675D01*
X823812Y782675D01*
G54D16*
X488975Y869925D02*
X488975Y882369D01*
G54D16*
X492397Y869925D02*
X492397Y876925D01*
G54D16*
X492397Y875369D02*
X493330Y876458D01*
X495197Y876925D01*
X497064Y876458D01*
X497997Y875369D01*
X497997Y869925D01*
G54D11*
X595418Y823279D02*
X595417Y854478D01*
X611017Y854478D01*
X611018Y823279D01*
X595418Y823279D01*
G54D11*
X570018Y823279D02*
X570017Y854478D01*
X585617Y854478D01*
X585618Y823279D01*
X570018Y823279D01*
G54D11*
X706542Y823279D02*
X706542Y854478D01*
X722142Y854478D01*
X722142Y823279D01*
X706542Y823279D01*
G54D11*
X715378Y807933D02*
X746578Y807933D01*
X746578Y792333D01*
X715378Y792333D01*
X715378Y807933D01*
G54D17*
X577350Y933250D02*
X602750Y933250D01*
X602750Y888800D01*
X577350Y888800D01*
X577350Y933250D01*
G54D11*
X668442Y924879D02*
X668442Y956078D01*
X684042Y956078D01*
X684042Y924879D01*
X668442Y924879D01*
G54D15*
X669850Y842000D02*
X646850Y842000D01*
X646850Y790900D01*
X669850Y790900D01*
X669850Y842000D01*
G54D15*
X664850Y842000D02*
X651850Y842000D01*
X651850Y837000D01*
X664850Y837000D01*
X664850Y842000D01*
G54D18*
X663238Y808578D02*
X654350Y808578D01*
G54D18*
X661572Y815689D02*
X662683Y815023D01*
X663238Y813689D01*
X663238Y812356D01*
X662683Y811023D01*
X661572Y810356D01*
X656016Y810356D01*
X654905Y811023D01*
X654350Y812356D01*
X654350Y813689D01*
X654905Y815023D01*
X656016Y815689D01*
G54D18*
X657683Y817467D02*
X654350Y820800D01*
X663238Y820800D01*
G54D17*
X663600Y955650D02*
X663600Y923650D01*
G54D17*
X663600Y955650D02*
X635600Y955650D01*
G54D17*
X635600Y955650D02*
X635600Y930650D01*
X642600Y923650D01*
X663600Y923650D01*
G54D17*
X650900Y955650D02*
X650900Y925650D01*
G54D17*
X644550Y936600D02*
X654550Y936600D01*
G54D17*
X650900Y936600D02*
X654900Y940600D01*
X646900Y940600D01*
X650900Y936600D01*
G54D15*
X676275Y903150D02*
X676275Y881150D01*
X638275Y881150D01*
X638275Y903150D01*
X676275Y903150D01*
G54D14*
X638183Y911616D02*
X638183Y907727D01*
X637717Y906949D01*
X636783Y906560D01*
X635850Y906560D01*
X634917Y906949D01*
X634450Y907727D01*
X634450Y911616D01*
X634917Y912393D01*
X635850Y912782D01*
X636783Y912782D01*
X637717Y912393D01*
X638183Y911616D01*
G54D14*
X640361Y906560D02*
X640361Y906560D01*
G54D14*
X642539Y910449D02*
X644872Y912782D01*
X644872Y906560D01*
G54D14*
X649850Y910060D02*
X649850Y906560D01*
G54D14*
X649850Y907338D02*
X649383Y906716D01*
X648450Y906560D01*
X647517Y906716D01*
X647050Y907338D01*
X647050Y910060D01*
G54D14*
X652961Y906560D02*
X652961Y912393D01*
X653428Y912782D01*
X653895Y912549D01*
G54D14*
X652028Y910060D02*
X653895Y910060D01*
G54D14*
X585632Y897843D02*
X585632Y901576D01*
X586410Y901110D01*
X587576Y900176D01*
X589132Y899243D01*
X590298Y898776D01*
X591854Y898776D01*
G54D14*
X588743Y906087D02*
X588743Y905154D01*
X588354Y904221D01*
X587576Y903754D01*
X586798Y903754D01*
X586021Y904221D01*
X585632Y905154D01*
X585632Y906087D01*
X586021Y907021D01*
X586798Y907487D01*
X587576Y907487D01*
X588354Y907021D01*
X588743Y906087D01*
X589132Y907021D01*
X589910Y907487D01*
X590687Y907487D01*
X591465Y907021D01*
X591854Y906087D01*
X591854Y905154D01*
X591465Y904221D01*
X590687Y903754D01*
X589910Y903754D01*
X589132Y904221D01*
X588743Y905154D01*
G54D14*
X585632Y909665D02*
X591854Y909665D01*
X591854Y912932D01*
G54D14*
X586798Y918843D02*
X590687Y918843D01*
X591465Y918377D01*
X591854Y917443D01*
X591854Y916510D01*
X591465Y915577D01*
X590687Y915110D01*
X586798Y915110D01*
X586021Y915577D01*
X585632Y916510D01*
X585632Y917443D01*
X586021Y918377D01*
X586798Y918843D01*
G54D14*
X585632Y924754D02*
X585632Y921021D01*
X588354Y921021D01*
X588354Y921488D01*
X587965Y922421D01*
X587965Y923354D01*
X588354Y924288D01*
X589132Y924754D01*
X590687Y924754D01*
X591465Y924288D01*
X591854Y923354D01*
X591854Y922421D01*
X591465Y921488D01*
X590687Y921021D01*
G54D19*
X912722Y855644D02*
X912722Y849533D01*
X911744Y848311D01*
X909789Y847700D01*
X907833Y847700D01*
X905878Y848311D01*
X904900Y849533D01*
X904900Y855644D01*
X905878Y856867D01*
X907833Y857478D01*
X909789Y857478D01*
X911744Y856867D01*
X912722Y855644D01*
G54D19*
X922011Y853200D02*
X922011Y847700D01*
G54D19*
X922011Y848922D02*
X921033Y847944D01*
X919077Y847700D01*
X917122Y847944D01*
X916144Y848922D01*
X916144Y853200D01*
G54D19*
X927389Y857478D02*
X927389Y848311D01*
X928366Y847700D01*
X929344Y847944D01*
G54D19*
X925433Y853200D02*
X929344Y853200D01*
G54D10*
X923950Y788803D02*
X913283Y788803D01*
G54D10*
X920775Y953903D02*
X910108Y953903D01*
G54D10*
X915442Y958347D02*
X915442Y949458D01*
G54D14*
X675586Y933425D02*
X673253Y935758D01*
X679475Y935758D01*
G54D14*
X674420Y941669D02*
X678308Y941669D01*
X679086Y941203D01*
X679475Y940269D01*
X679475Y939336D01*
X679086Y938403D01*
X678308Y937936D01*
X674420Y937936D01*
X673642Y938403D01*
X673253Y939336D01*
X673253Y940269D01*
X673642Y941203D01*
X674420Y941669D01*
G54D14*
X679475Y943847D02*
X673253Y943847D01*
G54D14*
X677531Y943847D02*
X673253Y947580D01*
G54D14*
X676364Y945247D02*
X679475Y947580D01*
G54D14*
X577161Y828650D02*
X574828Y830983D01*
X581050Y830983D01*
G54D14*
X575994Y836894D02*
X579883Y836894D01*
X580661Y836428D01*
X581050Y835494D01*
X581050Y834561D01*
X580661Y833628D01*
X579883Y833161D01*
X575994Y833161D01*
X575217Y833628D01*
X574828Y834561D01*
X574828Y835494D01*
X575217Y836428D01*
X575994Y836894D01*
G54D14*
X581050Y839072D02*
X574828Y839072D01*
G54D14*
X579106Y839072D02*
X574828Y842805D01*
G54D14*
X577939Y840472D02*
X581050Y842805D01*
G54D14*
X602561Y828650D02*
X600228Y830983D01*
X606450Y830983D01*
G54D14*
X601394Y836894D02*
X605283Y836894D01*
X606061Y836428D01*
X606450Y835494D01*
X606450Y834561D01*
X606061Y833628D01*
X605283Y833161D01*
X601394Y833161D01*
X600617Y833628D01*
X600228Y834561D01*
X600228Y835494D01*
X600617Y836428D01*
X601394Y836894D01*
G54D14*
X606450Y839072D02*
X600228Y839072D01*
G54D14*
X604506Y839072D02*
X600228Y842805D01*
G54D14*
X603339Y840472D02*
X606450Y842805D01*
G54D14*
X713559Y833556D02*
X711225Y835890D01*
X717448Y835890D01*
G54D14*
X712392Y841801D02*
X716281Y841801D01*
X717059Y841334D01*
X717448Y840401D01*
X717448Y839468D01*
X717059Y838534D01*
X716281Y838068D01*
X712392Y838068D01*
X711614Y838534D01*
X711225Y839468D01*
X711225Y840401D01*
X711614Y841334D01*
X712392Y841801D01*
G54D14*
X717448Y843978D02*
X711225Y843978D01*
G54D14*
X715503Y843978D02*
X711225Y847712D01*
G54D14*
X714336Y845378D02*
X717448Y847712D01*
G54D14*
X685825Y775389D02*
X688158Y777722D01*
X688158Y771500D01*
G54D14*
X690336Y771500D02*
X690336Y777722D01*
G54D14*
X690336Y773444D02*
X694069Y777722D01*
G54D14*
X691736Y774611D02*
X694069Y771500D01*
G54D14*
X727100Y800789D02*
X729433Y803122D01*
X729433Y796900D01*
G54D14*
X731611Y796900D02*
X731611Y803122D01*
G54D14*
X731611Y798844D02*
X735344Y803122D01*
G54D14*
X733011Y800011D02*
X735344Y796900D01*
G54D14*
X831875Y898500D02*
X831875Y904722D01*
X834208Y904722D01*
X835142Y904333D01*
X835608Y903556D01*
X835608Y902778D01*
X835142Y902000D01*
X834208Y901611D01*
X835142Y901222D01*
X835608Y900444D01*
X835608Y899667D01*
X835142Y898889D01*
X834208Y898500D01*
X831875Y898500D01*
G54D14*
X831875Y901611D02*
X834208Y901611D01*
G54D14*
X835608Y871092D02*
X835142Y870314D01*
X834208Y869925D01*
X833275Y869925D01*
X832342Y870314D01*
X831875Y871092D01*
X831875Y874981D01*
X832342Y875758D01*
X833275Y876147D01*
X834208Y876147D01*
X835142Y875758D01*
X835608Y874981D01*
G54D14*
X835142Y838175D02*
X831875Y838175D01*
X831875Y844397D01*
X835142Y844397D01*
G54D14*
X831875Y841286D02*
X835142Y841286D01*
G54D14*
X809650Y930250D02*
X809650Y936472D01*
X811983Y936472D01*
X812917Y936083D01*
X813383Y935306D01*
X813383Y934528D01*
X812917Y933750D01*
X811983Y933361D01*
X812917Y932972D01*
X813383Y932194D01*
X813383Y931417D01*
X812917Y930639D01*
X811983Y930250D01*
X809650Y930250D01*
G54D14*
X809650Y933361D02*
X811983Y933361D01*
G54D14*
X815561Y930250D02*
X815561Y936472D01*
X817894Y936472D01*
X818828Y936083D01*
X819294Y935306D01*
X819294Y931417D01*
X818828Y930639D01*
X817894Y930250D01*
X815561Y930250D01*
G54D14*
X825205Y935306D02*
X824739Y936083D01*
X823805Y936472D01*
X822872Y936472D01*
X821939Y936083D01*
X821472Y935306D01*
X821472Y933361D01*
X821472Y932972D01*
X822872Y933750D01*
X823805Y933750D01*
X824739Y933361D01*
X825205Y932583D01*
X825205Y931417D01*
X824739Y930639D01*
X823805Y930250D01*
X822872Y930250D01*
X821939Y930639D01*
X821472Y931417D01*
X821472Y933361D01*
G54D14*
X827383Y936472D02*
X831116Y936472D01*
X830650Y935694D01*
X829716Y934528D01*
X828783Y932972D01*
X828316Y931806D01*
X828316Y930250D01*
G54D14*
X833294Y936472D02*
X837027Y936472D01*
X836561Y935694D01*
X835627Y934528D01*
X834694Y932972D01*
X834227Y931806D01*
X834227Y930250D01*
G54D11*
X839850Y836875D02*
X839850Y929375D01*
X804850Y929375D01*
X804850Y836875D01*
X839850Y836875D01*
G54D17*
X727100Y892150D02*
X727100Y924150D01*
G54D17*
X727100Y892150D02*
X755100Y892150D01*
G54D17*
X755100Y892150D02*
X755100Y917150D01*
X748100Y924150D01*
X727100Y924150D01*
G54D17*
X739800Y892150D02*
X739800Y922150D01*
G54D17*
X746150Y911200D02*
X736150Y911200D01*
G54D17*
X739800Y911200D02*
X735800Y907200D01*
X743800Y907200D01*
X739800Y911200D01*
G54D11*
X703367Y893128D02*
X703367Y924328D01*
X718967Y924328D01*
X718968Y893128D01*
X703367Y893128D01*
G54D14*
X710511Y904850D02*
X708178Y907183D01*
X714400Y907183D01*
G54D14*
X714400Y909361D02*
X708178Y909361D01*
G54D14*
X712456Y909361D02*
X708178Y913094D01*
G54D14*
X711289Y910761D02*
X714400Y913094D01*
G54D11*
X790756Y849100D02*
X790756Y893600D01*
X778056Y893600D01*
X778056Y849100D01*
X790756Y849100D01*
G54D12*
X790756Y880850D02*
X778056Y880850D01*
G54D13*
X780231Y866650D02*
X789120Y866650D01*
X789120Y869983D01*
X788564Y871317D01*
X787453Y871983D01*
X781898Y871983D01*
X780787Y871317D01*
X780231Y869983D01*
X780231Y866650D01*
G54D10*
X498500Y703078D02*
X487833Y703078D01*
G54D10*
X493167Y707522D02*
X493167Y698633D01*
G54D10*
X498500Y537978D02*
X487833Y537978D01*
G54D11*
X746306Y611350D02*
X746306Y579550D01*
X733606Y579550D01*
X733606Y611350D01*
X746306Y611350D01*
G54D12*
X746306Y585950D02*
X733606Y585950D01*
G54D13*
X732606Y600150D02*
X741495Y600150D01*
X741495Y596817D01*
X740940Y595483D01*
X739828Y594817D01*
X734273Y594817D01*
X733162Y595483D01*
X732606Y596817D01*
X732606Y600150D01*
G54D11*
X560225Y698319D02*
X604725Y698319D01*
X604725Y711019D01*
X560225Y711019D01*
X560225Y698319D01*
G54D12*
X591975Y698319D02*
X591975Y711019D01*
G54D13*
X577775Y708844D02*
X577775Y699955D01*
X581108Y699955D01*
X582442Y700510D01*
X583108Y701622D01*
X583108Y707177D01*
X582442Y708288D01*
X581108Y708844D01*
X577775Y708844D01*
G54D14*
X641000Y612750D02*
X641000Y618972D01*
X638200Y615083D01*
X638200Y614306D01*
X641933Y614306D01*
G54D14*
X644111Y618972D02*
X647844Y618972D01*
X647378Y618194D01*
X646444Y617028D01*
X645511Y615472D01*
X645044Y614306D01*
X645044Y612750D01*
G54D14*
X652822Y616250D02*
X652822Y612750D01*
G54D14*
X652822Y613528D02*
X652355Y612906D01*
X651422Y612750D01*
X650489Y612906D01*
X650022Y613528D01*
X650022Y616250D01*
G54D14*
X655000Y616639D02*
X657333Y618972D01*
X657333Y612750D01*
G54D14*
X663244Y617806D02*
X662778Y618583D01*
X661844Y618972D01*
X660911Y618972D01*
X659978Y618583D01*
X659511Y617806D01*
X659511Y615861D01*
X659511Y615472D01*
X660911Y616250D01*
X661844Y616250D01*
X662778Y615861D01*
X663244Y615083D01*
X663244Y613917D01*
X662778Y613139D01*
X661844Y612750D01*
X660911Y612750D01*
X659978Y613139D01*
X659511Y613917D01*
X659511Y615861D01*
G54D14*
X665422Y616250D02*
X667289Y612750D01*
X669155Y616250D01*
G54D15*
X692175Y603225D02*
X626050Y603225D01*
X626050Y628350D01*
X692175Y628350D01*
X692175Y603225D01*
G54D11*
X707071Y519168D02*
X675872Y519167D01*
X675872Y534767D01*
X707071Y534768D01*
X707071Y519168D01*
G54D11*
X634962Y544025D02*
X634962Y510025D01*
X570962Y510025D01*
X570962Y544025D01*
X634962Y544025D01*
G54D11*
X626962Y535025D02*
X578962Y535025D01*
X578962Y519025D01*
X626962Y519025D01*
X626962Y534025D01*
X626962Y535025D01*
G54D11*
X831812Y544025D02*
X831812Y510025D01*
X767812Y510025D01*
X767812Y544025D01*
X831812Y544025D01*
G54D11*
X823812Y535025D02*
X775812Y535025D01*
X775812Y519025D01*
X823812Y519025D01*
X823812Y534025D01*
X823812Y535025D01*
G54D16*
X488975Y622275D02*
X488975Y634720D01*
G54D16*
X492397Y622275D02*
X492397Y629275D01*
G54D16*
X492397Y627720D02*
X493330Y628808D01*
X495197Y629275D01*
X497064Y628808D01*
X497997Y627720D01*
X497997Y622275D01*
G54D11*
X595418Y575629D02*
X595417Y606828D01*
X611017Y606828D01*
X611018Y575629D01*
X595418Y575629D01*
G54D11*
X570018Y575629D02*
X570017Y606828D01*
X585617Y606828D01*
X585618Y575629D01*
X570018Y575629D01*
G54D11*
X706542Y575629D02*
X706542Y606828D01*
X722142Y606828D01*
X722142Y575629D01*
X706542Y575629D01*
G54D11*
X715378Y560283D02*
X746578Y560283D01*
X746578Y544683D01*
X715378Y544683D01*
X715378Y560283D01*
G54D17*
X577350Y685600D02*
X602750Y685600D01*
X602750Y641150D01*
X577350Y641150D01*
X577350Y685600D01*
G54D11*
X668442Y677229D02*
X668442Y708428D01*
X684042Y708428D01*
X684042Y677229D01*
X668442Y677229D01*
G54D15*
X669850Y594350D02*
X646850Y594350D01*
X646850Y543250D01*
X669850Y543250D01*
X669850Y594350D01*
G54D15*
X664850Y594350D02*
X651850Y594350D01*
X651850Y589350D01*
X664850Y589350D01*
X664850Y594350D01*
G54D18*
X663238Y560928D02*
X654350Y560928D01*
G54D18*
X661572Y568039D02*
X662683Y567373D01*
X663238Y566039D01*
X663238Y564706D01*
X662683Y563373D01*
X661572Y562706D01*
X656016Y562706D01*
X654905Y563373D01*
X654350Y564706D01*
X654350Y566039D01*
X654905Y567373D01*
X656016Y568039D01*
G54D18*
X657683Y569817D02*
X654350Y573150D01*
X663238Y573150D01*
G54D17*
X663600Y708000D02*
X663600Y676000D01*
G54D17*
X663600Y708000D02*
X635600Y708000D01*
G54D17*
X635600Y708000D02*
X635600Y683000D01*
X642600Y676000D01*
X663600Y676000D01*
G54D17*
X650900Y708000D02*
X650900Y678000D01*
G54D17*
X644550Y688950D02*
X654550Y688950D01*
G54D17*
X650900Y688950D02*
X654900Y692950D01*
X646900Y692950D01*
X650900Y688950D01*
G54D15*
X676275Y655500D02*
X676275Y633500D01*
X638275Y633500D01*
X638275Y655500D01*
X676275Y655500D01*
G54D14*
X638183Y663966D02*
X638183Y660077D01*
X637717Y659299D01*
X636783Y658910D01*
X635850Y658910D01*
X634917Y659299D01*
X634450Y660077D01*
X634450Y663966D01*
X634917Y664743D01*
X635850Y665132D01*
X636783Y665132D01*
X637717Y664743D01*
X638183Y663966D01*
G54D14*
X640361Y658910D02*
X640361Y658910D01*
G54D14*
X642539Y662799D02*
X644872Y665132D01*
X644872Y658910D01*
G54D14*
X649850Y662410D02*
X649850Y658910D01*
G54D14*
X649850Y659688D02*
X649383Y659066D01*
X648450Y658910D01*
X647517Y659066D01*
X647050Y659688D01*
X647050Y662410D01*
G54D14*
X652961Y658910D02*
X652961Y664743D01*
X653428Y665132D01*
X653895Y664899D01*
G54D14*
X652028Y662410D02*
X653895Y662410D01*
G54D14*
X585632Y650193D02*
X585632Y653926D01*
X586410Y653460D01*
X587576Y652526D01*
X589132Y651593D01*
X590298Y651126D01*
X591854Y651126D01*
G54D14*
X588743Y658437D02*
X588743Y657504D01*
X588354Y656571D01*
X587576Y656104D01*
X586798Y656104D01*
X586021Y656571D01*
X585632Y657504D01*
X585632Y658437D01*
X586021Y659371D01*
X586798Y659837D01*
X587576Y659837D01*
X588354Y659371D01*
X588743Y658437D01*
X589132Y659371D01*
X589910Y659837D01*
X590687Y659837D01*
X591465Y659371D01*
X591854Y658437D01*
X591854Y657504D01*
X591465Y656571D01*
X590687Y656104D01*
X589910Y656104D01*
X589132Y656571D01*
X588743Y657504D01*
G54D14*
X585632Y662015D02*
X591854Y662015D01*
X591854Y665282D01*
G54D14*
X586798Y671193D02*
X590687Y671193D01*
X591465Y670727D01*
X591854Y669793D01*
X591854Y668860D01*
X591465Y667927D01*
X590687Y667460D01*
X586798Y667460D01*
X586021Y667927D01*
X585632Y668860D01*
X585632Y669793D01*
X586021Y670727D01*
X586798Y671193D01*
G54D14*
X585632Y677104D02*
X585632Y673371D01*
X588354Y673371D01*
X588354Y673838D01*
X587965Y674771D01*
X587965Y675704D01*
X588354Y676638D01*
X589132Y677104D01*
X590687Y677104D01*
X591465Y676638D01*
X591854Y675704D01*
X591854Y674771D01*
X591465Y673838D01*
X590687Y673371D01*
G54D19*
X912722Y607994D02*
X912722Y601883D01*
X911744Y600661D01*
X909789Y600050D01*
X907833Y600050D01*
X905878Y600661D01*
X904900Y601883D01*
X904900Y607994D01*
X905878Y609217D01*
X907833Y609828D01*
X909789Y609828D01*
X911744Y609217D01*
X912722Y607994D01*
G54D19*
X922011Y605550D02*
X922011Y600050D01*
G54D19*
X922011Y601272D02*
X921033Y600294D01*
X919077Y600050D01*
X917122Y600294D01*
X916144Y601272D01*
X916144Y605550D01*
G54D19*
X927389Y609828D02*
X927389Y600661D01*
X928366Y600050D01*
X929344Y600294D01*
G54D19*
X925433Y605550D02*
X929344Y605550D01*
G54D10*
X923950Y541153D02*
X913283Y541153D01*
G54D10*
X920775Y706253D02*
X910108Y706253D01*
G54D10*
X915442Y710697D02*
X915442Y701808D01*
G54D14*
X675586Y685775D02*
X673253Y688108D01*
X679475Y688108D01*
G54D14*
X674420Y694019D02*
X678308Y694019D01*
X679086Y693553D01*
X679475Y692619D01*
X679475Y691686D01*
X679086Y690753D01*
X678308Y690286D01*
X674420Y690286D01*
X673642Y690753D01*
X673253Y691686D01*
X673253Y692619D01*
X673642Y693553D01*
X674420Y694019D01*
G54D14*
X679475Y696197D02*
X673253Y696197D01*
G54D14*
X677531Y696197D02*
X673253Y699930D01*
G54D14*
X676364Y697597D02*
X679475Y699930D01*
G54D14*
X577161Y581000D02*
X574828Y583333D01*
X581050Y583333D01*
G54D14*
X575994Y589244D02*
X579883Y589244D01*
X580661Y588778D01*
X581050Y587844D01*
X581050Y586911D01*
X580661Y585978D01*
X579883Y585511D01*
X575994Y585511D01*
X575217Y585978D01*
X574828Y586911D01*
X574828Y587844D01*
X575217Y588778D01*
X575994Y589244D01*
G54D14*
X581050Y591422D02*
X574828Y591422D01*
G54D14*
X579106Y591422D02*
X574828Y595155D01*
G54D14*
X577939Y592822D02*
X581050Y595155D01*
G54D14*
X602561Y581000D02*
X600228Y583333D01*
X606450Y583333D01*
G54D14*
X601394Y589244D02*
X605283Y589244D01*
X606061Y588778D01*
X606450Y587844D01*
X606450Y586911D01*
X606061Y585978D01*
X605283Y585511D01*
X601394Y585511D01*
X600617Y585978D01*
X600228Y586911D01*
X600228Y587844D01*
X600617Y588778D01*
X601394Y589244D01*
G54D14*
X606450Y591422D02*
X600228Y591422D01*
G54D14*
X604506Y591422D02*
X600228Y595155D01*
G54D14*
X603339Y592822D02*
X606450Y595155D01*
G54D14*
X713559Y585906D02*
X711225Y588240D01*
X717448Y588240D01*
G54D14*
X712392Y594151D02*
X716281Y594151D01*
X717059Y593684D01*
X717448Y592751D01*
X717448Y591818D01*
X717059Y590884D01*
X716281Y590418D01*
X712392Y590418D01*
X711614Y590884D01*
X711225Y591818D01*
X711225Y592751D01*
X711614Y593684D01*
X712392Y594151D01*
G54D14*
X717448Y596328D02*
X711225Y596328D01*
G54D14*
X715503Y596328D02*
X711225Y600062D01*
G54D14*
X714336Y597728D02*
X717448Y600062D01*
G54D14*
X685825Y527739D02*
X688158Y530072D01*
X688158Y523850D01*
G54D14*
X690336Y523850D02*
X690336Y530072D01*
G54D14*
X690336Y525794D02*
X694069Y530072D01*
G54D14*
X691736Y526961D02*
X694069Y523850D01*
G54D14*
X727100Y553139D02*
X729433Y555472D01*
X729433Y549250D01*
G54D14*
X731611Y549250D02*
X731611Y555472D01*
G54D14*
X731611Y551194D02*
X735344Y555472D01*
G54D14*
X733011Y552361D02*
X735344Y549250D01*
G54D14*
X831875Y650850D02*
X831875Y657072D01*
X834208Y657072D01*
X835142Y656683D01*
X835608Y655906D01*
X835608Y655128D01*
X835142Y654350D01*
X834208Y653961D01*
X835142Y653572D01*
X835608Y652794D01*
X835608Y652017D01*
X835142Y651239D01*
X834208Y650850D01*
X831875Y650850D01*
G54D14*
X831875Y653961D02*
X834208Y653961D01*
G54D14*
X835608Y623442D02*
X835142Y622664D01*
X834208Y622275D01*
X833275Y622275D01*
X832342Y622664D01*
X831875Y623442D01*
X831875Y627331D01*
X832342Y628108D01*
X833275Y628497D01*
X834208Y628497D01*
X835142Y628108D01*
X835608Y627331D01*
G54D14*
X835142Y590525D02*
X831875Y590525D01*
X831875Y596747D01*
X835142Y596747D01*
G54D14*
X831875Y593636D02*
X835142Y593636D01*
G54D14*
X809650Y682600D02*
X809650Y688822D01*
X811983Y688822D01*
X812917Y688433D01*
X813383Y687656D01*
X813383Y686878D01*
X812917Y686100D01*
X811983Y685711D01*
X812917Y685322D01*
X813383Y684544D01*
X813383Y683767D01*
X812917Y682989D01*
X811983Y682600D01*
X809650Y682600D01*
G54D14*
X809650Y685711D02*
X811983Y685711D01*
G54D14*
X815561Y682600D02*
X815561Y688822D01*
X817894Y688822D01*
X818828Y688433D01*
X819294Y687656D01*
X819294Y683767D01*
X818828Y682989D01*
X817894Y682600D01*
X815561Y682600D01*
G54D14*
X825205Y687656D02*
X824739Y688433D01*
X823805Y688822D01*
X822872Y688822D01*
X821939Y688433D01*
X821472Y687656D01*
X821472Y685711D01*
X821472Y685322D01*
X822872Y686100D01*
X823805Y686100D01*
X824739Y685711D01*
X825205Y684933D01*
X825205Y683767D01*
X824739Y682989D01*
X823805Y682600D01*
X822872Y682600D01*
X821939Y682989D01*
X821472Y683767D01*
X821472Y685711D01*
G54D14*
X827383Y688822D02*
X831116Y688822D01*
X830650Y688044D01*
X829716Y686878D01*
X828783Y685322D01*
X828316Y684156D01*
X828316Y682600D01*
G54D14*
X833294Y688822D02*
X837027Y688822D01*
X836561Y688044D01*
X835627Y686878D01*
X834694Y685322D01*
X834227Y684156D01*
X834227Y682600D01*
G54D11*
X839850Y589225D02*
X839850Y681725D01*
X804850Y681725D01*
X804850Y589225D01*
X839850Y589225D01*
G54D17*
X727100Y644500D02*
X727100Y676500D01*
G54D17*
X727100Y644500D02*
X755100Y644500D01*
G54D17*
X755100Y644500D02*
X755100Y669500D01*
X748100Y676500D01*
X727100Y676500D01*
G54D17*
X739800Y644500D02*
X739800Y674500D01*
G54D17*
X746150Y663550D02*
X736150Y663550D01*
G54D17*
X739800Y663550D02*
X735800Y659550D01*
X743800Y659550D01*
X739800Y663550D01*
G54D11*
X703367Y645478D02*
X703367Y676678D01*
X718967Y676678D01*
X718968Y645478D01*
X703367Y645478D01*
G54D14*
X710511Y657200D02*
X708178Y659533D01*
X714400Y659533D01*
G54D14*
X714400Y661711D02*
X708178Y661711D01*
G54D14*
X712456Y661711D02*
X708178Y665444D01*
G54D14*
X711289Y663111D02*
X714400Y665444D01*
G54D11*
X790756Y601450D02*
X790756Y645950D01*
X778056Y645950D01*
X778056Y601450D01*
X790756Y601450D01*
G54D12*
X790756Y633200D02*
X778056Y633200D01*
G54D13*
X780231Y619000D02*
X789120Y619000D01*
X789120Y622333D01*
X788564Y623667D01*
X787453Y624333D01*
X781898Y624333D01*
X780787Y623667D01*
X780231Y622333D01*
X780231Y619000D01*
G54D10*
X498500Y455428D02*
X487833Y455428D01*
G54D10*
X493167Y459872D02*
X493167Y450983D01*
G54D10*
X498500Y290328D02*
X487833Y290328D01*
G54D11*
X746306Y363700D02*
X746306Y331900D01*
X733606Y331900D01*
X733606Y363700D01*
X746306Y363700D01*
G54D12*
X746306Y338300D02*
X733606Y338300D01*
G54D13*
X732606Y352500D02*
X741495Y352500D01*
X741495Y349167D01*
X740940Y347833D01*
X739828Y347167D01*
X734273Y347167D01*
X733162Y347833D01*
X732606Y349167D01*
X732606Y352500D01*
G54D11*
X560225Y450669D02*
X604725Y450669D01*
X604725Y463369D01*
X560225Y463369D01*
X560225Y450669D01*
G54D12*
X591975Y450669D02*
X591975Y463369D01*
G54D13*
X577775Y461194D02*
X577775Y452305D01*
X581108Y452305D01*
X582442Y452860D01*
X583108Y453972D01*
X583108Y459527D01*
X582442Y460638D01*
X581108Y461194D01*
X577775Y461194D01*
G54D14*
X641000Y365100D02*
X641000Y371322D01*
X638200Y367433D01*
X638200Y366656D01*
X641933Y366656D01*
G54D14*
X644111Y371322D02*
X647844Y371322D01*
X647378Y370544D01*
X646444Y369378D01*
X645511Y367822D01*
X645044Y366656D01*
X645044Y365100D01*
G54D14*
X652822Y368600D02*
X652822Y365100D01*
G54D14*
X652822Y365878D02*
X652355Y365256D01*
X651422Y365100D01*
X650489Y365256D01*
X650022Y365878D01*
X650022Y368600D01*
G54D14*
X655000Y368989D02*
X657333Y371322D01*
X657333Y365100D01*
G54D14*
X663244Y370156D02*
X662778Y370933D01*
X661844Y371322D01*
X660911Y371322D01*
X659978Y370933D01*
X659511Y370156D01*
X659511Y368211D01*
X659511Y367822D01*
X660911Y368600D01*
X661844Y368600D01*
X662778Y368211D01*
X663244Y367433D01*
X663244Y366267D01*
X662778Y365489D01*
X661844Y365100D01*
X660911Y365100D01*
X659978Y365489D01*
X659511Y366267D01*
X659511Y368211D01*
G54D14*
X665422Y368600D02*
X667289Y365100D01*
X669155Y368600D01*
G54D15*
X692175Y355575D02*
X626050Y355575D01*
X626050Y380700D01*
X692175Y380700D01*
X692175Y355575D01*
G54D11*
X707071Y271518D02*
X675872Y271517D01*
X675872Y287117D01*
X707071Y287118D01*
X707071Y271518D01*
G54D11*
X634962Y296375D02*
X634962Y262375D01*
X570962Y262375D01*
X570962Y296375D01*
X634962Y296375D01*
G54D11*
X626962Y287375D02*
X578962Y287375D01*
X578962Y271375D01*
X626962Y271375D01*
X626962Y286375D01*
X626962Y287375D01*
G54D11*
X831812Y296375D02*
X831812Y262375D01*
X767812Y262375D01*
X767812Y296375D01*
X831812Y296375D01*
G54D11*
X823812Y287375D02*
X775812Y287375D01*
X775812Y271375D01*
X823812Y271375D01*
X823812Y286375D01*
X823812Y287375D01*
G54D16*
X488975Y374625D02*
X488975Y387070D01*
G54D16*
X492397Y374625D02*
X492397Y381625D01*
G54D16*
X492397Y380070D02*
X493330Y381158D01*
X495197Y381625D01*
X497064Y381158D01*
X497997Y380070D01*
X497997Y374625D01*
G54D11*
X595418Y327979D02*
X595417Y359178D01*
X611017Y359178D01*
X611018Y327979D01*
X595418Y327979D01*
G54D11*
X570018Y327979D02*
X570017Y359178D01*
X585617Y359178D01*
X585618Y327979D01*
X570018Y327979D01*
G54D11*
X706542Y327979D02*
X706542Y359178D01*
X722142Y359178D01*
X722142Y327979D01*
X706542Y327979D01*
G54D11*
X715378Y312633D02*
X746578Y312633D01*
X746578Y297033D01*
X715378Y297033D01*
X715378Y312633D01*
G54D17*
X577350Y437950D02*
X602750Y437950D01*
X602750Y393500D01*
X577350Y393500D01*
X577350Y437950D01*
G54D11*
X668442Y429579D02*
X668442Y460778D01*
X684042Y460778D01*
X684042Y429579D01*
X668442Y429579D01*
G54D15*
X669850Y346700D02*
X646850Y346700D01*
X646850Y295600D01*
X669850Y295600D01*
X669850Y346700D01*
G54D15*
X664850Y346700D02*
X651850Y346700D01*
X651850Y341700D01*
X664850Y341700D01*
X664850Y346700D01*
G54D18*
X663238Y313278D02*
X654350Y313278D01*
G54D18*
X661572Y320389D02*
X662683Y319723D01*
X663238Y318389D01*
X663238Y317056D01*
X662683Y315723D01*
X661572Y315056D01*
X656016Y315056D01*
X654905Y315723D01*
X654350Y317056D01*
X654350Y318389D01*
X654905Y319723D01*
X656016Y320389D01*
G54D18*
X657683Y322167D02*
X654350Y325500D01*
X663238Y325500D01*
G54D17*
X663600Y460350D02*
X663600Y428350D01*
G54D17*
X663600Y460350D02*
X635600Y460350D01*
G54D17*
X635600Y460350D02*
X635600Y435350D01*
X642600Y428350D01*
X663600Y428350D01*
G54D17*
X650900Y460350D02*
X650900Y430350D01*
G54D17*
X644550Y441300D02*
X654550Y441300D01*
G54D17*
X650900Y441300D02*
X654900Y445300D01*
X646900Y445300D01*
X650900Y441300D01*
G54D15*
X676275Y407850D02*
X676275Y385850D01*
X638275Y385850D01*
X638275Y407850D01*
X676275Y407850D01*
G54D14*
X638183Y416316D02*
X638183Y412427D01*
X637717Y411649D01*
X636783Y411260D01*
X635850Y411260D01*
X634917Y411649D01*
X634450Y412427D01*
X634450Y416316D01*
X634917Y417093D01*
X635850Y417482D01*
X636783Y417482D01*
X637717Y417093D01*
X638183Y416316D01*
G54D14*
X640361Y411260D02*
X640361Y411260D01*
G54D14*
X642539Y415149D02*
X644872Y417482D01*
X644872Y411260D01*
G54D14*
X649850Y414760D02*
X649850Y411260D01*
G54D14*
X649850Y412038D02*
X649383Y411416D01*
X648450Y411260D01*
X647517Y411416D01*
X647050Y412038D01*
X647050Y414760D01*
G54D14*
X652961Y411260D02*
X652961Y417093D01*
X653428Y417482D01*
X653895Y417249D01*
G54D14*
X652028Y414760D02*
X653895Y414760D01*
G54D14*
X585632Y402543D02*
X585632Y406276D01*
X586410Y405810D01*
X587576Y404876D01*
X589132Y403943D01*
X590298Y403476D01*
X591854Y403476D01*
G54D14*
X588743Y410787D02*
X588743Y409854D01*
X588354Y408921D01*
X587576Y408454D01*
X586798Y408454D01*
X586021Y408921D01*
X585632Y409854D01*
X585632Y410787D01*
X586021Y411721D01*
X586798Y412187D01*
X587576Y412187D01*
X588354Y411721D01*
X588743Y410787D01*
X589132Y411721D01*
X589910Y412187D01*
X590687Y412187D01*
X591465Y411721D01*
X591854Y410787D01*
X591854Y409854D01*
X591465Y408921D01*
X590687Y408454D01*
X589910Y408454D01*
X589132Y408921D01*
X588743Y409854D01*
G54D14*
X585632Y414365D02*
X591854Y414365D01*
X591854Y417632D01*
G54D14*
X586798Y423543D02*
X590687Y423543D01*
X591465Y423077D01*
X591854Y422143D01*
X591854Y421210D01*
X591465Y420277D01*
X590687Y419810D01*
X586798Y419810D01*
X586021Y420277D01*
X585632Y421210D01*
X585632Y422143D01*
X586021Y423077D01*
X586798Y423543D01*
G54D14*
X585632Y429454D02*
X585632Y425721D01*
X588354Y425721D01*
X588354Y426188D01*
X587965Y427121D01*
X587965Y428054D01*
X588354Y428988D01*
X589132Y429454D01*
X590687Y429454D01*
X591465Y428988D01*
X591854Y428054D01*
X591854Y427121D01*
X591465Y426188D01*
X590687Y425721D01*
G54D19*
X912722Y360344D02*
X912722Y354233D01*
X911744Y353011D01*
X909789Y352400D01*
X907833Y352400D01*
X905878Y353011D01*
X904900Y354233D01*
X904900Y360344D01*
X905878Y361567D01*
X907833Y362178D01*
X909789Y362178D01*
X911744Y361567D01*
X912722Y360344D01*
G54D19*
X922011Y357900D02*
X922011Y352400D01*
G54D19*
X922011Y353622D02*
X921033Y352644D01*
X919077Y352400D01*
X917122Y352644D01*
X916144Y353622D01*
X916144Y357900D01*
G54D19*
X927389Y362178D02*
X927389Y353011D01*
X928366Y352400D01*
X929344Y352644D01*
G54D19*
X925433Y357900D02*
X929344Y357900D01*
G54D10*
X923950Y293503D02*
X913283Y293503D01*
G54D10*
X920775Y458603D02*
X910108Y458603D01*
G54D10*
X915442Y463047D02*
X915442Y454158D01*
G54D14*
X675586Y438125D02*
X673253Y440458D01*
X679475Y440458D01*
G54D14*
X674420Y446369D02*
X678308Y446369D01*
X679086Y445903D01*
X679475Y444969D01*
X679475Y444036D01*
X679086Y443103D01*
X678308Y442636D01*
X674420Y442636D01*
X673642Y443103D01*
X673253Y444036D01*
X673253Y444969D01*
X673642Y445903D01*
X674420Y446369D01*
G54D14*
X679475Y448547D02*
X673253Y448547D01*
G54D14*
X677531Y448547D02*
X673253Y452280D01*
G54D14*
X676364Y449947D02*
X679475Y452280D01*
G54D14*
X577161Y333350D02*
X574828Y335683D01*
X581050Y335683D01*
G54D14*
X575994Y341594D02*
X579883Y341594D01*
X580661Y341128D01*
X581050Y340194D01*
X581050Y339261D01*
X580661Y338328D01*
X579883Y337861D01*
X575994Y337861D01*
X575217Y338328D01*
X574828Y339261D01*
X574828Y340194D01*
X575217Y341128D01*
X575994Y341594D01*
G54D14*
X581050Y343772D02*
X574828Y343772D01*
G54D14*
X579106Y343772D02*
X574828Y347505D01*
G54D14*
X577939Y345172D02*
X581050Y347505D01*
G54D14*
X602561Y333350D02*
X600228Y335683D01*
X606450Y335683D01*
G54D14*
X601394Y341594D02*
X605283Y341594D01*
X606061Y341128D01*
X606450Y340194D01*
X606450Y339261D01*
X606061Y338328D01*
X605283Y337861D01*
X601394Y337861D01*
X600617Y338328D01*
X600228Y339261D01*
X600228Y340194D01*
X600617Y341128D01*
X601394Y341594D01*
G54D14*
X606450Y343772D02*
X600228Y343772D01*
G54D14*
X604506Y343772D02*
X600228Y347505D01*
G54D14*
X603339Y345172D02*
X606450Y347505D01*
G54D14*
X713559Y338256D02*
X711225Y340590D01*
X717448Y340590D01*
G54D14*
X712392Y346501D02*
X716281Y346501D01*
X717059Y346034D01*
X717448Y345101D01*
X717448Y344168D01*
X717059Y343234D01*
X716281Y342768D01*
X712392Y342768D01*
X711614Y343234D01*
X711225Y344168D01*
X711225Y345101D01*
X711614Y346034D01*
X712392Y346501D01*
G54D14*
X717448Y348678D02*
X711225Y348678D01*
G54D14*
X715503Y348678D02*
X711225Y352412D01*
G54D14*
X714336Y350078D02*
X717448Y352412D01*
G54D14*
X685825Y280089D02*
X688158Y282422D01*
X688158Y276200D01*
G54D14*
X690336Y276200D02*
X690336Y282422D01*
G54D14*
X690336Y278144D02*
X694069Y282422D01*
G54D14*
X691736Y279311D02*
X694069Y276200D01*
G54D14*
X727100Y305489D02*
X729433Y307822D01*
X729433Y301600D01*
G54D14*
X731611Y301600D02*
X731611Y307822D01*
G54D14*
X731611Y303544D02*
X735344Y307822D01*
G54D14*
X733011Y304711D02*
X735344Y301600D01*
G54D14*
X831875Y403200D02*
X831875Y409422D01*
X834208Y409422D01*
X835142Y409033D01*
X835608Y408256D01*
X835608Y407478D01*
X835142Y406700D01*
X834208Y406311D01*
X835142Y405922D01*
X835608Y405144D01*
X835608Y404367D01*
X835142Y403589D01*
X834208Y403200D01*
X831875Y403200D01*
G54D14*
X831875Y406311D02*
X834208Y406311D01*
G54D14*
X835608Y375792D02*
X835142Y375014D01*
X834208Y374625D01*
X833275Y374625D01*
X832342Y375014D01*
X831875Y375792D01*
X831875Y379681D01*
X832342Y380458D01*
X833275Y380847D01*
X834208Y380847D01*
X835142Y380458D01*
X835608Y379681D01*
G54D14*
X835142Y342875D02*
X831875Y342875D01*
X831875Y349097D01*
X835142Y349097D01*
G54D14*
X831875Y345986D02*
X835142Y345986D01*
G54D14*
X809650Y434950D02*
X809650Y441172D01*
X811983Y441172D01*
X812917Y440783D01*
X813383Y440006D01*
X813383Y439228D01*
X812917Y438450D01*
X811983Y438061D01*
X812917Y437672D01*
X813383Y436894D01*
X813383Y436117D01*
X812917Y435339D01*
X811983Y434950D01*
X809650Y434950D01*
G54D14*
X809650Y438061D02*
X811983Y438061D01*
G54D14*
X815561Y434950D02*
X815561Y441172D01*
X817894Y441172D01*
X818828Y440783D01*
X819294Y440006D01*
X819294Y436117D01*
X818828Y435339D01*
X817894Y434950D01*
X815561Y434950D01*
G54D14*
X825205Y440006D02*
X824739Y440783D01*
X823805Y441172D01*
X822872Y441172D01*
X821939Y440783D01*
X821472Y440006D01*
X821472Y438061D01*
X821472Y437672D01*
X822872Y438450D01*
X823805Y438450D01*
X824739Y438061D01*
X825205Y437283D01*
X825205Y436117D01*
X824739Y435339D01*
X823805Y434950D01*
X822872Y434950D01*
X821939Y435339D01*
X821472Y436117D01*
X821472Y438061D01*
G54D14*
X827383Y441172D02*
X831116Y441172D01*
X830650Y440394D01*
X829716Y439228D01*
X828783Y437672D01*
X828316Y436506D01*
X828316Y434950D01*
G54D14*
X833294Y441172D02*
X837027Y441172D01*
X836561Y440394D01*
X835627Y439228D01*
X834694Y437672D01*
X834227Y436506D01*
X834227Y434950D01*
G54D11*
X839850Y341575D02*
X839850Y434075D01*
X804850Y434075D01*
X804850Y341575D01*
X839850Y341575D01*
G54D17*
X727100Y396850D02*
X727100Y428850D01*
G54D17*
X727100Y396850D02*
X755100Y396850D01*
G54D17*
X755100Y396850D02*
X755100Y421850D01*
X748100Y428850D01*
X727100Y428850D01*
G54D17*
X739800Y396850D02*
X739800Y426850D01*
G54D17*
X746150Y415900D02*
X736150Y415900D01*
G54D17*
X739800Y415900D02*
X735800Y411900D01*
X743800Y411900D01*
X739800Y415900D01*
G54D11*
X703367Y397828D02*
X703367Y429028D01*
X718967Y429028D01*
X718968Y397828D01*
X703367Y397828D01*
G54D14*
X710511Y409550D02*
X708178Y411883D01*
X714400Y411883D01*
G54D14*
X714400Y414061D02*
X708178Y414061D01*
G54D14*
X712456Y414061D02*
X708178Y417794D01*
G54D14*
X711289Y415461D02*
X714400Y417794D01*
G54D11*
X790756Y353800D02*
X790756Y398300D01*
X778056Y398300D01*
X778056Y353800D01*
X790756Y353800D01*
G54D12*
X790756Y385550D02*
X778056Y385550D01*
G54D13*
X780231Y371350D02*
X789120Y371350D01*
X789120Y374683D01*
X788564Y376017D01*
X787453Y376683D01*
X781898Y376683D01*
X780787Y376017D01*
X780231Y374683D01*
X780231Y371350D01*
G54D10*
X498500Y207778D02*
X487833Y207778D01*
G54D10*
X493167Y212222D02*
X493167Y203333D01*
G54D10*
X498500Y42678D02*
X487833Y42678D01*
G54D11*
X746306Y116050D02*
X746306Y84250D01*
X733606Y84250D01*
X733606Y116050D01*
X746306Y116050D01*
G54D12*
X746306Y90650D02*
X733606Y90650D01*
G54D13*
X732606Y104850D02*
X741495Y104850D01*
X741495Y101517D01*
X740940Y100183D01*
X739828Y99517D01*
X734273Y99517D01*
X733162Y100183D01*
X732606Y101517D01*
X732606Y104850D01*
G54D11*
X560225Y203019D02*
X604725Y203019D01*
X604725Y215719D01*
X560225Y215719D01*
X560225Y203019D01*
G54D12*
X591975Y203019D02*
X591975Y215719D01*
G54D13*
X577775Y213544D02*
X577775Y204655D01*
X581108Y204655D01*
X582442Y205210D01*
X583108Y206322D01*
X583108Y211877D01*
X582442Y212988D01*
X581108Y213544D01*
X577775Y213544D01*
G54D14*
X641000Y117450D02*
X641000Y123672D01*
X638200Y119783D01*
X638200Y119006D01*
X641933Y119006D01*
G54D14*
X644111Y123672D02*
X647844Y123672D01*
X647378Y122894D01*
X646444Y121728D01*
X645511Y120172D01*
X645044Y119006D01*
X645044Y117450D01*
G54D14*
X652822Y120950D02*
X652822Y117450D01*
G54D14*
X652822Y118228D02*
X652355Y117606D01*
X651422Y117450D01*
X650489Y117606D01*
X650022Y118228D01*
X650022Y120950D01*
G54D14*
X655000Y121339D02*
X657333Y123672D01*
X657333Y117450D01*
G54D14*
X663244Y122506D02*
X662778Y123283D01*
X661844Y123672D01*
X660911Y123672D01*
X659978Y123283D01*
X659511Y122506D01*
X659511Y120561D01*
X659511Y120172D01*
X660911Y120950D01*
X661844Y120950D01*
X662778Y120561D01*
X663244Y119783D01*
X663244Y118617D01*
X662778Y117839D01*
X661844Y117450D01*
X660911Y117450D01*
X659978Y117839D01*
X659511Y118617D01*
X659511Y120561D01*
G54D14*
X665422Y120950D02*
X667289Y117450D01*
X669155Y120950D01*
G54D15*
X692175Y107925D02*
X626050Y107925D01*
X626050Y133050D01*
X692175Y133050D01*
X692175Y107925D01*
G54D11*
X707071Y23868D02*
X675872Y23867D01*
X675872Y39467D01*
X707071Y39468D01*
X707071Y23868D01*
G54D11*
X634962Y48725D02*
X634962Y14725D01*
X570962Y14725D01*
X570962Y48725D01*
X634962Y48725D01*
G54D11*
X626962Y39725D02*
X578962Y39725D01*
X578962Y23725D01*
X626962Y23725D01*
X626962Y38725D01*
X626962Y39725D01*
G54D11*
X831812Y48725D02*
X831812Y14725D01*
X767812Y14725D01*
X767812Y48725D01*
X831812Y48725D01*
G54D11*
X823812Y39725D02*
X775812Y39725D01*
X775812Y23725D01*
X823812Y23725D01*
X823812Y38725D01*
X823812Y39725D01*
G54D16*
X488975Y126975D02*
X488975Y139419D01*
G54D16*
X492397Y126975D02*
X492397Y133975D01*
G54D16*
X492397Y132419D02*
X493330Y133508D01*
X495197Y133975D01*
X497064Y133508D01*
X497997Y132419D01*
X497997Y126975D01*
G54D11*
X595418Y80329D02*
X595417Y111528D01*
X611017Y111528D01*
X611018Y80329D01*
X595418Y80329D01*
G54D11*
X570018Y80329D02*
X570017Y111528D01*
X585617Y111528D01*
X585618Y80329D01*
X570018Y80329D01*
G54D11*
X706542Y80329D02*
X706542Y111528D01*
X722142Y111528D01*
X722142Y80329D01*
X706542Y80329D01*
G54D11*
X715378Y64983D02*
X746578Y64983D01*
X746578Y49383D01*
X715378Y49383D01*
X715378Y64983D01*
G54D17*
X577350Y190300D02*
X602750Y190300D01*
X602750Y145850D01*
X577350Y145850D01*
X577350Y190300D01*
G54D11*
X668442Y181929D02*
X668442Y213128D01*
X684042Y213128D01*
X684042Y181929D01*
X668442Y181929D01*
G54D15*
X669850Y99050D02*
X646850Y99050D01*
X646850Y47950D01*
X669850Y47950D01*
X669850Y99050D01*
G54D15*
X664850Y99050D02*
X651850Y99050D01*
X651850Y94050D01*
X664850Y94050D01*
X664850Y99050D01*
G54D18*
X663238Y65628D02*
X654350Y65628D01*
G54D18*
X661572Y72739D02*
X662683Y72073D01*
X663238Y70739D01*
X663238Y69406D01*
X662683Y68073D01*
X661572Y67406D01*
X656016Y67406D01*
X654905Y68073D01*
X654350Y69406D01*
X654350Y70739D01*
X654905Y72073D01*
X656016Y72739D01*
G54D18*
X657683Y74517D02*
X654350Y77850D01*
X663238Y77850D01*
G54D17*
X663600Y212700D02*
X663600Y180700D01*
G54D17*
X663600Y212700D02*
X635600Y212700D01*
G54D17*
X635600Y212700D02*
X635600Y187700D01*
X642600Y180700D01*
X663600Y180700D01*
G54D17*
X650900Y212700D02*
X650900Y182700D01*
G54D17*
X644550Y193650D02*
X654550Y193650D01*
G54D17*
X650900Y193650D02*
X654900Y197650D01*
X646900Y197650D01*
X650900Y193650D01*
G54D15*
X676275Y160200D02*
X676275Y138200D01*
X638275Y138200D01*
X638275Y160200D01*
X676275Y160200D01*
G54D14*
X638183Y168666D02*
X638183Y164777D01*
X637717Y163999D01*
X636783Y163610D01*
X635850Y163610D01*
X634917Y163999D01*
X634450Y164777D01*
X634450Y168666D01*
X634917Y169443D01*
X635850Y169832D01*
X636783Y169832D01*
X637717Y169443D01*
X638183Y168666D01*
G54D14*
X640361Y163610D02*
X640361Y163610D01*
G54D14*
X642539Y167499D02*
X644872Y169832D01*
X644872Y163610D01*
G54D14*
X649850Y167110D02*
X649850Y163610D01*
G54D14*
X649850Y164388D02*
X649383Y163766D01*
X648450Y163610D01*
X647517Y163766D01*
X647050Y164388D01*
X647050Y167110D01*
G54D14*
X652961Y163610D02*
X652961Y169443D01*
X653428Y169832D01*
X653895Y169599D01*
G54D14*
X652028Y167110D02*
X653895Y167110D01*
G54D14*
X585632Y154893D02*
X585632Y158626D01*
X586410Y158160D01*
X587576Y157226D01*
X589132Y156293D01*
X590298Y155826D01*
X591854Y155826D01*
G54D14*
X588743Y163137D02*
X588743Y162204D01*
X588354Y161271D01*
X587576Y160804D01*
X586798Y160804D01*
X586021Y161271D01*
X585632Y162204D01*
X585632Y163137D01*
X586021Y164071D01*
X586798Y164537D01*
X587576Y164537D01*
X588354Y164071D01*
X588743Y163137D01*
X589132Y164071D01*
X589910Y164537D01*
X590687Y164537D01*
X591465Y164071D01*
X591854Y163137D01*
X591854Y162204D01*
X591465Y161271D01*
X590687Y160804D01*
X589910Y160804D01*
X589132Y161271D01*
X588743Y162204D01*
G54D14*
X585632Y166715D02*
X591854Y166715D01*
X591854Y169982D01*
G54D14*
X586798Y175893D02*
X590687Y175893D01*
X591465Y175427D01*
X591854Y174493D01*
X591854Y173560D01*
X591465Y172627D01*
X590687Y172160D01*
X586798Y172160D01*
X586021Y172627D01*
X585632Y173560D01*
X585632Y174493D01*
X586021Y175427D01*
X586798Y175893D01*
G54D14*
X585632Y181804D02*
X585632Y178071D01*
X588354Y178071D01*
X588354Y178538D01*
X587965Y179471D01*
X587965Y180404D01*
X588354Y181338D01*
X589132Y181804D01*
X590687Y181804D01*
X591465Y181338D01*
X591854Y180404D01*
X591854Y179471D01*
X591465Y178538D01*
X590687Y178071D01*
G54D19*
X912722Y112694D02*
X912722Y106583D01*
X911744Y105361D01*
X909789Y104750D01*
X907833Y104750D01*
X905878Y105361D01*
X904900Y106583D01*
X904900Y112694D01*
X905878Y113917D01*
X907833Y114528D01*
X909789Y114528D01*
X911744Y113917D01*
X912722Y112694D01*
G54D19*
X922011Y110250D02*
X922011Y104750D01*
G54D19*
X922011Y105972D02*
X921033Y104994D01*
X919077Y104750D01*
X917122Y104994D01*
X916144Y105972D01*
X916144Y110250D01*
G54D19*
X927389Y114528D02*
X927389Y105361D01*
X928366Y104750D01*
X929344Y104994D01*
G54D19*
X925433Y110250D02*
X929344Y110250D01*
G54D10*
X923950Y45853D02*
X913283Y45853D01*
G54D10*
X920775Y210953D02*
X910108Y210953D01*
G54D10*
X915442Y215397D02*
X915442Y206508D01*
G54D14*
X675586Y190475D02*
X673253Y192808D01*
X679475Y192808D01*
G54D14*
X674420Y198719D02*
X678308Y198719D01*
X679086Y198253D01*
X679475Y197319D01*
X679475Y196386D01*
X679086Y195453D01*
X678308Y194986D01*
X674420Y194986D01*
X673642Y195453D01*
X673253Y196386D01*
X673253Y197319D01*
X673642Y198253D01*
X674420Y198719D01*
G54D14*
X679475Y200897D02*
X673253Y200897D01*
G54D14*
X677531Y200897D02*
X673253Y204630D01*
G54D14*
X676364Y202297D02*
X679475Y204630D01*
G54D14*
X577161Y85700D02*
X574828Y88033D01*
X581050Y88033D01*
G54D14*
X575994Y93944D02*
X579883Y93944D01*
X580661Y93478D01*
X581050Y92544D01*
X581050Y91611D01*
X580661Y90678D01*
X579883Y90211D01*
X575994Y90211D01*
X575217Y90678D01*
X574828Y91611D01*
X574828Y92544D01*
X575217Y93478D01*
X575994Y93944D01*
G54D14*
X581050Y96122D02*
X574828Y96122D01*
G54D14*
X579106Y96122D02*
X574828Y99855D01*
G54D14*
X577939Y97522D02*
X581050Y99855D01*
G54D14*
X602561Y85700D02*
X600228Y88033D01*
X606450Y88033D01*
G54D14*
X601394Y93944D02*
X605283Y93944D01*
X606061Y93478D01*
X606450Y92544D01*
X606450Y91611D01*
X606061Y90678D01*
X605283Y90211D01*
X601394Y90211D01*
X600617Y90678D01*
X600228Y91611D01*
X600228Y92544D01*
X600617Y93478D01*
X601394Y93944D01*
G54D14*
X606450Y96122D02*
X600228Y96122D01*
G54D14*
X604506Y96122D02*
X600228Y99855D01*
G54D14*
X603339Y97522D02*
X606450Y99855D01*
G54D14*
X713559Y90606D02*
X711225Y92940D01*
X717448Y92940D01*
G54D14*
X712392Y98851D02*
X716281Y98851D01*
X717059Y98384D01*
X717448Y97451D01*
X717448Y96518D01*
X717059Y95584D01*
X716281Y95118D01*
X712392Y95118D01*
X711614Y95584D01*
X711225Y96518D01*
X711225Y97451D01*
X711614Y98384D01*
X712392Y98851D01*
G54D14*
X717448Y101028D02*
X711225Y101028D01*
G54D14*
X715503Y101028D02*
X711225Y104762D01*
G54D14*
X714336Y102428D02*
X717448Y104762D01*
G54D14*
X685825Y32439D02*
X688158Y34772D01*
X688158Y28550D01*
G54D14*
X690336Y28550D02*
X690336Y34772D01*
G54D14*
X690336Y30494D02*
X694069Y34772D01*
G54D14*
X691736Y31661D02*
X694069Y28550D01*
G54D14*
X727100Y57839D02*
X729433Y60172D01*
X729433Y53950D01*
G54D14*
X731611Y53950D02*
X731611Y60172D01*
G54D14*
X731611Y55894D02*
X735344Y60172D01*
G54D14*
X733011Y57061D02*
X735344Y53950D01*
G54D14*
X831875Y155550D02*
X831875Y161772D01*
X834208Y161772D01*
X835142Y161383D01*
X835608Y160606D01*
X835608Y159828D01*
X835142Y159050D01*
X834208Y158661D01*
X835142Y158272D01*
X835608Y157494D01*
X835608Y156717D01*
X835142Y155939D01*
X834208Y155550D01*
X831875Y155550D01*
G54D14*
X831875Y158661D02*
X834208Y158661D01*
G54D14*
X835608Y128142D02*
X835142Y127364D01*
X834208Y126975D01*
X833275Y126975D01*
X832342Y127364D01*
X831875Y128142D01*
X831875Y132031D01*
X832342Y132808D01*
X833275Y133197D01*
X834208Y133197D01*
X835142Y132808D01*
X835608Y132031D01*
G54D14*
X835142Y95225D02*
X831875Y95225D01*
X831875Y101447D01*
X835142Y101447D01*
G54D14*
X831875Y98336D02*
X835142Y98336D01*
G54D14*
X809650Y187300D02*
X809650Y193522D01*
X811983Y193522D01*
X812917Y193133D01*
X813383Y192356D01*
X813383Y191578D01*
X812917Y190800D01*
X811983Y190411D01*
X812917Y190022D01*
X813383Y189244D01*
X813383Y188467D01*
X812917Y187689D01*
X811983Y187300D01*
X809650Y187300D01*
G54D14*
X809650Y190411D02*
X811983Y190411D01*
G54D14*
X815561Y187300D02*
X815561Y193522D01*
X817894Y193522D01*
X818828Y193133D01*
X819294Y192356D01*
X819294Y188467D01*
X818828Y187689D01*
X817894Y187300D01*
X815561Y187300D01*
G54D14*
X825205Y192356D02*
X824739Y193133D01*
X823805Y193522D01*
X822872Y193522D01*
X821939Y193133D01*
X821472Y192356D01*
X821472Y190411D01*
X821472Y190022D01*
X822872Y190800D01*
X823805Y190800D01*
X824739Y190411D01*
X825205Y189633D01*
X825205Y188467D01*
X824739Y187689D01*
X823805Y187300D01*
X822872Y187300D01*
X821939Y187689D01*
X821472Y188467D01*
X821472Y190411D01*
G54D14*
X827383Y193522D02*
X831116Y193522D01*
X830650Y192744D01*
X829716Y191578D01*
X828783Y190022D01*
X828316Y188856D01*
X828316Y187300D01*
G54D14*
X833294Y193522D02*
X837027Y193522D01*
X836561Y192744D01*
X835627Y191578D01*
X834694Y190022D01*
X834227Y188856D01*
X834227Y187300D01*
G54D11*
X839850Y93925D02*
X839850Y186425D01*
X804850Y186425D01*
X804850Y93925D01*
X839850Y93925D01*
G54D17*
X727100Y149200D02*
X727100Y181200D01*
G54D17*
X727100Y149200D02*
X755100Y149200D01*
G54D17*
X755100Y149200D02*
X755100Y174200D01*
X748100Y181200D01*
X727100Y181200D01*
G54D17*
X739800Y149200D02*
X739800Y179200D01*
G54D17*
X746150Y168250D02*
X736150Y168250D01*
G54D17*
X739800Y168250D02*
X735800Y164250D01*
X743800Y164250D01*
X739800Y168250D01*
G54D11*
X703367Y150178D02*
X703367Y181378D01*
X718967Y181378D01*
X718968Y150178D01*
X703367Y150178D01*
G54D14*
X710511Y161900D02*
X708178Y164233D01*
X714400Y164233D01*
G54D14*
X714400Y166411D02*
X708178Y166411D01*
G54D14*
X712456Y166411D02*
X708178Y170144D01*
G54D14*
X711289Y167811D02*
X714400Y170144D01*
G54D11*
X790756Y106150D02*
X790756Y150650D01*
X778056Y150650D01*
X778056Y106150D01*
X790756Y106150D01*
G54D12*
X790756Y137900D02*
X778056Y137900D01*
G54D13*
X780231Y123700D02*
X789120Y123700D01*
X789120Y127033D01*
X788564Y128367D01*
X787453Y129033D01*
X781898Y129033D01*
X780787Y128367D01*
X780231Y127033D01*
X780231Y123700D01*
M02*
