%FSLAX34Y34*%
%MOMM*%
%LNSILK_TOP*%
G71*
G01*
%ADD10C, 2.70*%
%ADD11C, 1.00*%
%ADD12C, 0.60*%
%LPD*%
G36*
X42850Y804875D02*
X77850Y804875D01*
X77850Y769875D01*
X42850Y769875D01*
X42850Y804875D01*
G37*
G36*
X42850Y969975D02*
X77850Y969975D01*
X77850Y934975D01*
X42850Y934975D01*
X42850Y969975D01*
G37*
G36*
X42850Y887425D02*
X77850Y887425D01*
X77850Y852425D01*
X42850Y852425D01*
X42850Y887425D01*
G37*
G36*
X392100Y804875D02*
X427100Y804875D01*
X427100Y769875D01*
X392100Y769875D01*
X392100Y804875D01*
G37*
G36*
X392100Y887425D02*
X427100Y887425D01*
X427100Y852425D01*
X392100Y852425D01*
X392100Y887425D01*
G37*
G36*
X392100Y969975D02*
X427100Y969975D01*
X427100Y934975D01*
X392100Y934975D01*
X392100Y969975D01*
G37*
X352450Y914375D02*
G54D10*
D03*
X352450Y884375D02*
G54D10*
D03*
X352450Y854375D02*
G54D10*
D03*
X206400Y914375D02*
G54D11*
D03*
X158775Y888975D02*
G54D11*
D03*
G54D12*
X158775Y888975D02*
X190525Y888975D01*
X206400Y904850D01*
X206400Y914375D01*
X12725Y977875D02*
G54D11*
D03*
X12725Y758800D02*
G54D11*
D03*
X12725Y869925D02*
G54D11*
D03*
X450875Y869925D02*
G54D11*
D03*
X450875Y977875D02*
G54D11*
D03*
X450875Y758800D02*
G54D11*
D03*
G36*
X92100Y873100D02*
X330225Y873100D01*
X330225Y752450D01*
X92100Y752450D01*
X92100Y873100D01*
G37*
G54D12*
X92100Y873100D02*
X330225Y873100D01*
X330225Y752450D01*
X92100Y752450D01*
X92100Y873100D01*
G36*
X9550Y981050D02*
X31775Y981050D01*
X31775Y752450D01*
X9550Y752450D01*
X9550Y981050D01*
G37*
G54D12*
X9550Y981050D02*
X31775Y981050D01*
X31775Y752450D01*
X9550Y752450D01*
X9550Y981050D01*
G36*
X438175Y752450D02*
X460400Y752450D01*
X460400Y984225D01*
X438175Y984225D01*
X438175Y752450D01*
G37*
G54D12*
X438175Y752450D02*
X460400Y752450D01*
X460400Y984225D01*
X438175Y984225D01*
X438175Y752450D01*
G54D12*
X31775Y981050D02*
X31775Y984225D01*
X6375Y984225D01*
X6375Y752450D01*
X12725Y752450D01*
X12725Y981050D01*
X15900Y984225D01*
G36*
X31775Y815950D02*
X92100Y815950D01*
X92100Y844525D01*
X92100Y841350D01*
X31775Y841350D01*
X31775Y815950D01*
G37*
G54D12*
X31775Y815950D02*
X92100Y815950D01*
X92100Y844525D01*
X92100Y841350D01*
X31775Y841350D01*
X31775Y815950D01*
G36*
X31775Y898500D02*
X92100Y898500D01*
X92100Y873100D01*
X149250Y873100D01*
X149250Y923900D01*
X31775Y923900D01*
X31775Y898500D01*
G37*
G54D12*
X31775Y898500D02*
X92100Y898500D01*
X92100Y873100D01*
X149250Y873100D01*
X149250Y923900D01*
X31775Y923900D01*
X31775Y898500D01*
G36*
X88925Y838175D02*
X88925Y908025D01*
X92100Y911200D01*
X88925Y838175D01*
G37*
G54D12*
X88925Y838175D02*
X88925Y908025D01*
X92100Y911200D01*
X88925Y838175D01*
G54D12*
X88925Y819125D02*
X88925Y752450D01*
X31775Y752450D01*
X31775Y761975D01*
X31775Y758800D01*
X95275Y758800D01*
X98450Y755625D01*
X31775Y755625D01*
G54D12*
X441350Y981050D02*
X34950Y981050D01*
X31775Y984225D01*
X438175Y984225D01*
X438175Y752450D01*
X323875Y752450D01*
X330225Y758800D01*
X441350Y758800D01*
X444525Y761975D01*
X444525Y758800D01*
X441350Y755625D01*
X308000Y755625D01*
X304825Y752450D01*
G54D12*
X441350Y815950D02*
X381025Y815950D01*
X381025Y758800D01*
X377850Y755625D01*
X377850Y923900D01*
X441350Y923900D01*
X444525Y920725D01*
X444525Y898500D01*
X441350Y895325D01*
X438175Y898500D01*
X377850Y898500D01*
X381025Y898500D01*
X381025Y841350D01*
X444525Y841350D01*
X447700Y838175D01*
G54D12*
X60350Y952475D02*
X409600Y952475D01*
X409600Y955650D01*
X60350Y955650D01*
X60350Y949300D01*
X409600Y949300D01*
G36*
X377850Y841350D02*
X438175Y841350D01*
X438175Y815950D01*
X377850Y815950D01*
X377850Y841350D01*
G37*
G54D12*
X377850Y841350D02*
X438175Y841350D01*
X438175Y815950D01*
X377850Y815950D01*
X377850Y841350D01*
G36*
X377850Y898500D02*
X438175Y898500D01*
X438175Y923900D01*
X377850Y923900D01*
X377850Y898500D01*
G37*
G54D12*
X377850Y898500D02*
X438175Y898500D01*
X438175Y923900D01*
X377850Y923900D01*
X377850Y898500D01*
G54D12*
X330225Y831825D02*
X377850Y831825D01*
X377850Y761975D01*
X330225Y761975D01*
X330225Y831825D01*
X336575Y831825D01*
G36*
X330225Y831825D02*
X377850Y831825D01*
X377850Y765150D01*
X330225Y765150D01*
X330225Y831825D01*
G37*
G54D12*
X330225Y831825D02*
X377850Y831825D01*
X377850Y765150D01*
X330225Y765150D01*
X330225Y831825D01*
G36*
X381025Y831825D02*
X374675Y831825D01*
X374675Y936600D01*
X381025Y936600D01*
X381025Y831825D01*
G37*
G54D12*
X381025Y831825D02*
X374675Y831825D01*
X374675Y936600D01*
X381025Y936600D01*
X381025Y831825D01*
G36*
X88925Y895325D02*
X149250Y895325D01*
X149250Y936600D01*
X88925Y936600D01*
X88925Y895325D01*
G37*
G54D12*
X88925Y895325D02*
X149250Y895325D01*
X149250Y936600D01*
X88925Y936600D01*
X88925Y895325D01*
G36*
X88925Y981050D02*
X381025Y981050D01*
X381025Y968350D01*
X88925Y968350D01*
X88925Y981050D01*
G37*
G54D12*
X88925Y981050D02*
X381025Y981050D01*
X381025Y968350D01*
X88925Y968350D01*
X88925Y981050D01*
G36*
X330225Y854050D02*
X222275Y854050D01*
X222275Y936600D01*
X330225Y936600D01*
X330225Y854050D01*
G37*
G54D12*
X330225Y854050D02*
X222275Y854050D01*
X222275Y936600D01*
X330225Y936600D01*
X330225Y854050D01*
G36*
X149250Y936600D02*
X184175Y936600D01*
X184175Y901675D01*
X149250Y901675D01*
X149250Y936600D01*
G37*
G54D12*
X149250Y936600D02*
X184175Y936600D01*
X184175Y901675D01*
X149250Y901675D01*
X149250Y936600D01*
G54D12*
X149250Y895325D02*
X161950Y908025D01*
X177825Y908025D01*
X184175Y901675D01*
X187350Y901675D01*
X193700Y908025D01*
X193700Y927075D01*
X193700Y920725D01*
X203225Y930250D01*
X200050Y927075D01*
X212750Y927075D01*
X222275Y917550D01*
X219100Y917550D01*
X219100Y920725D01*
X219100Y901675D01*
X187350Y869925D01*
X161950Y869925D01*
X146075Y885800D01*
X152425Y879450D01*
X152425Y876275D01*
X203225Y876275D01*
X222275Y895325D01*
X219100Y898500D01*
X219100Y895325D01*
X200050Y876275D01*
X215925Y876275D01*
X219100Y879450D01*
X219100Y885800D01*
X212750Y879450D01*
G54D12*
X181000Y936600D02*
X228625Y936600D01*
X228625Y930250D01*
X181000Y930250D01*
X181000Y933425D01*
X225450Y933425D01*
X225450Y927075D01*
X184175Y927075D01*
X187350Y923900D01*
X187350Y908025D01*
X190525Y911200D01*
X190525Y927075D01*
G54D12*
X330225Y936600D02*
X374675Y936600D01*
G54D12*
X377850Y933425D02*
X330225Y933425D01*
G54D12*
X28600Y787375D02*
X92100Y787375D01*
X60350Y787375D01*
X60350Y755625D01*
X60350Y822300D01*
X60350Y787375D01*
X447700Y787375D01*
X409600Y787375D01*
X409600Y819125D01*
X403250Y825475D01*
X409600Y819125D01*
X409600Y755625D01*
X219100Y892150D02*
G54D11*
D03*
X257200Y869925D02*
G54D11*
D03*
X244500Y981050D02*
G54D11*
D03*
X244500Y755625D02*
G54D11*
D03*
G36*
X42850Y557225D02*
X77850Y557225D01*
X77850Y522225D01*
X42850Y522225D01*
X42850Y557225D01*
G37*
G36*
X42850Y722325D02*
X77850Y722325D01*
X77850Y687325D01*
X42850Y687325D01*
X42850Y722325D01*
G37*
G36*
X42850Y639775D02*
X77850Y639775D01*
X77850Y604775D01*
X42850Y604775D01*
X42850Y639775D01*
G37*
G36*
X392100Y557225D02*
X427100Y557225D01*
X427100Y522225D01*
X392100Y522225D01*
X392100Y557225D01*
G37*
G36*
X392100Y639775D02*
X427100Y639775D01*
X427100Y604775D01*
X392100Y604775D01*
X392100Y639775D01*
G37*
G36*
X392100Y722325D02*
X427100Y722325D01*
X427100Y687325D01*
X392100Y687325D01*
X392100Y722325D01*
G37*
X352450Y666725D02*
G54D10*
D03*
X352450Y636725D02*
G54D10*
D03*
X352450Y606725D02*
G54D10*
D03*
X206400Y666725D02*
G54D11*
D03*
X158775Y641325D02*
G54D11*
D03*
G54D12*
X158775Y641325D02*
X190525Y641325D01*
X206400Y657200D01*
X206400Y666725D01*
X12725Y730225D02*
G54D11*
D03*
X12725Y511150D02*
G54D11*
D03*
X12725Y622275D02*
G54D11*
D03*
X450875Y622275D02*
G54D11*
D03*
X450875Y730225D02*
G54D11*
D03*
X450875Y511150D02*
G54D11*
D03*
G36*
X92100Y625450D02*
X330225Y625450D01*
X330225Y504800D01*
X92100Y504800D01*
X92100Y625450D01*
G37*
G54D12*
X92100Y625450D02*
X330225Y625450D01*
X330225Y504800D01*
X92100Y504800D01*
X92100Y625450D01*
G36*
X9550Y733400D02*
X31775Y733400D01*
X31775Y504800D01*
X9550Y504800D01*
X9550Y733400D01*
G37*
G54D12*
X9550Y733400D02*
X31775Y733400D01*
X31775Y504800D01*
X9550Y504800D01*
X9550Y733400D01*
G36*
X438175Y504800D02*
X460400Y504800D01*
X460400Y736575D01*
X438175Y736575D01*
X438175Y504800D01*
G37*
G54D12*
X438175Y504800D02*
X460400Y504800D01*
X460400Y736575D01*
X438175Y736575D01*
X438175Y504800D01*
G54D12*
X31775Y733400D02*
X31775Y736575D01*
X6375Y736575D01*
X6375Y504800D01*
X12725Y504800D01*
X12725Y733400D01*
X15900Y736575D01*
G36*
X31775Y568300D02*
X92100Y568300D01*
X92100Y596875D01*
X92100Y593700D01*
X31775Y593700D01*
X31775Y568300D01*
G37*
G54D12*
X31775Y568300D02*
X92100Y568300D01*
X92100Y596875D01*
X92100Y593700D01*
X31775Y593700D01*
X31775Y568300D01*
G36*
X31775Y650850D02*
X92100Y650850D01*
X92100Y625450D01*
X149250Y625450D01*
X149250Y676250D01*
X31775Y676250D01*
X31775Y650850D01*
G37*
G54D12*
X31775Y650850D02*
X92100Y650850D01*
X92100Y625450D01*
X149250Y625450D01*
X149250Y676250D01*
X31775Y676250D01*
X31775Y650850D01*
G36*
X88925Y590525D02*
X88925Y660375D01*
X92100Y663550D01*
X88925Y590525D01*
G37*
G54D12*
X88925Y590525D02*
X88925Y660375D01*
X92100Y663550D01*
X88925Y590525D01*
G54D12*
X88925Y571475D02*
X88925Y504800D01*
X31775Y504800D01*
X31775Y514325D01*
X31775Y511150D01*
X95275Y511150D01*
X98450Y507975D01*
X31775Y507975D01*
G54D12*
X441350Y733400D02*
X34950Y733400D01*
X31775Y736575D01*
X438175Y736575D01*
X438175Y504800D01*
X323875Y504800D01*
X330225Y511150D01*
X441350Y511150D01*
X444525Y514325D01*
X444525Y511150D01*
X441350Y507975D01*
X308000Y507975D01*
X304825Y504800D01*
G54D12*
X441350Y568300D02*
X381025Y568300D01*
X381025Y511150D01*
X377850Y507975D01*
X377850Y676250D01*
X441350Y676250D01*
X444525Y673075D01*
X444525Y650850D01*
X441350Y647675D01*
X438175Y650850D01*
X377850Y650850D01*
X381025Y650850D01*
X381025Y593700D01*
X444525Y593700D01*
X447700Y590525D01*
G54D12*
X60350Y704825D02*
X409600Y704825D01*
X409600Y708000D01*
X60350Y708000D01*
X60350Y701650D01*
X409600Y701650D01*
G36*
X377850Y593700D02*
X438175Y593700D01*
X438175Y568300D01*
X377850Y568300D01*
X377850Y593700D01*
G37*
G54D12*
X377850Y593700D02*
X438175Y593700D01*
X438175Y568300D01*
X377850Y568300D01*
X377850Y593700D01*
G36*
X377850Y650850D02*
X438175Y650850D01*
X438175Y676250D01*
X377850Y676250D01*
X377850Y650850D01*
G37*
G54D12*
X377850Y650850D02*
X438175Y650850D01*
X438175Y676250D01*
X377850Y676250D01*
X377850Y650850D01*
G54D12*
X330225Y584175D02*
X377850Y584175D01*
X377850Y514325D01*
X330225Y514325D01*
X330225Y584175D01*
X336575Y584175D01*
G36*
X330225Y584175D02*
X377850Y584175D01*
X377850Y517500D01*
X330225Y517500D01*
X330225Y584175D01*
G37*
G54D12*
X330225Y584175D02*
X377850Y584175D01*
X377850Y517500D01*
X330225Y517500D01*
X330225Y584175D01*
G36*
X381025Y584175D02*
X374675Y584175D01*
X374675Y688950D01*
X381025Y688950D01*
X381025Y584175D01*
G37*
G54D12*
X381025Y584175D02*
X374675Y584175D01*
X374675Y688950D01*
X381025Y688950D01*
X381025Y584175D01*
G36*
X88925Y647675D02*
X149250Y647675D01*
X149250Y688950D01*
X88925Y688950D01*
X88925Y647675D01*
G37*
G54D12*
X88925Y647675D02*
X149250Y647675D01*
X149250Y688950D01*
X88925Y688950D01*
X88925Y647675D01*
G36*
X88925Y733400D02*
X381025Y733400D01*
X381025Y720700D01*
X88925Y720700D01*
X88925Y733400D01*
G37*
G54D12*
X88925Y733400D02*
X381025Y733400D01*
X381025Y720700D01*
X88925Y720700D01*
X88925Y733400D01*
G36*
X330225Y606400D02*
X222275Y606400D01*
X222275Y688950D01*
X330225Y688950D01*
X330225Y606400D01*
G37*
G54D12*
X330225Y606400D02*
X222275Y606400D01*
X222275Y688950D01*
X330225Y688950D01*
X330225Y606400D01*
G36*
X149250Y688950D02*
X184175Y688950D01*
X184175Y654025D01*
X149250Y654025D01*
X149250Y688950D01*
G37*
G54D12*
X149250Y688950D02*
X184175Y688950D01*
X184175Y654025D01*
X149250Y654025D01*
X149250Y688950D01*
G54D12*
X149250Y647675D02*
X161950Y660375D01*
X177825Y660375D01*
X184175Y654025D01*
X187350Y654025D01*
X193700Y660375D01*
X193700Y679425D01*
X193700Y673075D01*
X203225Y682600D01*
X200050Y679425D01*
X212750Y679425D01*
X222275Y669900D01*
X219100Y669900D01*
X219100Y673075D01*
X219100Y654025D01*
X187350Y622275D01*
X161950Y622275D01*
X146075Y638150D01*
X152425Y631800D01*
X152425Y628625D01*
X203225Y628625D01*
X222275Y647675D01*
X219100Y650850D01*
X219100Y647675D01*
X200050Y628625D01*
X215925Y628625D01*
X219100Y631800D01*
X219100Y638150D01*
X212750Y631800D01*
G54D12*
X181000Y688950D02*
X228625Y688950D01*
X228625Y682600D01*
X181000Y682600D01*
X181000Y685775D01*
X225450Y685775D01*
X225450Y679425D01*
X184175Y679425D01*
X187350Y676250D01*
X187350Y660375D01*
X190525Y663550D01*
X190525Y679425D01*
G54D12*
X330225Y688950D02*
X374675Y688950D01*
G54D12*
X377850Y685775D02*
X330225Y685775D01*
G54D12*
X28600Y539725D02*
X92100Y539725D01*
X60350Y539725D01*
X60350Y507975D01*
X60350Y574650D01*
X60350Y539725D01*
X447700Y539725D01*
X409600Y539725D01*
X409600Y571475D01*
X403250Y577825D01*
X409600Y571475D01*
X409600Y507975D01*
X219100Y644500D02*
G54D11*
D03*
X257200Y622275D02*
G54D11*
D03*
X244500Y733400D02*
G54D11*
D03*
X244500Y507975D02*
G54D11*
D03*
G36*
X42850Y309575D02*
X77850Y309575D01*
X77850Y274575D01*
X42850Y274575D01*
X42850Y309575D01*
G37*
G36*
X42850Y474675D02*
X77850Y474675D01*
X77850Y439675D01*
X42850Y439675D01*
X42850Y474675D01*
G37*
G36*
X42850Y392125D02*
X77850Y392125D01*
X77850Y357125D01*
X42850Y357125D01*
X42850Y392125D01*
G37*
G36*
X392100Y309575D02*
X427100Y309575D01*
X427100Y274575D01*
X392100Y274575D01*
X392100Y309575D01*
G37*
G36*
X392100Y392125D02*
X427100Y392125D01*
X427100Y357125D01*
X392100Y357125D01*
X392100Y392125D01*
G37*
G36*
X392100Y474675D02*
X427100Y474675D01*
X427100Y439675D01*
X392100Y439675D01*
X392100Y474675D01*
G37*
X352450Y419075D02*
G54D10*
D03*
X352450Y389075D02*
G54D10*
D03*
X352450Y359075D02*
G54D10*
D03*
X206400Y419075D02*
G54D11*
D03*
X158775Y393675D02*
G54D11*
D03*
G54D12*
X158775Y393675D02*
X190525Y393675D01*
X206400Y409550D01*
X206400Y419075D01*
X12725Y482575D02*
G54D11*
D03*
X12725Y263500D02*
G54D11*
D03*
X12725Y374625D02*
G54D11*
D03*
X450875Y374625D02*
G54D11*
D03*
X450875Y482575D02*
G54D11*
D03*
X450875Y263500D02*
G54D11*
D03*
G36*
X92100Y377800D02*
X330225Y377800D01*
X330225Y257150D01*
X92100Y257150D01*
X92100Y377800D01*
G37*
G54D12*
X92100Y377800D02*
X330225Y377800D01*
X330225Y257150D01*
X92100Y257150D01*
X92100Y377800D01*
G36*
X9550Y485750D02*
X31775Y485750D01*
X31775Y257150D01*
X9550Y257150D01*
X9550Y485750D01*
G37*
G54D12*
X9550Y485750D02*
X31775Y485750D01*
X31775Y257150D01*
X9550Y257150D01*
X9550Y485750D01*
G36*
X438175Y257150D02*
X460400Y257150D01*
X460400Y488925D01*
X438175Y488925D01*
X438175Y257150D01*
G37*
G54D12*
X438175Y257150D02*
X460400Y257150D01*
X460400Y488925D01*
X438175Y488925D01*
X438175Y257150D01*
G54D12*
X31775Y485750D02*
X31775Y488925D01*
X6375Y488925D01*
X6375Y257150D01*
X12725Y257150D01*
X12725Y485750D01*
X15900Y488925D01*
G36*
X31775Y320650D02*
X92100Y320650D01*
X92100Y349225D01*
X92100Y346050D01*
X31775Y346050D01*
X31775Y320650D01*
G37*
G54D12*
X31775Y320650D02*
X92100Y320650D01*
X92100Y349225D01*
X92100Y346050D01*
X31775Y346050D01*
X31775Y320650D01*
G36*
X31775Y403200D02*
X92100Y403200D01*
X92100Y377800D01*
X149250Y377800D01*
X149250Y428600D01*
X31775Y428600D01*
X31775Y403200D01*
G37*
G54D12*
X31775Y403200D02*
X92100Y403200D01*
X92100Y377800D01*
X149250Y377800D01*
X149250Y428600D01*
X31775Y428600D01*
X31775Y403200D01*
G36*
X88925Y342875D02*
X88925Y412725D01*
X92100Y415900D01*
X88925Y342875D01*
G37*
G54D12*
X88925Y342875D02*
X88925Y412725D01*
X92100Y415900D01*
X88925Y342875D01*
G54D12*
X88925Y323825D02*
X88925Y257150D01*
X31775Y257150D01*
X31775Y266675D01*
X31775Y263500D01*
X95275Y263500D01*
X98450Y260325D01*
X31775Y260325D01*
G54D12*
X441350Y485750D02*
X34950Y485750D01*
X31775Y488925D01*
X438175Y488925D01*
X438175Y257150D01*
X323875Y257150D01*
X330225Y263500D01*
X441350Y263500D01*
X444525Y266675D01*
X444525Y263500D01*
X441350Y260325D01*
X308000Y260325D01*
X304825Y257150D01*
G54D12*
X441350Y320650D02*
X381025Y320650D01*
X381025Y263500D01*
X377850Y260325D01*
X377850Y428600D01*
X441350Y428600D01*
X444525Y425425D01*
X444525Y403200D01*
X441350Y400025D01*
X438175Y403200D01*
X377850Y403200D01*
X381025Y403200D01*
X381025Y346050D01*
X444525Y346050D01*
X447700Y342875D01*
G54D12*
X60350Y457175D02*
X409600Y457175D01*
X409600Y460350D01*
X60350Y460350D01*
X60350Y454000D01*
X409600Y454000D01*
G36*
X377850Y346050D02*
X438175Y346050D01*
X438175Y320650D01*
X377850Y320650D01*
X377850Y346050D01*
G37*
G54D12*
X377850Y346050D02*
X438175Y346050D01*
X438175Y320650D01*
X377850Y320650D01*
X377850Y346050D01*
G36*
X377850Y403200D02*
X438175Y403200D01*
X438175Y428600D01*
X377850Y428600D01*
X377850Y403200D01*
G37*
G54D12*
X377850Y403200D02*
X438175Y403200D01*
X438175Y428600D01*
X377850Y428600D01*
X377850Y403200D01*
G54D12*
X330225Y336525D02*
X377850Y336525D01*
X377850Y266675D01*
X330225Y266675D01*
X330225Y336525D01*
X336575Y336525D01*
G36*
X330225Y336525D02*
X377850Y336525D01*
X377850Y269850D01*
X330225Y269850D01*
X330225Y336525D01*
G37*
G54D12*
X330225Y336525D02*
X377850Y336525D01*
X377850Y269850D01*
X330225Y269850D01*
X330225Y336525D01*
G36*
X381025Y336525D02*
X374675Y336525D01*
X374675Y441300D01*
X381025Y441300D01*
X381025Y336525D01*
G37*
G54D12*
X381025Y336525D02*
X374675Y336525D01*
X374675Y441300D01*
X381025Y441300D01*
X381025Y336525D01*
G36*
X88925Y400025D02*
X149250Y400025D01*
X149250Y441300D01*
X88925Y441300D01*
X88925Y400025D01*
G37*
G54D12*
X88925Y400025D02*
X149250Y400025D01*
X149250Y441300D01*
X88925Y441300D01*
X88925Y400025D01*
G36*
X88925Y485750D02*
X381025Y485750D01*
X381025Y473050D01*
X88925Y473050D01*
X88925Y485750D01*
G37*
G54D12*
X88925Y485750D02*
X381025Y485750D01*
X381025Y473050D01*
X88925Y473050D01*
X88925Y485750D01*
G36*
X330225Y358750D02*
X222275Y358750D01*
X222275Y441300D01*
X330225Y441300D01*
X330225Y358750D01*
G37*
G54D12*
X330225Y358750D02*
X222275Y358750D01*
X222275Y441300D01*
X330225Y441300D01*
X330225Y358750D01*
G36*
X149250Y441300D02*
X184175Y441300D01*
X184175Y406375D01*
X149250Y406375D01*
X149250Y441300D01*
G37*
G54D12*
X149250Y441300D02*
X184175Y441300D01*
X184175Y406375D01*
X149250Y406375D01*
X149250Y441300D01*
G54D12*
X149250Y400025D02*
X161950Y412725D01*
X177825Y412725D01*
X184175Y406375D01*
X187350Y406375D01*
X193700Y412725D01*
X193700Y431775D01*
X193700Y425425D01*
X203225Y434950D01*
X200050Y431775D01*
X212750Y431775D01*
X222275Y422250D01*
X219100Y422250D01*
X219100Y425425D01*
X219100Y406375D01*
X187350Y374625D01*
X161950Y374625D01*
X146075Y390500D01*
X152425Y384150D01*
X152425Y380975D01*
X203225Y380975D01*
X222275Y400025D01*
X219100Y403200D01*
X219100Y400025D01*
X200050Y380975D01*
X215925Y380975D01*
X219100Y384150D01*
X219100Y390500D01*
X212750Y384150D01*
G54D12*
X181000Y441300D02*
X228625Y441300D01*
X228625Y434950D01*
X181000Y434950D01*
X181000Y438125D01*
X225450Y438125D01*
X225450Y431775D01*
X184175Y431775D01*
X187350Y428600D01*
X187350Y412725D01*
X190525Y415900D01*
X190525Y431775D01*
G54D12*
X330225Y441300D02*
X374675Y441300D01*
G54D12*
X377850Y438125D02*
X330225Y438125D01*
G54D12*
X28600Y292075D02*
X92100Y292075D01*
X60350Y292075D01*
X60350Y260325D01*
X60350Y327000D01*
X60350Y292075D01*
X447700Y292075D01*
X409600Y292075D01*
X409600Y323825D01*
X403250Y330175D01*
X409600Y323825D01*
X409600Y260325D01*
X219100Y396850D02*
G54D11*
D03*
X257200Y374625D02*
G54D11*
D03*
X244500Y485750D02*
G54D11*
D03*
X244500Y260325D02*
G54D11*
D03*
G36*
X42850Y61925D02*
X77850Y61925D01*
X77850Y26925D01*
X42850Y26925D01*
X42850Y61925D01*
G37*
G36*
X42850Y227025D02*
X77850Y227025D01*
X77850Y192025D01*
X42850Y192025D01*
X42850Y227025D01*
G37*
G36*
X42850Y144475D02*
X77850Y144475D01*
X77850Y109475D01*
X42850Y109475D01*
X42850Y144475D01*
G37*
G36*
X392100Y61925D02*
X427100Y61925D01*
X427100Y26925D01*
X392100Y26925D01*
X392100Y61925D01*
G37*
G36*
X392100Y144475D02*
X427100Y144475D01*
X427100Y109475D01*
X392100Y109475D01*
X392100Y144475D01*
G37*
G36*
X392100Y227025D02*
X427100Y227025D01*
X427100Y192025D01*
X392100Y192025D01*
X392100Y227025D01*
G37*
X352450Y171425D02*
G54D10*
D03*
X352450Y141425D02*
G54D10*
D03*
X352450Y111425D02*
G54D10*
D03*
X206400Y171425D02*
G54D11*
D03*
X158775Y146025D02*
G54D11*
D03*
G54D12*
X158775Y146025D02*
X190525Y146025D01*
X206400Y161900D01*
X206400Y171425D01*
X12725Y234925D02*
G54D11*
D03*
X12725Y15850D02*
G54D11*
D03*
X12725Y126975D02*
G54D11*
D03*
X450875Y126975D02*
G54D11*
D03*
X450875Y234925D02*
G54D11*
D03*
X450875Y15850D02*
G54D11*
D03*
G36*
X92100Y130150D02*
X330225Y130150D01*
X330225Y9500D01*
X92100Y9500D01*
X92100Y130150D01*
G37*
G54D12*
X92100Y130150D02*
X330225Y130150D01*
X330225Y9500D01*
X92100Y9500D01*
X92100Y130150D01*
G36*
X9550Y238100D02*
X31775Y238100D01*
X31775Y9500D01*
X9550Y9500D01*
X9550Y238100D01*
G37*
G54D12*
X9550Y238100D02*
X31775Y238100D01*
X31775Y9500D01*
X9550Y9500D01*
X9550Y238100D01*
G36*
X438175Y9500D02*
X460400Y9500D01*
X460400Y241275D01*
X438175Y241275D01*
X438175Y9500D01*
G37*
G54D12*
X438175Y9500D02*
X460400Y9500D01*
X460400Y241275D01*
X438175Y241275D01*
X438175Y9500D01*
G54D12*
X31775Y238100D02*
X31775Y241275D01*
X6375Y241275D01*
X6375Y9500D01*
X12725Y9500D01*
X12725Y238100D01*
X15900Y241275D01*
G36*
X31775Y73000D02*
X92100Y73000D01*
X92100Y101575D01*
X92100Y98400D01*
X31775Y98400D01*
X31775Y73000D01*
G37*
G54D12*
X31775Y73000D02*
X92100Y73000D01*
X92100Y101575D01*
X92100Y98400D01*
X31775Y98400D01*
X31775Y73000D01*
G36*
X31775Y155550D02*
X92100Y155550D01*
X92100Y130150D01*
X149250Y130150D01*
X149250Y180950D01*
X31775Y180950D01*
X31775Y155550D01*
G37*
G54D12*
X31775Y155550D02*
X92100Y155550D01*
X92100Y130150D01*
X149250Y130150D01*
X149250Y180950D01*
X31775Y180950D01*
X31775Y155550D01*
G36*
X88925Y95225D02*
X88925Y165075D01*
X92100Y168250D01*
X88925Y95225D01*
G37*
G54D12*
X88925Y95225D02*
X88925Y165075D01*
X92100Y168250D01*
X88925Y95225D01*
G54D12*
X88925Y76175D02*
X88925Y9500D01*
X31775Y9500D01*
X31775Y19025D01*
X31775Y15850D01*
X95275Y15850D01*
X98450Y12675D01*
X31775Y12675D01*
G54D12*
X441350Y238100D02*
X34950Y238100D01*
X31775Y241275D01*
X438175Y241275D01*
X438175Y9500D01*
X323875Y9500D01*
X330225Y15850D01*
X441350Y15850D01*
X444525Y19025D01*
X444525Y15850D01*
X441350Y12675D01*
X308000Y12675D01*
X304825Y9500D01*
G54D12*
X441350Y73000D02*
X381025Y73000D01*
X381025Y15850D01*
X377850Y12675D01*
X377850Y180950D01*
X441350Y180950D01*
X444525Y177775D01*
X444525Y155550D01*
X441350Y152375D01*
X438175Y155550D01*
X377850Y155550D01*
X381025Y155550D01*
X381025Y98400D01*
X444525Y98400D01*
X447700Y95225D01*
G54D12*
X60350Y209525D02*
X409600Y209525D01*
X409600Y212700D01*
X60350Y212700D01*
X60350Y206350D01*
X409600Y206350D01*
G36*
X377850Y98400D02*
X438175Y98400D01*
X438175Y73000D01*
X377850Y73000D01*
X377850Y98400D01*
G37*
G54D12*
X377850Y98400D02*
X438175Y98400D01*
X438175Y73000D01*
X377850Y73000D01*
X377850Y98400D01*
G36*
X377850Y155550D02*
X438175Y155550D01*
X438175Y180950D01*
X377850Y180950D01*
X377850Y155550D01*
G37*
G54D12*
X377850Y155550D02*
X438175Y155550D01*
X438175Y180950D01*
X377850Y180950D01*
X377850Y155550D01*
G54D12*
X330225Y88875D02*
X377850Y88875D01*
X377850Y19025D01*
X330225Y19025D01*
X330225Y88875D01*
X336575Y88875D01*
G36*
X330225Y88875D02*
X377850Y88875D01*
X377850Y22200D01*
X330225Y22200D01*
X330225Y88875D01*
G37*
G54D12*
X330225Y88875D02*
X377850Y88875D01*
X377850Y22200D01*
X330225Y22200D01*
X330225Y88875D01*
G36*
X381025Y88875D02*
X374675Y88875D01*
X374675Y193650D01*
X381025Y193650D01*
X381025Y88875D01*
G37*
G54D12*
X381025Y88875D02*
X374675Y88875D01*
X374675Y193650D01*
X381025Y193650D01*
X381025Y88875D01*
G36*
X88925Y152375D02*
X149250Y152375D01*
X149250Y193650D01*
X88925Y193650D01*
X88925Y152375D01*
G37*
G54D12*
X88925Y152375D02*
X149250Y152375D01*
X149250Y193650D01*
X88925Y193650D01*
X88925Y152375D01*
G36*
X88925Y238100D02*
X381025Y238100D01*
X381025Y225400D01*
X88925Y225400D01*
X88925Y238100D01*
G37*
G54D12*
X88925Y238100D02*
X381025Y238100D01*
X381025Y225400D01*
X88925Y225400D01*
X88925Y238100D01*
G36*
X330225Y111100D02*
X222275Y111100D01*
X222275Y193650D01*
X330225Y193650D01*
X330225Y111100D01*
G37*
G54D12*
X330225Y111100D02*
X222275Y111100D01*
X222275Y193650D01*
X330225Y193650D01*
X330225Y111100D01*
G36*
X149250Y193650D02*
X184175Y193650D01*
X184175Y158725D01*
X149250Y158725D01*
X149250Y193650D01*
G37*
G54D12*
X149250Y193650D02*
X184175Y193650D01*
X184175Y158725D01*
X149250Y158725D01*
X149250Y193650D01*
G54D12*
X149250Y152375D02*
X161950Y165075D01*
X177825Y165075D01*
X184175Y158725D01*
X187350Y158725D01*
X193700Y165075D01*
X193700Y184125D01*
X193700Y177775D01*
X203225Y187300D01*
X200050Y184125D01*
X212750Y184125D01*
X222275Y174600D01*
X219100Y174600D01*
X219100Y177775D01*
X219100Y158725D01*
X187350Y126975D01*
X161950Y126975D01*
X146075Y142850D01*
X152425Y136500D01*
X152425Y133325D01*
X203225Y133325D01*
X222275Y152375D01*
X219100Y155550D01*
X219100Y152375D01*
X200050Y133325D01*
X215925Y133325D01*
X219100Y136500D01*
X219100Y142850D01*
X212750Y136500D01*
G54D12*
X181000Y193650D02*
X228625Y193650D01*
X228625Y187300D01*
X181000Y187300D01*
X181000Y190475D01*
X225450Y190475D01*
X225450Y184125D01*
X184175Y184125D01*
X187350Y180950D01*
X187350Y165075D01*
X190525Y168250D01*
X190525Y184125D01*
G54D12*
X330225Y193650D02*
X374675Y193650D01*
G54D12*
X377850Y190475D02*
X330225Y190475D01*
G54D12*
X28600Y44425D02*
X92100Y44425D01*
X60350Y44425D01*
X60350Y12675D01*
X60350Y79350D01*
X60350Y44425D01*
X447700Y44425D01*
X409600Y44425D01*
X409600Y76175D01*
X403250Y82525D01*
X409600Y76175D01*
X409600Y12675D01*
X219100Y149200D02*
G54D11*
D03*
X257200Y126975D02*
G54D11*
D03*
X244500Y238100D02*
G54D11*
D03*
X244500Y12675D02*
G54D11*
D03*
G36*
X512750Y804875D02*
X547750Y804875D01*
X547750Y769875D01*
X512750Y769875D01*
X512750Y804875D01*
G37*
G36*
X512750Y969975D02*
X547750Y969975D01*
X547750Y934975D01*
X512750Y934975D01*
X512750Y969975D01*
G37*
G36*
X512750Y887425D02*
X547750Y887425D01*
X547750Y852425D01*
X512750Y852425D01*
X512750Y887425D01*
G37*
G36*
X862000Y804875D02*
X897000Y804875D01*
X897000Y769875D01*
X862000Y769875D01*
X862000Y804875D01*
G37*
G36*
X862000Y887425D02*
X897000Y887425D01*
X897000Y852425D01*
X862000Y852425D01*
X862000Y887425D01*
G37*
G36*
X862000Y969975D02*
X897000Y969975D01*
X897000Y934975D01*
X862000Y934975D01*
X862000Y969975D01*
G37*
X822350Y914375D02*
G54D10*
D03*
X822350Y884375D02*
G54D10*
D03*
X822350Y854375D02*
G54D10*
D03*
X676300Y914375D02*
G54D11*
D03*
X628675Y888975D02*
G54D11*
D03*
G54D12*
X628675Y888975D02*
X660425Y888975D01*
X676300Y904850D01*
X676300Y914375D01*
X482625Y977875D02*
G54D11*
D03*
X482625Y758800D02*
G54D11*
D03*
X482625Y869925D02*
G54D11*
D03*
X920775Y869925D02*
G54D11*
D03*
X920775Y977875D02*
G54D11*
D03*
X920775Y758800D02*
G54D11*
D03*
G36*
X562000Y873100D02*
X800125Y873100D01*
X800125Y752450D01*
X562000Y752450D01*
X562000Y873100D01*
G37*
G54D12*
X562000Y873100D02*
X800125Y873100D01*
X800125Y752450D01*
X562000Y752450D01*
X562000Y873100D01*
G36*
X479450Y981050D02*
X501675Y981050D01*
X501675Y752450D01*
X479450Y752450D01*
X479450Y981050D01*
G37*
G54D12*
X479450Y981050D02*
X501675Y981050D01*
X501675Y752450D01*
X479450Y752450D01*
X479450Y981050D01*
G36*
X908075Y752450D02*
X930300Y752450D01*
X930300Y984225D01*
X908075Y984225D01*
X908075Y752450D01*
G37*
G54D12*
X908075Y752450D02*
X930300Y752450D01*
X930300Y984225D01*
X908075Y984225D01*
X908075Y752450D01*
G54D12*
X501675Y981050D02*
X501675Y984225D01*
X476275Y984225D01*
X476275Y752450D01*
X482625Y752450D01*
X482625Y981050D01*
X485800Y984225D01*
G36*
X501675Y815950D02*
X562000Y815950D01*
X562000Y844525D01*
X562000Y841350D01*
X501675Y841350D01*
X501675Y815950D01*
G37*
G54D12*
X501675Y815950D02*
X562000Y815950D01*
X562000Y844525D01*
X562000Y841350D01*
X501675Y841350D01*
X501675Y815950D01*
G36*
X501675Y898500D02*
X562000Y898500D01*
X562000Y873100D01*
X619150Y873100D01*
X619150Y923900D01*
X501675Y923900D01*
X501675Y898500D01*
G37*
G54D12*
X501675Y898500D02*
X562000Y898500D01*
X562000Y873100D01*
X619150Y873100D01*
X619150Y923900D01*
X501675Y923900D01*
X501675Y898500D01*
G36*
X558825Y838175D02*
X558825Y908025D01*
X562000Y911200D01*
X558825Y838175D01*
G37*
G54D12*
X558825Y838175D02*
X558825Y908025D01*
X562000Y911200D01*
X558825Y838175D01*
G54D12*
X558825Y819125D02*
X558825Y752450D01*
X501675Y752450D01*
X501675Y761975D01*
X501675Y758800D01*
X565175Y758800D01*
X568350Y755625D01*
X501675Y755625D01*
G54D12*
X911250Y981050D02*
X504850Y981050D01*
X501675Y984225D01*
X908075Y984225D01*
X908075Y752450D01*
X793775Y752450D01*
X800125Y758800D01*
X911250Y758800D01*
X914425Y761975D01*
X914425Y758800D01*
X911250Y755625D01*
X777900Y755625D01*
X774725Y752450D01*
G54D12*
X911250Y815950D02*
X850925Y815950D01*
X850925Y758800D01*
X847750Y755625D01*
X847750Y923900D01*
X911250Y923900D01*
X914425Y920725D01*
X914425Y898500D01*
X911250Y895325D01*
X908075Y898500D01*
X847750Y898500D01*
X850925Y898500D01*
X850925Y841350D01*
X914425Y841350D01*
X917600Y838175D01*
G54D12*
X530250Y952475D02*
X879500Y952475D01*
X879500Y955650D01*
X530250Y955650D01*
X530250Y949300D01*
X879500Y949300D01*
G36*
X847750Y841350D02*
X908075Y841350D01*
X908075Y815950D01*
X847750Y815950D01*
X847750Y841350D01*
G37*
G54D12*
X847750Y841350D02*
X908075Y841350D01*
X908075Y815950D01*
X847750Y815950D01*
X847750Y841350D01*
G36*
X847750Y898500D02*
X908075Y898500D01*
X908075Y923900D01*
X847750Y923900D01*
X847750Y898500D01*
G37*
G54D12*
X847750Y898500D02*
X908075Y898500D01*
X908075Y923900D01*
X847750Y923900D01*
X847750Y898500D01*
G54D12*
X800125Y831825D02*
X847750Y831825D01*
X847750Y761975D01*
X800125Y761975D01*
X800125Y831825D01*
X806475Y831825D01*
G36*
X800125Y831825D02*
X847750Y831825D01*
X847750Y765150D01*
X800125Y765150D01*
X800125Y831825D01*
G37*
G54D12*
X800125Y831825D02*
X847750Y831825D01*
X847750Y765150D01*
X800125Y765150D01*
X800125Y831825D01*
G36*
X850925Y831825D02*
X844575Y831825D01*
X844575Y936600D01*
X850925Y936600D01*
X850925Y831825D01*
G37*
G54D12*
X850925Y831825D02*
X844575Y831825D01*
X844575Y936600D01*
X850925Y936600D01*
X850925Y831825D01*
G36*
X558825Y895325D02*
X619150Y895325D01*
X619150Y936600D01*
X558825Y936600D01*
X558825Y895325D01*
G37*
G54D12*
X558825Y895325D02*
X619150Y895325D01*
X619150Y936600D01*
X558825Y936600D01*
X558825Y895325D01*
G36*
X558825Y981050D02*
X850925Y981050D01*
X850925Y968350D01*
X558825Y968350D01*
X558825Y981050D01*
G37*
G54D12*
X558825Y981050D02*
X850925Y981050D01*
X850925Y968350D01*
X558825Y968350D01*
X558825Y981050D01*
G36*
X800125Y854050D02*
X692175Y854050D01*
X692175Y936600D01*
X800125Y936600D01*
X800125Y854050D01*
G37*
G54D12*
X800125Y854050D02*
X692175Y854050D01*
X692175Y936600D01*
X800125Y936600D01*
X800125Y854050D01*
G36*
X619150Y936600D02*
X654075Y936600D01*
X654075Y901675D01*
X619150Y901675D01*
X619150Y936600D01*
G37*
G54D12*
X619150Y936600D02*
X654075Y936600D01*
X654075Y901675D01*
X619150Y901675D01*
X619150Y936600D01*
G54D12*
X619150Y895325D02*
X631850Y908025D01*
X647725Y908025D01*
X654075Y901675D01*
X657250Y901675D01*
X663600Y908025D01*
X663600Y927075D01*
X663600Y920725D01*
X673125Y930250D01*
X669950Y927075D01*
X682650Y927075D01*
X692175Y917550D01*
X689000Y917550D01*
X689000Y920725D01*
X689000Y901675D01*
X657250Y869925D01*
X631850Y869925D01*
X615975Y885800D01*
X622325Y879450D01*
X622325Y876275D01*
X673125Y876275D01*
X692175Y895325D01*
X689000Y898500D01*
X689000Y895325D01*
X669950Y876275D01*
X685825Y876275D01*
X689000Y879450D01*
X689000Y885800D01*
X682650Y879450D01*
G54D12*
X650900Y936600D02*
X698525Y936600D01*
X698525Y930250D01*
X650900Y930250D01*
X650900Y933425D01*
X695350Y933425D01*
X695350Y927075D01*
X654075Y927075D01*
X657250Y923900D01*
X657250Y908025D01*
X660425Y911200D01*
X660425Y927075D01*
G54D12*
X800125Y936600D02*
X844575Y936600D01*
G54D12*
X847750Y933425D02*
X800125Y933425D01*
G54D12*
X498500Y787375D02*
X562000Y787375D01*
X530250Y787375D01*
X530250Y755625D01*
X530250Y822300D01*
X530250Y787375D01*
X917600Y787375D01*
X879500Y787375D01*
X879500Y819125D01*
X873150Y825475D01*
X879500Y819125D01*
X879500Y755625D01*
X689000Y892150D02*
G54D11*
D03*
X727100Y869925D02*
G54D11*
D03*
X714400Y981050D02*
G54D11*
D03*
X714400Y755625D02*
G54D11*
D03*
G36*
X512750Y557225D02*
X547750Y557225D01*
X547750Y522225D01*
X512750Y522225D01*
X512750Y557225D01*
G37*
G36*
X512750Y722325D02*
X547750Y722325D01*
X547750Y687325D01*
X512750Y687325D01*
X512750Y722325D01*
G37*
G36*
X512750Y639775D02*
X547750Y639775D01*
X547750Y604775D01*
X512750Y604775D01*
X512750Y639775D01*
G37*
G36*
X862000Y557225D02*
X897000Y557225D01*
X897000Y522225D01*
X862000Y522225D01*
X862000Y557225D01*
G37*
G36*
X862000Y639775D02*
X897000Y639775D01*
X897000Y604775D01*
X862000Y604775D01*
X862000Y639775D01*
G37*
G36*
X862000Y722325D02*
X897000Y722325D01*
X897000Y687325D01*
X862000Y687325D01*
X862000Y722325D01*
G37*
X822350Y666725D02*
G54D10*
D03*
X822350Y636725D02*
G54D10*
D03*
X822350Y606725D02*
G54D10*
D03*
X676300Y666725D02*
G54D11*
D03*
X628675Y641325D02*
G54D11*
D03*
G54D12*
X628675Y641325D02*
X660425Y641325D01*
X676300Y657200D01*
X676300Y666725D01*
X482625Y730225D02*
G54D11*
D03*
X482625Y511150D02*
G54D11*
D03*
X482625Y622275D02*
G54D11*
D03*
X920775Y622275D02*
G54D11*
D03*
X920775Y730225D02*
G54D11*
D03*
X920775Y511150D02*
G54D11*
D03*
G36*
X562000Y625450D02*
X800125Y625450D01*
X800125Y504800D01*
X562000Y504800D01*
X562000Y625450D01*
G37*
G54D12*
X562000Y625450D02*
X800125Y625450D01*
X800125Y504800D01*
X562000Y504800D01*
X562000Y625450D01*
G36*
X479450Y733400D02*
X501675Y733400D01*
X501675Y504800D01*
X479450Y504800D01*
X479450Y733400D01*
G37*
G54D12*
X479450Y733400D02*
X501675Y733400D01*
X501675Y504800D01*
X479450Y504800D01*
X479450Y733400D01*
G36*
X908075Y504800D02*
X930300Y504800D01*
X930300Y736575D01*
X908075Y736575D01*
X908075Y504800D01*
G37*
G54D12*
X908075Y504800D02*
X930300Y504800D01*
X930300Y736575D01*
X908075Y736575D01*
X908075Y504800D01*
G54D12*
X501675Y733400D02*
X501675Y736575D01*
X476275Y736575D01*
X476275Y504800D01*
X482625Y504800D01*
X482625Y733400D01*
X485800Y736575D01*
G36*
X501675Y568300D02*
X562000Y568300D01*
X562000Y596875D01*
X562000Y593700D01*
X501675Y593700D01*
X501675Y568300D01*
G37*
G54D12*
X501675Y568300D02*
X562000Y568300D01*
X562000Y596875D01*
X562000Y593700D01*
X501675Y593700D01*
X501675Y568300D01*
G36*
X501675Y650850D02*
X562000Y650850D01*
X562000Y625450D01*
X619150Y625450D01*
X619150Y676250D01*
X501675Y676250D01*
X501675Y650850D01*
G37*
G54D12*
X501675Y650850D02*
X562000Y650850D01*
X562000Y625450D01*
X619150Y625450D01*
X619150Y676250D01*
X501675Y676250D01*
X501675Y650850D01*
G36*
X558825Y590525D02*
X558825Y660375D01*
X562000Y663550D01*
X558825Y590525D01*
G37*
G54D12*
X558825Y590525D02*
X558825Y660375D01*
X562000Y663550D01*
X558825Y590525D01*
G54D12*
X558825Y571475D02*
X558825Y504800D01*
X501675Y504800D01*
X501675Y514325D01*
X501675Y511150D01*
X565175Y511150D01*
X568350Y507975D01*
X501675Y507975D01*
G54D12*
X911250Y733400D02*
X504850Y733400D01*
X501675Y736575D01*
X908075Y736575D01*
X908075Y504800D01*
X793775Y504800D01*
X800125Y511150D01*
X911250Y511150D01*
X914425Y514325D01*
X914425Y511150D01*
X911250Y507975D01*
X777900Y507975D01*
X774725Y504800D01*
G54D12*
X911250Y568300D02*
X850925Y568300D01*
X850925Y511150D01*
X847750Y507975D01*
X847750Y676250D01*
X911250Y676250D01*
X914425Y673075D01*
X914425Y650850D01*
X911250Y647675D01*
X908075Y650850D01*
X847750Y650850D01*
X850925Y650850D01*
X850925Y593700D01*
X914425Y593700D01*
X917600Y590525D01*
G54D12*
X530250Y704825D02*
X879500Y704825D01*
X879500Y708000D01*
X530250Y708000D01*
X530250Y701650D01*
X879500Y701650D01*
G36*
X847750Y593700D02*
X908075Y593700D01*
X908075Y568300D01*
X847750Y568300D01*
X847750Y593700D01*
G37*
G54D12*
X847750Y593700D02*
X908075Y593700D01*
X908075Y568300D01*
X847750Y568300D01*
X847750Y593700D01*
G36*
X847750Y650850D02*
X908075Y650850D01*
X908075Y676250D01*
X847750Y676250D01*
X847750Y650850D01*
G37*
G54D12*
X847750Y650850D02*
X908075Y650850D01*
X908075Y676250D01*
X847750Y676250D01*
X847750Y650850D01*
G54D12*
X800125Y584175D02*
X847750Y584175D01*
X847750Y514325D01*
X800125Y514325D01*
X800125Y584175D01*
X806475Y584175D01*
G36*
X800125Y584175D02*
X847750Y584175D01*
X847750Y517500D01*
X800125Y517500D01*
X800125Y584175D01*
G37*
G54D12*
X800125Y584175D02*
X847750Y584175D01*
X847750Y517500D01*
X800125Y517500D01*
X800125Y584175D01*
G36*
X850925Y584175D02*
X844575Y584175D01*
X844575Y688950D01*
X850925Y688950D01*
X850925Y584175D01*
G37*
G54D12*
X850925Y584175D02*
X844575Y584175D01*
X844575Y688950D01*
X850925Y688950D01*
X850925Y584175D01*
G36*
X558825Y647675D02*
X619150Y647675D01*
X619150Y688950D01*
X558825Y688950D01*
X558825Y647675D01*
G37*
G54D12*
X558825Y647675D02*
X619150Y647675D01*
X619150Y688950D01*
X558825Y688950D01*
X558825Y647675D01*
G36*
X558825Y733400D02*
X850925Y733400D01*
X850925Y720700D01*
X558825Y720700D01*
X558825Y733400D01*
G37*
G54D12*
X558825Y733400D02*
X850925Y733400D01*
X850925Y720700D01*
X558825Y720700D01*
X558825Y733400D01*
G36*
X800125Y606400D02*
X692175Y606400D01*
X692175Y688950D01*
X800125Y688950D01*
X800125Y606400D01*
G37*
G54D12*
X800125Y606400D02*
X692175Y606400D01*
X692175Y688950D01*
X800125Y688950D01*
X800125Y606400D01*
G36*
X619150Y688950D02*
X654075Y688950D01*
X654075Y654025D01*
X619150Y654025D01*
X619150Y688950D01*
G37*
G54D12*
X619150Y688950D02*
X654075Y688950D01*
X654075Y654025D01*
X619150Y654025D01*
X619150Y688950D01*
G54D12*
X619150Y647675D02*
X631850Y660375D01*
X647725Y660375D01*
X654075Y654025D01*
X657250Y654025D01*
X663600Y660375D01*
X663600Y679425D01*
X663600Y673075D01*
X673125Y682600D01*
X669950Y679425D01*
X682650Y679425D01*
X692175Y669900D01*
X689000Y669900D01*
X689000Y673075D01*
X689000Y654025D01*
X657250Y622275D01*
X631850Y622275D01*
X615975Y638150D01*
X622325Y631800D01*
X622325Y628625D01*
X673125Y628625D01*
X692175Y647675D01*
X689000Y650850D01*
X689000Y647675D01*
X669950Y628625D01*
X685825Y628625D01*
X689000Y631800D01*
X689000Y638150D01*
X682650Y631800D01*
G54D12*
X650900Y688950D02*
X698525Y688950D01*
X698525Y682600D01*
X650900Y682600D01*
X650900Y685775D01*
X695350Y685775D01*
X695350Y679425D01*
X654075Y679425D01*
X657250Y676250D01*
X657250Y660375D01*
X660425Y663550D01*
X660425Y679425D01*
G54D12*
X800125Y688950D02*
X844575Y688950D01*
G54D12*
X847750Y685775D02*
X800125Y685775D01*
G54D12*
X498500Y539725D02*
X562000Y539725D01*
X530250Y539725D01*
X530250Y507975D01*
X530250Y574650D01*
X530250Y539725D01*
X917600Y539725D01*
X879500Y539725D01*
X879500Y571475D01*
X873150Y577825D01*
X879500Y571475D01*
X879500Y507975D01*
X689000Y644500D02*
G54D11*
D03*
X727100Y622275D02*
G54D11*
D03*
X714400Y733400D02*
G54D11*
D03*
X714400Y507975D02*
G54D11*
D03*
G36*
X512750Y309575D02*
X547750Y309575D01*
X547750Y274575D01*
X512750Y274575D01*
X512750Y309575D01*
G37*
G36*
X512750Y474675D02*
X547750Y474675D01*
X547750Y439675D01*
X512750Y439675D01*
X512750Y474675D01*
G37*
G36*
X512750Y392125D02*
X547750Y392125D01*
X547750Y357125D01*
X512750Y357125D01*
X512750Y392125D01*
G37*
G36*
X862000Y309575D02*
X897000Y309575D01*
X897000Y274575D01*
X862000Y274575D01*
X862000Y309575D01*
G37*
G36*
X862000Y392125D02*
X897000Y392125D01*
X897000Y357125D01*
X862000Y357125D01*
X862000Y392125D01*
G37*
G36*
X862000Y474675D02*
X897000Y474675D01*
X897000Y439675D01*
X862000Y439675D01*
X862000Y474675D01*
G37*
X822350Y419075D02*
G54D10*
D03*
X822350Y389075D02*
G54D10*
D03*
X822350Y359075D02*
G54D10*
D03*
X676300Y419075D02*
G54D11*
D03*
X628675Y393675D02*
G54D11*
D03*
G54D12*
X628675Y393675D02*
X660425Y393675D01*
X676300Y409550D01*
X676300Y419075D01*
X482625Y482575D02*
G54D11*
D03*
X482625Y263500D02*
G54D11*
D03*
X482625Y374625D02*
G54D11*
D03*
X920775Y374625D02*
G54D11*
D03*
X920775Y482575D02*
G54D11*
D03*
X920775Y263500D02*
G54D11*
D03*
G36*
X562000Y377800D02*
X800125Y377800D01*
X800125Y257150D01*
X562000Y257150D01*
X562000Y377800D01*
G37*
G54D12*
X562000Y377800D02*
X800125Y377800D01*
X800125Y257150D01*
X562000Y257150D01*
X562000Y377800D01*
G36*
X479450Y485750D02*
X501675Y485750D01*
X501675Y257150D01*
X479450Y257150D01*
X479450Y485750D01*
G37*
G54D12*
X479450Y485750D02*
X501675Y485750D01*
X501675Y257150D01*
X479450Y257150D01*
X479450Y485750D01*
G36*
X908075Y257150D02*
X930300Y257150D01*
X930300Y488925D01*
X908075Y488925D01*
X908075Y257150D01*
G37*
G54D12*
X908075Y257150D02*
X930300Y257150D01*
X930300Y488925D01*
X908075Y488925D01*
X908075Y257150D01*
G54D12*
X501675Y485750D02*
X501675Y488925D01*
X476275Y488925D01*
X476275Y257150D01*
X482625Y257150D01*
X482625Y485750D01*
X485800Y488925D01*
G36*
X501675Y320650D02*
X562000Y320650D01*
X562000Y349225D01*
X562000Y346050D01*
X501675Y346050D01*
X501675Y320650D01*
G37*
G54D12*
X501675Y320650D02*
X562000Y320650D01*
X562000Y349225D01*
X562000Y346050D01*
X501675Y346050D01*
X501675Y320650D01*
G36*
X501675Y403200D02*
X562000Y403200D01*
X562000Y377800D01*
X619150Y377800D01*
X619150Y428600D01*
X501675Y428600D01*
X501675Y403200D01*
G37*
G54D12*
X501675Y403200D02*
X562000Y403200D01*
X562000Y377800D01*
X619150Y377800D01*
X619150Y428600D01*
X501675Y428600D01*
X501675Y403200D01*
G36*
X558825Y342875D02*
X558825Y412725D01*
X562000Y415900D01*
X558825Y342875D01*
G37*
G54D12*
X558825Y342875D02*
X558825Y412725D01*
X562000Y415900D01*
X558825Y342875D01*
G54D12*
X558825Y323825D02*
X558825Y257150D01*
X501675Y257150D01*
X501675Y266675D01*
X501675Y263500D01*
X565175Y263500D01*
X568350Y260325D01*
X501675Y260325D01*
G54D12*
X911250Y485750D02*
X504850Y485750D01*
X501675Y488925D01*
X908075Y488925D01*
X908075Y257150D01*
X793775Y257150D01*
X800125Y263500D01*
X911250Y263500D01*
X914425Y266675D01*
X914425Y263500D01*
X911250Y260325D01*
X777900Y260325D01*
X774725Y257150D01*
G54D12*
X911250Y320650D02*
X850925Y320650D01*
X850925Y263500D01*
X847750Y260325D01*
X847750Y428600D01*
X911250Y428600D01*
X914425Y425425D01*
X914425Y403200D01*
X911250Y400025D01*
X908075Y403200D01*
X847750Y403200D01*
X850925Y403200D01*
X850925Y346050D01*
X914425Y346050D01*
X917600Y342875D01*
G54D12*
X530250Y457175D02*
X879500Y457175D01*
X879500Y460350D01*
X530250Y460350D01*
X530250Y454000D01*
X879500Y454000D01*
G36*
X847750Y346050D02*
X908075Y346050D01*
X908075Y320650D01*
X847750Y320650D01*
X847750Y346050D01*
G37*
G54D12*
X847750Y346050D02*
X908075Y346050D01*
X908075Y320650D01*
X847750Y320650D01*
X847750Y346050D01*
G36*
X847750Y403200D02*
X908075Y403200D01*
X908075Y428600D01*
X847750Y428600D01*
X847750Y403200D01*
G37*
G54D12*
X847750Y403200D02*
X908075Y403200D01*
X908075Y428600D01*
X847750Y428600D01*
X847750Y403200D01*
G54D12*
X800125Y336525D02*
X847750Y336525D01*
X847750Y266675D01*
X800125Y266675D01*
X800125Y336525D01*
X806475Y336525D01*
G36*
X800125Y336525D02*
X847750Y336525D01*
X847750Y269850D01*
X800125Y269850D01*
X800125Y336525D01*
G37*
G54D12*
X800125Y336525D02*
X847750Y336525D01*
X847750Y269850D01*
X800125Y269850D01*
X800125Y336525D01*
G36*
X850925Y336525D02*
X844575Y336525D01*
X844575Y441300D01*
X850925Y441300D01*
X850925Y336525D01*
G37*
G54D12*
X850925Y336525D02*
X844575Y336525D01*
X844575Y441300D01*
X850925Y441300D01*
X850925Y336525D01*
G36*
X558825Y400025D02*
X619150Y400025D01*
X619150Y441300D01*
X558825Y441300D01*
X558825Y400025D01*
G37*
G54D12*
X558825Y400025D02*
X619150Y400025D01*
X619150Y441300D01*
X558825Y441300D01*
X558825Y400025D01*
G36*
X558825Y485750D02*
X850925Y485750D01*
X850925Y473050D01*
X558825Y473050D01*
X558825Y485750D01*
G37*
G54D12*
X558825Y485750D02*
X850925Y485750D01*
X850925Y473050D01*
X558825Y473050D01*
X558825Y485750D01*
G36*
X800125Y358750D02*
X692175Y358750D01*
X692175Y441300D01*
X800125Y441300D01*
X800125Y358750D01*
G37*
G54D12*
X800125Y358750D02*
X692175Y358750D01*
X692175Y441300D01*
X800125Y441300D01*
X800125Y358750D01*
G36*
X619150Y441300D02*
X654075Y441300D01*
X654075Y406375D01*
X619150Y406375D01*
X619150Y441300D01*
G37*
G54D12*
X619150Y441300D02*
X654075Y441300D01*
X654075Y406375D01*
X619150Y406375D01*
X619150Y441300D01*
G54D12*
X619150Y400025D02*
X631850Y412725D01*
X647725Y412725D01*
X654075Y406375D01*
X657250Y406375D01*
X663600Y412725D01*
X663600Y431775D01*
X663600Y425425D01*
X673125Y434950D01*
X669950Y431775D01*
X682650Y431775D01*
X692175Y422250D01*
X689000Y422250D01*
X689000Y425425D01*
X689000Y406375D01*
X657250Y374625D01*
X631850Y374625D01*
X615975Y390500D01*
X622325Y384150D01*
X622325Y380975D01*
X673125Y380975D01*
X692175Y400025D01*
X689000Y403200D01*
X689000Y400025D01*
X669950Y380975D01*
X685825Y380975D01*
X689000Y384150D01*
X689000Y390500D01*
X682650Y384150D01*
G54D12*
X650900Y441300D02*
X698525Y441300D01*
X698525Y434950D01*
X650900Y434950D01*
X650900Y438125D01*
X695350Y438125D01*
X695350Y431775D01*
X654075Y431775D01*
X657250Y428600D01*
X657250Y412725D01*
X660425Y415900D01*
X660425Y431775D01*
G54D12*
X800125Y441300D02*
X844575Y441300D01*
G54D12*
X847750Y438125D02*
X800125Y438125D01*
G54D12*
X498500Y292075D02*
X562000Y292075D01*
X530250Y292075D01*
X530250Y260325D01*
X530250Y327000D01*
X530250Y292075D01*
X917600Y292075D01*
X879500Y292075D01*
X879500Y323825D01*
X873150Y330175D01*
X879500Y323825D01*
X879500Y260325D01*
X689000Y396850D02*
G54D11*
D03*
X727100Y374625D02*
G54D11*
D03*
X714400Y485750D02*
G54D11*
D03*
X714400Y260325D02*
G54D11*
D03*
G36*
X512750Y61925D02*
X547750Y61925D01*
X547750Y26925D01*
X512750Y26925D01*
X512750Y61925D01*
G37*
G36*
X512750Y227025D02*
X547750Y227025D01*
X547750Y192025D01*
X512750Y192025D01*
X512750Y227025D01*
G37*
G36*
X512750Y144475D02*
X547750Y144475D01*
X547750Y109475D01*
X512750Y109475D01*
X512750Y144475D01*
G37*
G36*
X862000Y61925D02*
X897000Y61925D01*
X897000Y26925D01*
X862000Y26925D01*
X862000Y61925D01*
G37*
G36*
X862000Y144475D02*
X897000Y144475D01*
X897000Y109475D01*
X862000Y109475D01*
X862000Y144475D01*
G37*
G36*
X862000Y227025D02*
X897000Y227025D01*
X897000Y192025D01*
X862000Y192025D01*
X862000Y227025D01*
G37*
X822350Y171425D02*
G54D10*
D03*
X822350Y141425D02*
G54D10*
D03*
X822350Y111425D02*
G54D10*
D03*
X676300Y171425D02*
G54D11*
D03*
X628675Y146025D02*
G54D11*
D03*
G54D12*
X628675Y146025D02*
X660425Y146025D01*
X676300Y161900D01*
X676300Y171425D01*
X482625Y234925D02*
G54D11*
D03*
X482625Y15850D02*
G54D11*
D03*
X482625Y126975D02*
G54D11*
D03*
X920775Y126975D02*
G54D11*
D03*
X920775Y234925D02*
G54D11*
D03*
X920775Y15850D02*
G54D11*
D03*
G36*
X562000Y130150D02*
X800125Y130150D01*
X800125Y9500D01*
X562000Y9500D01*
X562000Y130150D01*
G37*
G54D12*
X562000Y130150D02*
X800125Y130150D01*
X800125Y9500D01*
X562000Y9500D01*
X562000Y130150D01*
G36*
X479450Y238100D02*
X501675Y238100D01*
X501675Y9500D01*
X479450Y9500D01*
X479450Y238100D01*
G37*
G54D12*
X479450Y238100D02*
X501675Y238100D01*
X501675Y9500D01*
X479450Y9500D01*
X479450Y238100D01*
G36*
X908075Y9500D02*
X930300Y9500D01*
X930300Y241275D01*
X908075Y241275D01*
X908075Y9500D01*
G37*
G54D12*
X908075Y9500D02*
X930300Y9500D01*
X930300Y241275D01*
X908075Y241275D01*
X908075Y9500D01*
G54D12*
X501675Y238100D02*
X501675Y241275D01*
X476275Y241275D01*
X476275Y9500D01*
X482625Y9500D01*
X482625Y238100D01*
X485800Y241275D01*
G36*
X501675Y73000D02*
X562000Y73000D01*
X562000Y101575D01*
X562000Y98400D01*
X501675Y98400D01*
X501675Y73000D01*
G37*
G54D12*
X501675Y73000D02*
X562000Y73000D01*
X562000Y101575D01*
X562000Y98400D01*
X501675Y98400D01*
X501675Y73000D01*
G36*
X501675Y155550D02*
X562000Y155550D01*
X562000Y130150D01*
X619150Y130150D01*
X619150Y180950D01*
X501675Y180950D01*
X501675Y155550D01*
G37*
G54D12*
X501675Y155550D02*
X562000Y155550D01*
X562000Y130150D01*
X619150Y130150D01*
X619150Y180950D01*
X501675Y180950D01*
X501675Y155550D01*
G36*
X558825Y95225D02*
X558825Y165075D01*
X562000Y168250D01*
X558825Y95225D01*
G37*
G54D12*
X558825Y95225D02*
X558825Y165075D01*
X562000Y168250D01*
X558825Y95225D01*
G54D12*
X558825Y76175D02*
X558825Y9500D01*
X501675Y9500D01*
X501675Y19025D01*
X501675Y15850D01*
X565175Y15850D01*
X568350Y12675D01*
X501675Y12675D01*
G54D12*
X911250Y238100D02*
X504850Y238100D01*
X501675Y241275D01*
X908075Y241275D01*
X908075Y9500D01*
X793775Y9500D01*
X800125Y15850D01*
X911250Y15850D01*
X914425Y19025D01*
X914425Y15850D01*
X911250Y12675D01*
X777900Y12675D01*
X774725Y9500D01*
G54D12*
X911250Y73000D02*
X850925Y73000D01*
X850925Y15850D01*
X847750Y12675D01*
X847750Y180950D01*
X911250Y180950D01*
X914425Y177775D01*
X914425Y155550D01*
X911250Y152375D01*
X908075Y155550D01*
X847750Y155550D01*
X850925Y155550D01*
X850925Y98400D01*
X914425Y98400D01*
X917600Y95225D01*
G54D12*
X530250Y209525D02*
X879500Y209525D01*
X879500Y212700D01*
X530250Y212700D01*
X530250Y206350D01*
X879500Y206350D01*
G36*
X847750Y98400D02*
X908075Y98400D01*
X908075Y73000D01*
X847750Y73000D01*
X847750Y98400D01*
G37*
G54D12*
X847750Y98400D02*
X908075Y98400D01*
X908075Y73000D01*
X847750Y73000D01*
X847750Y98400D01*
G36*
X847750Y155550D02*
X908075Y155550D01*
X908075Y180950D01*
X847750Y180950D01*
X847750Y155550D01*
G37*
G54D12*
X847750Y155550D02*
X908075Y155550D01*
X908075Y180950D01*
X847750Y180950D01*
X847750Y155550D01*
G54D12*
X800125Y88875D02*
X847750Y88875D01*
X847750Y19025D01*
X800125Y19025D01*
X800125Y88875D01*
X806475Y88875D01*
G36*
X800125Y88875D02*
X847750Y88875D01*
X847750Y22200D01*
X800125Y22200D01*
X800125Y88875D01*
G37*
G54D12*
X800125Y88875D02*
X847750Y88875D01*
X847750Y22200D01*
X800125Y22200D01*
X800125Y88875D01*
G36*
X850925Y88875D02*
X844575Y88875D01*
X844575Y193650D01*
X850925Y193650D01*
X850925Y88875D01*
G37*
G54D12*
X850925Y88875D02*
X844575Y88875D01*
X844575Y193650D01*
X850925Y193650D01*
X850925Y88875D01*
G36*
X558825Y152375D02*
X619150Y152375D01*
X619150Y193650D01*
X558825Y193650D01*
X558825Y152375D01*
G37*
G54D12*
X558825Y152375D02*
X619150Y152375D01*
X619150Y193650D01*
X558825Y193650D01*
X558825Y152375D01*
G36*
X558825Y238100D02*
X850925Y238100D01*
X850925Y225400D01*
X558825Y225400D01*
X558825Y238100D01*
G37*
G54D12*
X558825Y238100D02*
X850925Y238100D01*
X850925Y225400D01*
X558825Y225400D01*
X558825Y238100D01*
G36*
X800125Y111100D02*
X692175Y111100D01*
X692175Y193650D01*
X800125Y193650D01*
X800125Y111100D01*
G37*
G54D12*
X800125Y111100D02*
X692175Y111100D01*
X692175Y193650D01*
X800125Y193650D01*
X800125Y111100D01*
G36*
X619150Y193650D02*
X654075Y193650D01*
X654075Y158725D01*
X619150Y158725D01*
X619150Y193650D01*
G37*
G54D12*
X619150Y193650D02*
X654075Y193650D01*
X654075Y158725D01*
X619150Y158725D01*
X619150Y193650D01*
G54D12*
X619150Y152375D02*
X631850Y165075D01*
X647725Y165075D01*
X654075Y158725D01*
X657250Y158725D01*
X663600Y165075D01*
X663600Y184125D01*
X663600Y177775D01*
X673125Y187300D01*
X669950Y184125D01*
X682650Y184125D01*
X692175Y174600D01*
X689000Y174600D01*
X689000Y177775D01*
X689000Y158725D01*
X657250Y126975D01*
X631850Y126975D01*
X615975Y142850D01*
X622325Y136500D01*
X622325Y133325D01*
X673125Y133325D01*
X692175Y152375D01*
X689000Y155550D01*
X689000Y152375D01*
X669950Y133325D01*
X685825Y133325D01*
X689000Y136500D01*
X689000Y142850D01*
X682650Y136500D01*
G54D12*
X650900Y193650D02*
X698525Y193650D01*
X698525Y187300D01*
X650900Y187300D01*
X650900Y190475D01*
X695350Y190475D01*
X695350Y184125D01*
X654075Y184125D01*
X657250Y180950D01*
X657250Y165075D01*
X660425Y168250D01*
X660425Y184125D01*
G54D12*
X800125Y193650D02*
X844575Y193650D01*
G54D12*
X847750Y190475D02*
X800125Y190475D01*
G54D12*
X498500Y44425D02*
X562000Y44425D01*
X530250Y44425D01*
X530250Y12675D01*
X530250Y79350D01*
X530250Y44425D01*
X917600Y44425D01*
X879500Y44425D01*
X879500Y76175D01*
X873150Y82525D01*
X879500Y76175D01*
X879500Y12675D01*
X689000Y149200D02*
G54D11*
D03*
X727100Y126975D02*
G54D11*
D03*
X714400Y238100D02*
G54D11*
D03*
X714400Y12675D02*
G54D11*
D03*
M02*
