; Drill file
; Format: 2.4 (00.0000)
M48
INCH
T01C0.0197
T02C0.0236
T03C0.0315
T04C0.0512
T05C0.0827
%
G05
G90
T01
X000250Y009750
X000500Y009750
X000750Y009750
X001000Y009750
X001250Y009750
X001500Y009750
X001750Y009750
X002000Y009750
X002250Y009750
X002500Y009750
X002750Y009750
X003000Y009750
X003250Y009750
X003500Y009750
X003750Y009750
X004000Y009750
X004250Y009750
X004500Y009750
X004750Y009750
X005000Y009750
X005250Y009750
X005500Y009750
X005750Y009750
X006000Y009750
X006250Y009750
X006500Y009750
X006750Y009750
X007000Y009750
X007250Y009750
X007500Y009750
X007750Y009750
X008000Y009750
X008250Y009750
X008500Y009750
X008750Y009750
X009000Y009750
X009250Y009750
X009500Y009750
X009750Y009750
X010000Y009750
X010250Y009750
X010500Y009750
X010750Y009750
X011000Y009750
X011250Y009750
X011500Y009750
X011750Y009750
X012000Y009750
X012250Y009750
X012500Y009750
X012750Y009750
X013000Y009750
X013250Y009750
X013500Y009750
X013750Y009750
X014000Y009750
X014250Y009750
X014500Y009750
X014750Y009750
X015000Y009750
X015250Y009750
X015500Y009750
X015750Y009750
X016000Y009750
X016250Y009750
X016500Y009750
X016750Y009750
X017000Y009750
X017250Y009750
X017500Y009750
X017750Y009750
X018000Y009750
X018250Y009750
X018500Y009750
X018750Y009750
X019000Y009750
X019250Y009750
X019500Y009750
X019750Y009750
X020000Y009750
X020250Y009750
X020500Y009750
X020750Y009750
X021000Y009750
X021250Y009750
X021500Y009750
X021750Y009750
X022000Y009750
X022250Y009750
X022500Y009750
X022750Y009750
X023000Y009750
X023250Y009750
X023500Y009750
X023750Y009750
X024000Y009750
X024250Y009750
X024500Y009750
X024750Y009750
X025000Y009750
X025250Y009750
X025500Y009750
X025750Y009750
X026000Y009750
X026250Y009750
X026500Y009750
X026750Y009750
X027000Y009750
X027250Y009750
X027500Y009750
X027750Y009750
X028000Y009750
X028250Y009750
X028500Y009750
X028750Y009750
X029000Y009750
X029250Y009750
X029500Y009750
X029750Y009750
X030000Y009750
X030250Y009750
X030500Y009750
X030750Y009750
X031000Y009750
X031250Y009750
X031500Y009750
X031750Y009750
X032000Y009750
X032250Y009750
X032500Y009750
X032750Y009750
X033000Y009750
X033250Y009750
X033500Y009750
X033750Y009750
X034000Y009750
X034250Y009750
X034500Y009750
X034750Y009750
X035000Y009750
X035250Y009750
X035500Y009750
X035750Y009750
X036000Y009750
X036250Y009750
X036500Y009750
X036750Y009750
X036750Y019500
X036500Y019500
X036250Y019500
X036000Y019500
X035750Y019500
X035500Y019500
X035250Y019500
X035000Y019500
X034750Y019500
X034500Y019500
X034250Y019500
X034000Y019500
X033750Y019500
X033500Y019500
X033250Y019500
X033000Y019500
X032750Y019500
X032500Y019500
X032250Y019500
X032000Y019500
X031750Y019500
X031500Y019500
X031250Y019500
X031000Y019500
X030750Y019500
X030500Y019500
X030250Y019500
X030000Y019500
X029750Y019500
X029500Y019500
X029250Y019500
X029000Y019500
X028750Y019500
X028500Y019500
X028250Y019500
X028000Y019500
X027750Y019500
X027500Y019500
X027250Y019500
X027000Y019500
X026750Y019500
X026500Y019500
X026250Y019500
X026000Y019500
X025750Y019500
X025500Y019500
X025250Y019500
X025000Y019500
X024750Y019500
X024500Y019500
X024250Y019500
X024000Y019500
X023750Y019500
X023500Y019500
X023250Y019500
X023000Y019500
X022750Y019500
X022500Y019500
X022250Y019500
X022000Y019500
X021750Y019500
X021500Y019500
X021250Y019500
X021000Y019500
X020750Y019500
X020500Y019500
X020250Y019500
X020000Y019500
X019750Y019500
X019500Y019500
X019250Y019500
X019000Y019500
X018750Y019500
X018500Y019500
X018250Y019500
X018000Y019500
X017750Y019500
X017500Y019500
X017250Y019500
X017000Y019500
X016750Y019500
X016500Y019500
X016250Y019500
X016000Y019500
X015750Y019500
X015500Y019500
X015250Y019500
X015000Y019500
X014750Y019500
X014500Y019500
X014250Y019500
X014000Y019500
X013750Y019500
X013500Y019500
X013250Y019500
X013000Y019500
X012750Y019500
X012500Y019500
X012250Y019500
X012000Y019500
X011750Y019500
X011500Y019500
X011250Y019500
X011000Y019500
X010750Y019500
X010500Y019500
X010250Y019500
X010000Y019500
X009750Y019500
X009500Y019500
X009250Y019500
X009000Y019500
X008750Y019500
X008500Y019500
X008250Y019500
X008000Y019500
X007750Y019500
X007500Y019500
X007250Y019500
X007000Y019500
X006750Y019500
X006500Y019500
X006250Y019500
X006000Y019500
X005750Y019500
X005500Y019500
X005250Y019500
X005000Y019500
X004750Y019500
X004500Y019500
X004250Y019500
X004000Y019500
X003750Y019500
X003500Y019500
X003250Y019500
X003000Y019500
X002750Y019500
X002500Y019500
X002250Y019500
X002000Y019500
X001750Y019500
X001500Y019500
X001250Y019500
X001000Y019500
X000750Y019500
X000500Y019500
X000250Y019500
X000250Y029250
X000500Y029250
X000750Y029250
X001000Y029250
X001250Y029250
X001500Y029250
X001750Y029250
X002000Y029250
X002250Y029250
X002500Y029250
X002750Y029250
X003000Y029250
X003250Y029250
X003500Y029250
X003750Y029250
X004000Y029250
X004250Y029250
X004500Y029250
X004750Y029250
X005000Y029250
X005250Y029250
X005500Y029250
X005750Y029250
X006000Y029250
X006250Y029250
X006500Y029250
X006750Y029250
X007000Y029250
X007250Y029250
X007500Y029250
X007750Y029250
X008000Y029250
X008250Y029250
X008500Y029250
X008750Y029250
X009000Y029250
X009250Y029250
X009500Y029250
X009750Y029250
X010000Y029250
X010250Y029250
X010500Y029250
X010750Y029250
X011000Y029250
X011250Y029250
X011500Y029250
X011750Y029250
X012000Y029250
X012250Y029250
X012500Y029250
X012750Y029250
X013000Y029250
X013250Y029250
X013500Y029250
X013750Y029250
X014000Y029250
X014250Y029250
X014500Y029250
X014750Y029250
X015000Y029250
X015250Y029250
X015500Y029250
X015750Y029250
X016000Y029250
X016250Y029250
X016500Y029250
X016750Y029250
X017000Y029250
X017250Y029250
X017500Y029250
X017750Y029250
X018000Y029250
X018250Y029250
X018500Y029250
X018750Y029250
X019000Y029250
X019250Y029250
X019500Y029250
X019750Y029250
X020000Y029250
X020250Y029250
X020500Y029250
X020750Y029250
X021000Y029250
X021250Y029250
X021500Y029250
X021750Y029250
X022000Y029250
X022250Y029250
X022500Y029250
X022750Y029250
X023000Y029250
X023250Y029250
X023500Y029250
X023750Y029250
X024000Y029250
X024250Y029250
X024500Y029250
X024750Y029250
X025000Y029250
X025250Y029250
X025500Y029250
X025750Y029250
X026000Y029250
X026250Y029250
X026500Y029250
X026750Y029250
X027000Y029250
X027250Y029250
X027500Y029250
X027750Y029250
X028000Y029250
X028250Y029250
X028500Y029250
X028750Y029250
X029000Y029250
X029250Y029250
X029500Y029250
X029750Y029250
X030000Y029250
X030250Y029250
X030500Y029250
X030750Y029250
X031000Y029250
X031250Y029250
X031500Y029250
X031750Y029250
X032000Y029250
X032250Y029250
X032500Y029250
X032750Y029250
X033000Y029250
X033250Y029250
X033500Y029250
X033750Y029250
X034000Y029250
X034250Y029250
X034500Y029250
X034750Y029250
X035000Y029250
X035250Y029250
X035500Y029250
X035750Y029250
X036000Y029250
X036250Y029250
X036500Y029250
X036750Y029250
X018500Y029500
X018500Y029750
X018500Y030000
X018500Y030250
X018500Y030500
X018500Y030750
X018500Y031000
X018500Y031250
X018500Y031500
X018500Y031750
X018500Y032000
X018500Y032250
X018500Y032500
X018500Y032750
X018500Y033000
X018500Y033250
X018500Y033500
X018500Y033750
X018500Y034000
X018500Y034250
X018500Y034500
X018500Y034750
X018500Y035000
X018500Y035250
X018500Y035500
X018500Y035750
X018500Y036000
X018500Y036250
X018500Y036500
X018500Y036750
X018500Y037000
X018500Y037250
X018500Y037500
X018500Y037750
X018500Y038000
X018500Y038250
X018500Y038500
X018500Y038750
X018500Y029000
X018500Y028750
X018500Y028500
X018500Y028250
X018500Y028000
X018500Y027750
X018500Y027500
X018500Y027250
X018500Y027000
X018500Y026750
X018500Y026500
X018500Y026250
X018500Y026000
X018500Y025750
X018500Y025500
X018500Y025250
X018500Y025000
X018500Y024750
X018500Y024500
X018500Y024250
X018500Y024000
X018500Y023750
X018500Y023500
X018500Y023250
X018500Y023000
X018500Y022750
X018500Y022500
X018500Y022250
X018500Y022000
X018500Y021750
X018500Y021500
X018500Y021250
X018500Y021000
X018500Y020750
X018500Y020500
X018500Y020250
X018500Y020000
X018500Y019750
X018500Y019250
X018500Y019000
X018500Y018750
X018500Y018500
X018500Y018250
X018500Y018000
X018500Y017750
X018500Y017500
X018500Y017250
X018500Y017000
X018500Y016750
X018500Y016500
X018500Y016250
X018500Y016000
X018500Y015750
X018500Y015500
X018500Y015250
X018500Y015000
X018500Y014750
X018500Y014500
X018500Y014250
X018500Y014000
X018500Y013750
X018500Y013500
X018500Y013250
X018500Y013000
X018500Y012750
X018500Y012500
X018500Y012250
X018500Y012000
X018500Y011750
X018500Y011500
X018500Y011250
X018500Y011000
X018500Y010750
X018500Y010500
X018500Y010250
X018500Y010000
X018500Y009500
X018500Y009250
X018500Y009000
X018500Y008750
X018500Y008500
X018500Y008250
X018500Y008000
X018500Y007750
X018500Y007500
X018500Y007250
X018500Y007000
X018500Y006750
X018500Y006500
X018500Y006250
X018500Y006000
X018500Y005750
X018500Y005500
X018500Y005250
X018500Y005000
X018500Y004750
X018500Y004500
X018500Y004250
X018500Y004000
X018500Y003750
X018500Y003500
X018500Y003250
X018500Y003000
X018500Y002750
X018500Y002500
X018500Y002250
X018500Y002000
X018500Y001750
X018500Y001500
X018500Y001250
X018500Y001000
X018500Y000750
X018500Y000500
T02
X000500Y000620
X000500Y005000
X000500Y009250
X000500Y010370
X000500Y014750
X000500Y019000
X000500Y020120
X000500Y024500
X000500Y028750
X000500Y029870
X000500Y034250
X000500Y038500
X006250Y035000
X008130Y036000
X008630Y035120
X010130Y034250
X009630Y038620
X017750Y038500
X019000Y038500
X019000Y034250
X017750Y034250
X017750Y029870
X017750Y028750
X019000Y028750
X019000Y029870
X019000Y024500
X017750Y024500
X017750Y020120
X017750Y019000
X019000Y019000
X019000Y020120
X019000Y014750
X017750Y014750
X017750Y010370
X017750Y009250
X019000Y009250
X019000Y010370
X019000Y005000
X017750Y005000
X017750Y000620
X019000Y000620
X024750Y005750
X026630Y006750
X027130Y005870
X028630Y005000
X028130Y009370
X028130Y010250
X028630Y014750
X027130Y015620
X026630Y016500
X024750Y015500
X028130Y019120
X028130Y020000
X028630Y024500
X027130Y025370
X026630Y026250
X024750Y025250
X028130Y028870
X028130Y029750
X028630Y034250
X027130Y035120
X026630Y036000
X024750Y035000
X028130Y038620
X036250Y038500
X036250Y034250
X036250Y029870
X036250Y028750
X036250Y024500
X036250Y020120
X036250Y019000
X036250Y014750
X036250Y010370
X036250Y009250
X036250Y005000
X036250Y000620
X028130Y000500
X009630Y000500
X010130Y005000
X008630Y005870
X008130Y006750
X006250Y005750
X009630Y009370
X009630Y010250
X010130Y014750
X008630Y015620
X008130Y016500
X006250Y015500
X009630Y019120
X009630Y020000
X010130Y024500
X008630Y025370
X008130Y026250
X006250Y025250
X009630Y028870
X009630Y029750
T03
X013880Y004390
X013880Y005570
X013880Y006750
X013880Y014140
X013880Y015320
X013880Y016500
X013880Y023890
X013880Y025070
X013880Y026250
X013880Y033640
X013880Y034820
X013880Y036000
X032380Y036000
X032380Y034820
X032380Y033640
X032380Y026250
X032380Y025070
X032380Y023890
X032380Y016500
X032380Y015320
X032380Y014140
X032380Y006750
X032380Y005570
X032380Y004390
T04
X002380Y001750
X002380Y005000
X002380Y008250
X002380Y011500
X002380Y014750
X002380Y018000
X002380Y021250
X002380Y024500
X002380Y027750
X002380Y031000
X002380Y034250
X002380Y037500
X016130Y037500
X016130Y034250
X016130Y031000
X016130Y027750
X016130Y024500
X016130Y021250
X016130Y018000
X016130Y014750
X016130Y011500
X016130Y008250
X016130Y005000
X016130Y001750
X020880Y001750
X020880Y005000
X020880Y008250
X020880Y011500
X020880Y014750
X020880Y018000
X020880Y021250
X020880Y024500
X020880Y027750
X020880Y031000
X020880Y034250
X020880Y037500
X034630Y037500
X034630Y034250
X034630Y031000
X034630Y027750
X034630Y024500
X034630Y021250
X034630Y018000
X034630Y014750
X034630Y011500
X034630Y008250
X034630Y005000
X034630Y001750
T05
X000750Y003370
X000750Y006620
X004750Y005250
X012000Y007120
X012500Y002870
X017630Y003370
X019250Y003370
X019250Y006620
X017630Y006620
X023250Y005250
X030500Y007120
X031000Y002870
X036130Y003370
X036130Y006620
X036130Y013120
X036130Y016370
X030500Y016870
X031000Y012620
X023250Y015000
X019250Y016370
X017630Y016370
X017630Y013120
X019250Y013120
X012500Y012620
X012000Y016870
X012500Y022370
X012000Y026620
X012500Y032120
X012000Y036370
X017630Y035870
X019250Y035870
X019250Y032620
X017630Y032620
X023250Y034500
X030500Y036370
X031000Y032120
X036130Y032620
X036130Y035870
X036130Y026120
X036130Y022870
X031000Y022370
X030500Y026620
X023250Y024750
X019250Y026120
X017630Y026120
X017630Y022870
X019250Y022870
X004750Y024750
X000750Y026120
X000750Y022870
X000750Y016370
X000750Y013120
X004750Y015000
X000750Y032620
X000750Y035870
X004750Y034500
M30
